<?xml version="1.0" standalone="no"?><!DOCTYPE svg PUBLIC "-//W3C//DTD SVG 1.1//EN" "http://www.w3.org/Graphics/SVG/1.1/DTD/svg11.dtd" ><svg xmlns="http://www.w3.org/2000/svg"><metadata></metadata><defs><font id="50Fox: 2017" horiz-adv-x="833"><font-face font-family="Oraqle Script" font-weight="400" font-stretch="normal" units-per-em="1000" panose-1="0 0 0 0 0 0 0 0 0 0" ascent="750" descent="-250" x-height="0" bbox="-874 -307 772 749" underline-thickness="50" underline-position="-75" unicode-range="U+0000-2122" /><missing-glyph horiz-adv-x="143"  /><glyph glyph-name="" unicode="" d="" /><glyph glyph-name="" unicode="" d="" /><glyph glyph-name="" unicode=" " d="" /><glyph glyph-name="" unicode="e" d="M619 550 q-33 10 -70 15 q-37 5 -75 5 q-35 0 -69 -3 q-35 -4 -67 -9 q-5 9 -18 18 q-12 9 -25 10 q-18 -1 -26 -16 q-8 -16 -13 -31 q-92 -24 -169 -72 q-76 -48 -81 -124 q0 -8 2 -20 q3 -13 14 -14 q4 0 10 2 q7 2 15 2 q20 0 45 -3 q24 -3 47 -7 q-33 -13 -63 -34 q-17 -18 -27 -39 q-11 -22 -11 -43 q0 -8 3 -14 q2 -6 9 -6 q6 2 29 21 q23 19 47 31 q-14 -41 -25 -86 q-11 -46 -12 -84 q-20 -2 -34 -5 q-14 -3 -15 -23 q0 -12 6 -38 q6 -25 24 -29 q59 21 118 29 q59 8 125 8 q43 0 83 -6 q40 -7 57 -27 q2 -3 5 -6 q3 -3 7 -3 q5 0 7 4 q2 5 2 10 q-4 60 -75 78 q-71 18 -163 16 q-14 0 -29 0 q-14 0 -28 -1 q7 60 22 106 q16 46 33 84 l3 8 q28 5 80 10 q51 5 80 7 q7 1 16 18 q9 17 10 34 q0 8 -4 14 q-4 5 -13 5 q-22 0 -67 -3 q-45 -3 -69 -5 q32 72 65 142 q77 13 156 13 q30 1 73 -7 q43 -8 60 -37 q3 -5 4 -9 q0 -3 0 -7 q0 -6 0 -10 q-1 -4 -1 -7 q0 -8 4 -11 q4 -3 5 -3 q1 0 2 2 q1 1 2 1 q1 0 2 -2 q1 -2 2 -2 q5 1 9 5 q5 3 9 4 q1 2 2 3 q1 1 2 1 q14 14 22 31 q8 16 8 33 q-1 31 -25 49 q-23 18 -52 27 l0 0 ZM105 58 q0 57 33 164 q-24 -105 -33 -164 l0 0 ZM427 -18 q-55 18 -123 17 q-20 0 -42 -1 q-22 -2 -45 -5 q42 12 86 12 q61 0 124 -23 l0 0 ZM164 344 q-25 5 -48 10 q-24 5 -49 9 q29 27 67 47 q39 20 79 33 q-11 -25 -21 -50 q-11 -25 -21 -51 l-7 2 ZM237 497 q-29 -10 -64 -27 q-35 -17 -79 -42 q3 4 30 19 q27 15 45 25 q19 10 35 18 q16 7 30 11 l5 1 l-2 -5 ZM247 518 q-32 -7 -76 -27 q-45 -19 -93 -51 q-3 -1 -4 -1 q8 8 73 41 q66 33 90 41 l12 2 l-2 -5 ZM680 472 q-3 36 -59 60 q-57 25 -144 26 q14 1 27 1 q85 -1 130 -25 q46 -25 46 -62 l0 0 Z" /><glyph glyph-name="" unicode="f" d="M613 550 q-33 10 -70 15 q-37 5 -75 5 q-35 0 -69 -3 q-35 -4 -67 -9 q-5 9 -18 18 q-12 9 -25 10 q-18 -1 -26 -16 q-8 -16 -13 -31 q-92 -24 -169 -72 q-76 -48 -81 -124 q0 -8 2 -20 q3 -13 14 -14 q4 0 11 2 q7 2 15 2 q20 0 44 -3 q25 -3 47 -7 q-33 -13 -63 -34 q-17 -18 -27 -39 q-11 -22 -11 -43 q0 -8 3 -14 q2 -6 9 -6 q6 2 29 21 q23 19 47 31 q-15 -42 -26 -85 q-10 -42 -11 -88 q0 -37 17 -61 q18 -23 52 -24 q21 0 41 13 l7 6 l-7 5 q-12 9 -16 24 q-5 14 -5 32 q0 25 6 50 q5 25 10 41 q9 31 20 61 q11 31 23 61 q25 5 51 8 q25 4 51 5 q0 -6 1 -11 q1 -6 2 -12 l2 -6 q4 -6 7 -16 q4 -10 8 -11 q1 0 4 -5 q4 -4 7 -5 q14 6 27 55 q12 50 34 74 q4 4 6 8 q2 4 2 9 q-1 16 -15 29 q-15 13 -32 14 q-16 -1 -26 -18 q-11 -17 -17 -34 q-20 0 -39 -1 q-20 -1 -40 -3 q32 72 65 142 q77 13 156 13 q30 1 73 -7 q43 -8 60 -37 q3 -5 4 -9 q0 -3 0 -7 q0 -6 0 -10 q-1 -4 -1 -7 q0 -8 4 -11 q4 -3 5 -3 q1 0 2 2 q1 1 2 1 q1 0 2 -2 q1 -2 2 -2 q5 1 9 5 q5 3 9 4 q1 2 2 3 q1 1 2 1 q14 14 22 31 q8 16 8 33 q-1 31 -25 49 q-23 18 -52 27 l0 0 ZM99 58 q0 57 33 164 q-24 -105 -33 -164 l0 0 ZM165 342 q-52 12 -104 21 q28 27 67 47 q39 20 79 33 q-11 -25 -21 -50 q-11 -25 -21 -51 l0 0 ZM230 495 q-22 -8 -80 -34 q-57 -26 -63 -36 q6 12 56 37 q51 25 55 26 q8 3 15 6 q7 2 14 4 l5 2 l-2 -5 ZM240 516 q-32 -8 -78 -28 q-45 -20 -95 -51 q5 4 26 17 q21 12 30 17 q37 20 63 32 q26 12 44 15 l12 3 l-2 -5 ZM679 473 q-3 36 -59 60 q-57 24 -144 25 q14 1 27 1 q85 -1 130 -25 q46 -24 46 -61 l0 0 Z" /><glyph glyph-name="" unicode="g" d="M472 520 q-7 8 -17 13 q-9 6 -20 6 q-7 0 -12 -3 q-5 -3 -14 -9 q-11 20 -36 31 q-25 10 -52 10 q-100 -10 -206 -150 q-106 -140 -115 -291 q1 -79 36 -123 q35 -45 87 -46 q33 0 69 21 q36 20 71 65 q-8 -19 -13 -47 q-6 -27 -6 -44 q3 -20 39 -35 q36 -15 63 -16 q14 0 14 7 q-1 4 -6 17 q-6 13 -7 36 q2 54 19 124 q18 70 34 117 q5 -2 9 -3 q5 -1 9 -1 q8 0 11 6 q4 6 4 14 q0 29 -18 45 q-18 17 -55 17 q-63 1 -108 -20 q-45 -20 -47 -71 q0 -5 2 -8 q2 -3 7 -3 q1 0 3 0 q1 0 2 1 q19 9 42 15 q23 6 47 8 q-7 -18 -14 -40 q-7 -21 -17 -33 q-20 -22 -50 -48 q-31 -26 -63 -28 q-37 1 -54 26 q-16 24 -16 57 q8 108 91 232 q83 123 149 134 q17 -2 21 -18 q5 -17 5 -30 q-6 -18 -10 -36 q-4 -18 -4 -38 q1 -27 9 -38 q7 -11 9 -11 q3 -1 6 -5 q2 -4 10 -5 l5 5 l1 4 q7 18 35 66 q29 47 52 64 q7 4 11 10 q3 6 3 13 q0 10 -4 20 q-5 9 -11 16 l0 0 ZM375 163 q-41 -138 -41 -200 q0 -28 9 -40 q-16 8 -16 42 q0 60 48 198 l0 0 ZM188 -10 q10 7 21 18 q12 12 27 26 l32 30 l-2 -6 l-16 -16 q-22 -22 -42 -38 q-20 -17 -23 -18 q-1 0 1 2 q1 1 2 2 l0 0 ZM245 492 q-30 -8 -74 -69 q-43 -61 -59 -93 q18 44 53 95 q35 50 80 67 l0 0 ZM117 375 q45 96 152 168 q-96 -78 -152 -168 l0 0 Z" /><glyph glyph-name="" unicode="h" d="M623 564 q0 -9 -2 -17 q-1 -7 -2 -11 q0 -4 0 -4 q-5 8 -4 22 q1 13 -10 17 q-1 0 -2 2 q-2 1 -2 2 q-3 3 -8 4 q-5 1 -8 5 q0 -1 -2 -1 q-1 -1 -2 -1 q-2 0 -8 -3 q-6 -4 -7 -9 l-8 -22 q-25 -71 -46 -143 q-22 -72 -41 -144 q-20 -6 -41 -8 q-21 -3 -43 -3 q-15 0 -30 1 q12 43 20 92 q9 48 9 93 q1 56 -19 93 q-20 38 -70 39 q-46 -2 -93 -28 q-46 -27 -77 -53 q-43 -33 -83 -80 q-41 -46 -44 -91 q5 -37 40 -55 q35 -18 39 -16 q0 0 0 1 q1 1 2 1 q1 0 2 -1 q0 -1 1 -1 q4 0 6 3 q2 3 2 4 q0 7 -2 9 q-3 3 -3 11 q0 1 1 3 q1 2 3 13 q6 23 17 45 q11 22 24 42 q44 69 82 114 q38 45 68 47 q13 -1 18 -16 q5 -16 5 -37 q-1 -59 -12 -109 q-11 -51 -27 -101 l-3 -12 q-16 2 -33 4 q-16 2 -33 2 q-27 0 -39 -14 q-12 -14 -12 -40 q1 -45 9 -76 q8 -31 9 -60 q1 -16 -4 -48 q-5 -31 -22 -39 q-4 -1 -7 -4 q-4 -3 -4 -9 q2 -19 19 -26 q16 -8 27 -8 q67 10 110 103 q43 94 58 148 q17 -2 36 -4 q19 -2 38 -2 q21 0 41 3 q-6 -20 -14 -77 q-7 -58 -8 -103 q2 -60 31 -84 q29 -23 60 -22 q18 0 30 6 q12 5 12 13 q0 6 -5 9 q-4 3 -9 4 q-15 7 -20 30 q-5 24 -5 48 q4 146 44 295 q41 148 74 213 q-2 10 -8 21 q-5 12 -15 20 l0 0 ZM27 289 q-12 11 -12 29 q0 28 33 73 q-26 -46 -26 -78 q0 -13 5 -24 l0 0 ZM193 168 q-1 4 -2 9 q-1 6 -1 11 q0 13 7 18 q6 6 21 6 q8 0 15 -1 q8 -1 15 -3 q-10 -31 -20 -61 q-11 -30 -24 -59 q0 19 -3 39 q-3 19 -8 41 l0 0 ZM266 205 l5 0 q-13 -50 -30 -93 q-18 -43 -40 -79 q19 42 36 85 q16 43 29 87 l0 0 ZM283 175 q-16 -58 -28 -80 q-11 -23 -16 -26 q-11 -14 -11 -14 q20 28 33 62 q13 33 21 67 q2 10 4 15 q2 6 3 6 q0 -4 -1 -10 q-1 -7 -5 -20 l0 0 ZM284 256 l-4 0 q26 106 36 205 q-1 -45 -9 -96 q-8 -52 -23 -109 l0 0 ZM514 79 q5 136 69 325 q-52 -171 -69 -325 l0 0 Z" /><glyph glyph-name="" unicode="i" d="M333 560 q-8 4 -18 6 q-9 2 -19 2 q-46 -2 -93 -29 q-47 -27 -77 -52 q-41 -33 -82 -79 q-41 -47 -44 -92 q2 -24 27 -44 q24 -21 43 -27 q2 -1 3 -1 q2 0 3 0 q1 0 2 1 q1 0 1 0 q-1 0 0 1 q1 1 2 1 q2 0 3 -2 q3 0 6 3 q2 3 2 4 q0 2 -3 5 q-3 3 -3 9 q5 40 67 148 q62 107 127 121 q14 -1 19 -15 q5 -15 5 -37 q-1 -63 -14 -119 q-13 -57 -30 -113 q-13 -44 -28 -89 q-15 -45 -34 -87 q-7 -18 -25 -47 q-17 -30 -35 -37 q-4 -1 -8 -4 q-4 -4 -4 -10 q1 -15 17 -24 q15 -9 30 -9 q51 5 92 73 q41 68 61 133 l2 7 q15 43 35 123 q20 79 22 156 q0 44 -12 77 q-12 32 -40 47 l0 0 ZM27 288 q-7 6 -10 13 q-3 7 -3 16 q0 28 33 73 q-13 -23 -19 -42 q-6 -19 -6 -35 q0 -7 1 -13 q1 -7 4 -12 l0 0 ZM274 175 q-17 -62 -29 -83 q-12 -21 -15 -23 q-7 -9 -9 -12 q-2 -3 -3 -3 q2 9 15 30 q13 22 19 35 q8 20 17 52 q9 31 10 34 q1 0 1 -1 q0 -1 0 -2 q0 -6 -3 -15 q-2 -10 -3 -12 l0 0 ZM194 33 q29 63 51 128 q22 66 38 134 q-26 -159 -89 -262 l0 0 Z" /><glyph glyph-name="" unicode="j" d="M389 483 q-5 33 -25 58 q-20 25 -62 26 q-47 -2 -95 -29 q-47 -27 -78 -53 q-44 -34 -85 -81 q-41 -48 -44 -93 q2 -23 28 -44 q26 -22 52 -24 q5 0 6 0 q1 0 1 0 q3 1 6 3 q3 1 3 5 q0 1 -3 5 q-3 3 -3 9 q5 43 69 150 q64 106 127 119 q14 -1 19 -15 q5 -15 5 -37 q0 -37 -4 -57 q-4 -20 -7 -34 q-12 -54 -25 -107 q-14 -53 -30 -106 q-12 -42 -46 -123 q-35 -82 -79 -91 q-17 0 -26 12 q-10 11 -10 31 q2 50 30 95 q28 44 52 47 q7 -3 13 -8 q5 -5 11 -5 q0 0 1 1 q1 1 2 1 q2 3 4 10 q2 7 2 8 q-1 3 -1 4 q-4 21 -21 36 q-17 15 -39 16 q-58 -6 -91 -67 q-33 -62 -34 -111 q1 -51 31 -90 q30 -39 79 -41 q113 15 191 192 q77 176 80 336 q0 14 -1 28 q-1 13 -3 24 l0 0 ZM23 284 q-13 12 -13 30 q0 28 33 73 q-25 -46 -25 -78 q0 -7 1 -13 q1 -7 4 -12 l0 0 ZM283 175 q-26 -70 -38 -95 q-11 -25 -14 -23 q-1 0 -2 -2 q0 -3 -1 -3 q0 0 -1 2 q0 1 -1 1 q6 8 32 71 q26 62 30 78 q0 0 -1 -7 q-1 -8 -4 -22 l0 0 ZM291 295 q0 -23 -6 -47 q-6 -25 -13 -45 q-25 -98 -69 -170 q29 65 52 133 q23 68 37 140 l-2 -16 q0 1 1 3 q0 1 0 2 l0 0 Z" /><glyph glyph-name="" unicode="k" d="M677 -12 q-1 1 -2 1 q-2 1 -3 1 q-10 -1 -21 -8 q-11 -8 -26 -9 q-65 6 -133 73 q-69 66 -110 117 q-4 4 -6 7 q-3 4 -6 7 q114 39 211 122 q97 83 103 176 q0 27 -15 54 q-14 27 -37 29 q-7 0 -10 -5 q-3 -5 -3 -11 q0 -2 1 -4 q0 -2 0 -4 q-2 -17 -17 -43 q-16 -25 -26 -38 q-41 -57 -94 -109 q-53 -51 -121 -91 q11 43 19 90 q9 47 9 91 q1 56 -20 94 q-21 38 -71 39 q-46 -2 -94 -29 q-47 -27 -77 -52 q-43 -33 -84 -80 q-41 -47 -44 -93 q4 -33 35 -51 q32 -19 43 -19 q1 0 2 1 q0 1 1 1 q1 0 2 -1 q2 -1 2 -1 q1 0 1 1 q1 0 2 0 q0 0 3 2 q3 3 3 5 q0 2 -3 6 q-3 3 -3 10 q5 42 69 149 q65 106 128 119 q13 -1 18 -16 q5 -16 5 -37 q-1 -61 -12 -108 q-12 -46 -25 -96 q-15 13 -33 25 q-18 11 -34 12 q-28 -3 -34 -36 q-6 -32 -5 -57 l0 -4 q0 -31 3 -61 q2 -31 2 -65 q1 -30 -5 -65 q-5 -35 -25 -43 q-5 -2 -9 -5 q-3 -3 -3 -8 q1 -17 18 -26 q16 -9 30 -9 q48 5 86 64 q38 60 58 117 q14 -18 28 -36 q14 -18 29 -35 q36 -44 91 -97 q55 -52 108 -57 q34 2 68 28 q33 26 36 59 q0 2 -1 5 q0 2 -2 4 l0 0 ZM592 449 q-83 -124 -191 -186 q108 75 191 186 l0 0 ZM24 286 q-7 6 -10 13 q-3 7 -3 16 q0 28 33 73 q-13 -23 -19 -42 q-6 -19 -6 -35 q0 -7 1 -13 q1 -7 4 -12 l0 0 ZM209 240 q12 -1 24 -14 q11 -14 17 -21 q-8 -26 -16 -51 q-9 -26 -19 -50 q0 29 -4 58 q-3 29 -5 58 q0 3 0 10 q1 8 3 10 l0 0 ZM207 33 q17 37 32 75 q15 38 27 77 l5 -5 q-25 -84 -64 -147 l0 0 ZM274 129 q-12 -31 -19 -44 q-8 -13 -17 -26 l-4 -4 q2 7 21 43 q19 35 29 66 l2 -3 l-12 -32 ZM285 270 q17 65 25 114 q9 49 9 82 q0 20 -3 33 q3 -12 4 -25 q1 -14 1 -28 q0 -74 -36 -176 l0 0 ZM384 142 q34 -37 66 -68 q32 -32 63 -58 q-31 17 -63 48 q-32 32 -66 78 l0 0 Z" /><glyph glyph-name="" unicode="l" d="M589 -32 l-1 3 q-1 1 -1 4 q-3 2 -6 10 q-2 7 -6 8 q0 -1 -1 -1 q-1 -1 -2 -1 q0 0 0 3 q0 2 0 3 q-2 0 -3 1 q-1 0 -2 0 q-2 0 -5 -3 q-3 -3 -7 -5 q-17 -33 -51 -45 q-34 -12 -72 -11 q-63 1 -127 21 q-64 21 -115 55 q21 111 53 218 q32 107 78 210 q7 17 16 42 q8 25 9 50 q0 24 -14 39 q-13 14 -39 14 q-44 -1 -91 -26 q-46 -24 -83 -54 q-34 -25 -75 -71 q-40 -46 -44 -95 q1 -27 18 -44 q17 -16 44 -28 q7 0 11 -2 q3 -3 8 -3 q4 0 5 0 q1 0 1 0 q1 0 3 2 q2 2 5 6 q-5 5 -7 14 q-2 8 -2 17 q1 41 22 78 q21 36 47 68 q19 24 46 51 q28 27 58 42 q-51 -113 -87 -231 q-36 -118 -54 -239 q-11 11 -23 25 q-12 15 -17 16 q-8 -2 -12 -16 q-4 -14 -5 -22 q0 -6 -1 -12 q1 -23 19 -37 q17 -15 34 -28 q2 -21 6 -35 q4 -14 13 -27 q5 -7 18 -19 q12 -13 23 -14 q7 0 9 7 q2 7 2 16 q0 6 0 12 q-1 6 -1 11 q67 -44 143 -76 q76 -32 152 -34 q60 1 86 33 q27 31 26 79 q0 14 -1 21 l0 0 ZM30 296 q-16 19 -16 43 q0 13 5 28 q5 15 15 31 q-12 -28 -12 -57 q0 -24 8 -45 l0 0 ZM174 186 q-11 -42 -19 -78 q-8 -36 -10 -67 l-4 2 q0 19 7 47 q7 28 19 75 q5 18 7 26 q3 7 4 7 q0 -1 -1 -3 q0 -1 -1 -3 l-2 -6 ZM150 164 q-8 -31 -14 -59 q-6 -27 -8 -50 q-1 1 -2 3 q-1 2 -2 4 q10 60 35 153 q25 93 59 195 q-38 -141 -68 -246 l0 0 ZM259 -43 q77 -33 169 -39 q-9 0 -18 -1 q-44 0 -81 10 q-38 10 -70 30 l0 0 Z" /><glyph glyph-name="" unicode="m" d="M567 232 q12 46 25 86 q13 40 33 83 q1 2 1 4 q1 2 1 4 q-2 19 -23 39 q-22 19 -45 20 q-6 0 -9 -4 q-35 -42 -66 -86 q-30 -45 -60 -98 q19 53 34 96 q15 43 37 92 q1 2 2 5 q0 3 0 5 q-2 21 -23 38 q-21 18 -39 19 q-39 -11 -93 -104 q-54 -93 -82 -141 q-7 -16 -16 -31 q27 71 48 124 q20 52 47 98 q8 14 16 32 q8 19 9 26 q-1 7 -4 11 q-3 5 -3 5 q0 1 -9 -14 q-8 -14 -36 -52 l-12 -16 q28 40 38 57 q11 17 14 29 q-3 10 -31 16 q-28 7 -47 7 q-89 -8 -179 -91 q-89 -84 -96 -152 q5 -41 42 -57 q36 -15 41 -15 q0 2 2 2 q2 -2 3 -2 q2 0 4 2 q3 2 3 6 q-5 5 -7 13 q-2 7 -2 16 q3 53 57 126 q53 74 119 110 q-31 -48 -47 -94 q-17 -46 -35 -100 q-20 -56 -44 -147 q-25 -90 -27 -153 q0 -19 13 -49 q13 -29 38 -34 l8 3 q3 4 3 7 q42 95 91 201 q50 106 101 196 q-21 -53 -38 -107 q-17 -54 -18 -121 q-1 -31 11 -53 q11 -21 42 -25 l6 0 l3 6 q30 69 67 142 q37 73 76 123 q5 7 8 10 q2 4 3 4 q-39 -76 -61 -163 q-22 -88 -22 -166 q2 -63 29 -88 q28 -24 60 -23 q18 0 30 6 q12 5 12 13 q0 6 -5 9 q-4 3 -9 4 q-16 7 -21 29 q-5 22 -5 45 q1 52 11 109 q11 56 26 108 l0 0 ZM27 308 q-7 6 -10 14 q-3 8 -3 18 q0 29 23 74 q-16 -42 -16 -73 q0 -18 6 -33 l0 0 ZM126 88 q5 66 31 155 q26 89 73 201 q-78 -219 -104 -356 l0 0 ZM226 179 q8 25 71 143 q62 119 88 135 q-13 -5 -38 -48 q-25 -43 -38 -67 q-15 -27 -46 -91 q-31 -64 -37 -72 l0 0 ZM363 407 q-22 -31 -46 -76 q-24 -44 -49 -93 q17 61 60 124 q42 63 49 68 q1 0 -1 -4 q-2 -4 -13 -19 l0 0 ZM522 364 q-34 -42 -68 -102 q-33 -59 -74 -148 q-7 -16 -9 -16 q-1 0 6 14 q8 15 36 75 q33 71 70 129 q36 58 48 61 q-2 -2 -4 -5 q-1 -3 -5 -8 l0 0 ZM530 -43 q-8 10 -12 26 q-4 16 -4 38 q0 77 47 227 q-40 -154 -40 -234 q0 -37 9 -57 l0 0 Z" /><glyph glyph-name="" unicode="n" d="M458 258 q12 44 25 82 q12 38 32 81 q2 3 2 8 q-4 26 -30 42 q-27 17 -34 17 q-7 0 -13 -5 q-6 -5 -14 -16 q-1 -4 -6 -10 q-6 -7 -8 -9 q-51 -62 -96 -123 q-45 -61 -87 -131 q34 113 76 204 q42 92 57 117 q2 4 2 9 q1 4 1 8 q-1 10 -5 13 q-4 2 -5 2 q-1 -5 -25 -42 q-25 -37 -29 -40 q12 13 27 41 q14 27 24 45 q-1 2 -5 6 q-3 4 -17 4 q-3 0 -6 5 q-11 4 -23 6 q-13 3 -26 3 q-19 0 -42 -7 q-59 -22 -142 -92 q-83 -70 -91 -141 q2 -29 27 -51 q25 -23 52 -24 q1 0 3 2 q1 1 2 1 q2 0 3 -1 q3 0 5 2 q2 1 2 3 q-1 1 -5 10 q-4 9 -5 19 q6 62 68 136 q62 74 110 101 q-29 -46 -45 -89 q-15 -44 -32 -96 q-18 -55 -41 -141 q-22 -86 -24 -148 q0 -18 14 -49 q14 -31 38 -34 q1 0 3 1 q1 0 2 0 q3 3 4 6 q1 2 2 5 q28 63 65 135 q38 71 79 137 q-14 -23 -49 -68 q-35 -46 -36 -51 q5 10 47 70 q41 61 61 83 q12 20 25 37 q13 16 25 34 q-26 -80 -48 -162 q-23 -82 -24 -164 q2 -63 29 -87 q28 -24 60 -23 q18 0 30 5 q12 6 12 14 q0 5 -5 8 q-4 4 -9 5 q-16 7 -21 29 q-5 23 -5 45 q1 52 11 108 q11 56 26 108 l2 7 ZM36 294 q-22 14 -22 41 q0 34 36 88 q-13 -27 -20 -49 q-6 -22 -6 -41 q0 -11 3 -21 q4 -10 9 -18 l0 0 ZM142 113 q11 132 104 356 q-78 -218 -104 -356 l0 0 ZM375 341 q-29 -36 -74 -94 q-46 -57 -85 -121 q-5 -7 -8 -13 q-4 -6 -5 -6 q9 11 42 65 q34 54 48 76 q22 32 50 64 q28 32 37 34 l-5 -5 ZM418 -28 q-8 10 -12 26 q-4 16 -4 38 q0 78 47 228 q-40 -154 -40 -234 q0 -37 9 -58 l0 0 Z" /><glyph glyph-name="" unicode="o" d="M480 417 q-8 69 -63 115 q-55 46 -115 48 q-117 -5 -207 -89 q-90 -85 -95 -194 q0 -37 16 -69 q17 -31 53 -51 q-5 -18 -8 -38 q-3 -21 -3 -42 q1 -75 39 -116 q39 -41 102 -41 q87 6 146 90 q60 83 91 167 q20 52 32 107 q12 55 12 113 l0 0 ZM17 327 q18 108 144 198 q-54 -46 -90 -95 q-35 -50 -54 -103 l0 0 ZM66 355 q-3 -6 -6 -10 q-3 -5 -4 -5 q3 21 23 52 q20 30 26 36 q4 5 18 18 q13 13 20 15 q0 0 -4 -4 q-4 -4 -14 -17 q-15 -18 -32 -43 q-18 -25 -27 -42 l0 0 ZM167 -13 q-13 3 -20 18 q-7 14 -7 39 q0 23 7 54 q6 30 21 68 q3 0 6 0 q2 -1 5 -1 q24 0 43 3 q19 4 20 12 q-1 10 -9 20 q-9 10 -15 11 q-7 0 -16 -3 q-10 -4 -16 -4 q17 35 58 89 q41 54 68 60 q2 0 7 2 q4 1 5 7 q0 2 1 3 q-1 1 -3 2 q-2 0 -2 1 q0 2 2 3 q-5 1 -12 6 q-6 5 -6 6 q-2 1 -3 1 q-1 1 -2 1 l-3 1 q-8 4 -23 7 q-15 4 -33 4 q-48 -4 -85 -56 q-37 -51 -56 -97 q-13 15 -13 38 q6 72 86 148 q79 76 157 82 q33 0 52 -21 q18 -21 18 -65 q-6 -124 -82 -275 q-76 -151 -143 -165 q-4 0 -7 1 l0 0 ZM162 333 q40 54 85 54 q5 0 10 -1 q5 0 10 -1 q-28 0 -54 -13 q-27 -13 -51 -39 l0 0 ZM394 319 q-22 -94 -53 -161 q-31 -67 -71 -107 q37 49 68 116 q31 67 56 152 l0 0 ZM302 32 q20 39 65 121 q44 82 49 103 q-4 -18 -39 -95 q-36 -77 -61 -112 l-14 -17 ZM415 201 q-19 -50 -44 -93 q-24 -43 -26 -46 q0 1 -1 -1 q-2 -1 -2 -3 q26 54 50 99 q24 45 24 49 q-1 0 0 2 q1 1 1 2 l-2 -9 Z" /><glyph glyph-name="" unicode="p" d="M526 481 q-5 30 -21 58 q-17 28 -51 30 q-47 -4 -96 -61 q-48 -57 -85 -124 q14 47 26 83 q13 35 21 64 q0 2 1 5 q0 3 0 5 q-1 10 -5 14 q-5 4 -6 4 q0 2 -8 -19 q-8 -22 -31 -64 q1 4 12 27 q10 23 14 31 q4 11 6 18 q2 8 2 12 q-3 2 -8 3 q-6 2 -6 2 q-2 0 -4 0 q-3 -1 -5 -1 q-1 0 -10 3 q-10 3 -20 3 q-83 -9 -165 -105 q-82 -97 -88 -173 q2 -32 28 -51 q26 -19 56 -19 q6 0 10 2 q3 1 3 5 q-1 4 -8 16 q-7 11 -8 30 q3 65 56 151 q52 85 114 115 q-29 -60 -85 -225 q-55 -165 -61 -283 q0 -23 4 -39 q4 -16 14 -24 q16 -14 33 -25 q17 -11 27 -12 q8 0 8 9 q0 10 -1 20 q-1 11 -1 22 q0 38 6 82 q7 45 18 94 q91 22 179 73 q87 51 116 109 q10 24 15 50 q6 27 6 53 q0 8 0 16 q-1 8 -2 16 l0 0 ZM33 251 q-24 18 -25 48 q0 35 32 86 q-12 -26 -17 -48 q-6 -21 -6 -40 q0 -14 4 -26 q4 -11 12 -20 l0 0 ZM131 129 q16 126 79 270 q-48 -151 -79 -270 l0 0 ZM278 249 q96 53 148 123 q-27 -44 -64 -75 q-37 -31 -84 -48 l0 0 ZM422 396 q-29 -48 -76 -85 q-47 -36 -97 -64 q33 72 75 145 q42 74 88 120 q3 4 12 11 q8 6 15 7 q5 0 7 -7 q1 -6 1 -14 q0 -31 -5 -59 q-6 -27 -20 -54 l0 0 Z" /><glyph glyph-name="" unicode="q" d="M513 -17 q-1 1 -2 1 q-1 0 -2 0 q-8 -1 -22 -11 q-15 -11 -37 -12 q-46 1 -82 17 q-37 17 -65 35 q66 78 108 180 q43 103 44 207 q-2 72 -53 125 q-51 52 -124 55 q-110 -3 -184 -77 q-73 -74 -76 -186 q0 -33 8 -65 q9 -33 25 -62 q-7 -19 -10 -41 q-4 -21 -4 -44 q-1 -64 31 -111 q32 -48 108 -50 q17 0 34 3 q9 2 16 5 q39 -33 88 -57 q48 -24 99 -25 q39 2 71 32 q32 30 34 69 q0 4 -1 7 q-1 3 -4 5 l0 0 ZM401 228 q-17 -48 -42 -92 q-25 -44 -28 -46 l-4 -5 q20 36 46 88 q26 51 28 59 q0 0 1 2 q0 2 1 3 l-2 -9 ZM397 271 q4 11 4 12 q1 -3 1 -7 q-4 -35 -41 -102 q-37 -67 -60 -98 l-13 -17 q26 29 59 101 q33 71 50 111 l0 0 ZM263 75 q35 56 61 114 q26 58 43 119 q-17 -76 -43 -134 q-26 -59 -61 -99 l0 0 ZM28 308 q1 66 28 121 q26 55 79 100 q-90 -99 -107 -221 l0 0 ZM82 403 l-18 -51 q2 34 15 63 q14 28 36 52 l-33 -64 ZM145 -9 q-16 3 -23 16 q-7 14 -7 34 q0 13 3 29 q26 -37 58 -72 q-13 -8 -25 -8 q-3 0 -6 1 l0 0 ZM137 336 q39 55 90 55 q8 0 17 -1 q-59 -3 -107 -54 l0 0 ZM160 132 q-5 6 -9 12 q-4 7 -8 14 q30 73 72 133 q41 60 71 64 q3 0 8 2 q4 2 5 10 q0 1 -2 1 q-3 1 -3 2 q0 2 2 2 q0 3 -6 4 q-5 1 -10 6 q-1 0 -1 1 q-1 1 -3 2 l-3 2 l-3 1 q-9 4 -23 7 q-15 3 -31 3 q-37 -2 -63 -30 q-27 -27 -40 -53 q1 20 5 38 q3 18 9 33 q28 56 76 92 q49 36 97 37 q32 1 54 -19 q21 -20 22 -68 q-2 -80 -44 -186 q-41 -106 -95 -182 q-21 17 -40 35 q-20 18 -37 37 l0 0 ZM260 -61 q47 -26 87 -39 q40 -13 73 -13 q13 0 25 2 q-16 -8 -37 -8 q-29 0 -66 15 q-37 14 -82 43 l0 0 Z" /><glyph glyph-name="" unicode="r" d="M622 -50 q0 1 -1 2 q0 0 -1 0 q-1 0 -1 0 q-1 1 -1 2 q0 2 2 3 q-2 1 -3 2 q-1 1 -2 1 q-1 0 -3 -1 q-11 -1 -22 -6 q-10 -5 -22 -6 q-81 5 -159 79 q-79 73 -129 155 q94 23 169 84 q74 60 78 182 q2 28 -12 72 q-14 43 -61 48 q-47 -4 -96 -60 q-48 -57 -85 -124 q15 48 30 88 q16 40 17 66 q-1 12 -5 16 q-4 4 -5 4 q0 1 -10 -24 q-10 -26 -29 -59 q1 4 12 27 q10 24 14 31 q4 11 6 19 q2 8 2 10 q-1 2 -6 4 q-6 2 -7 2 q-1 0 -4 0 q-3 0 -6 -1 q-1 0 -11 3 q-9 3 -20 3 q-82 -9 -163 -105 q-82 -96 -88 -172 q2 -31 27 -50 q26 -19 57 -19 q6 0 10 2 q3 1 3 5 q-1 5 -8 16 q-7 11 -8 29 q3 65 56 150 q52 85 113 115 q-29 -59 -84 -223 q-55 -164 -61 -282 q0 -23 4 -39 q4 -17 14 -25 q16 -14 32 -25 q17 -10 27 -11 q4 0 6 2 q2 2 2 7 q0 9 -1 19 q-1 10 -1 20 q0 35 6 78 q5 43 16 90 q40 -96 109 -179 q70 -82 171 -114 q11 -3 21 -3 q33 1 62 21 q28 20 43 50 q1 2 2 4 q1 2 2 3 q2 2 3 5 q0 2 0 4 q0 2 0 3 q-1 1 -1 2 l0 0 ZM34 251 q-12 9 -18 21 q-7 11 -7 26 q0 35 32 86 q-24 -48 -24 -85 q0 -14 4 -27 q5 -12 13 -21 l0 0 ZM491 347 q-54 -90 -147 -123 q96 53 147 123 l0 0 ZM132 128 q17 128 78 270 q-24 -76 -43 -143 q-20 -67 -35 -127 l0 0 ZM245 281 q3 26 16 51 q13 25 25 48 q18 37 31 54 q13 18 27 30 l-4 -5 q-24 -31 -47 -70 q-23 -39 -43 -98 q-4 -7 -4 -9 q-1 -1 -1 -1 l0 0 ZM366 453 q16 24 36 49 q21 25 37 27 q5 -1 7 -8 q1 -8 1 -16 q-3 -96 -61 -156 q-58 -61 -137 -102 q25 51 53 102 q28 50 59 97 l5 7 ZM303 22 q106 -127 239 -144 q-134 2 -239 144 l0 0 Z" /><glyph glyph-name="" unicode="s" d="M528 547 q-11 14 -26 22 q-16 7 -33 7 q-112 0 -226 -42 q-115 -43 -181 -133 q-11 -15 -18 -33 q-7 -18 -7 -36 q3 -43 43 -76 q40 -33 79 -53 q38 -20 82 -45 q45 -24 49 -45 q-29 -56 -82 -78 q-53 -23 -118 -22 q-8 0 -18 2 q-9 2 -17 6 q8 4 26 9 q17 5 24 6 q58 12 115 18 q9 1 16 10 q7 9 7 19 q0 5 -3 8 q-3 3 -10 3 q-69 -2 -146 -20 q-77 -17 -84 -68 q5 -41 50 -62 q46 -20 78 -20 q85 2 161 52 q75 50 97 130 q1 2 1 6 q1 3 1 6 q-4 37 -42 69 q-39 33 -69 51 q-36 22 -76 49 q-41 27 -44 52 q1 4 4 7 q50 55 136 101 q85 46 157 52 q-10 -22 -26 -42 q-15 -21 -35 -34 q-4 2 -8 5 q-4 2 -8 2 q-9 -3 -31 -33 q-22 -31 -37 -51 q-8 -11 -8 -23 q0 -15 10 -26 q9 -11 22 -12 q6 0 12 4 q30 20 57 45 q28 25 53 51 q24 23 55 60 q30 38 33 65 q0 10 -4 19 q-5 10 -11 18 l0 0 ZM367 82 q-73 -135 -261 -147 q180 21 261 147 l0 0 ZM88 417 q105 112 321 148 q-204 -48 -321 -148 l0 0 Z" /><glyph glyph-name="" unicode="t" d="M728 627 q-6 -2 -9 -8 q-26 -35 -119 -45 q-94 -11 -165 -12 q-6 0 -12 0 q-5 -1 -10 -1 q-6 10 -20 23 q-13 13 -30 14 q-16 -1 -23 -14 q-7 -14 -11 -26 q-77 -2 -141 -5 q-64 -3 -141 -3 q-25 -1 -36 -20 q-11 -18 -11 -37 q0 -8 2 -15 q3 -6 7 -8 q31 -5 91 -58 q61 -53 118 -116 q-1 -2 -2 -6 q-1 -3 -2 -6 q-17 -45 -41 -125 q-25 -80 -27 -148 q1 -46 20 -65 q19 -20 48 -19 q21 0 41 13 l5 4 l-5 4 q-11 8 -16 23 q-5 16 -5 36 q3 74 35 163 q31 89 49 128 q36 87 77 172 q16 -1 38 -1 q21 -1 47 -1 q98 -2 184 14 q85 17 91 82 q-1 25 -9 44 q-8 18 -18 19 l0 0 ZM230 544 q-55 -9 -108 -10 q-39 0 -76 6 q27 -2 56 -2 q60 0 128 6 l0 0 ZM105 480 q53 0 94 -1 q40 -1 93 -4 l-2 -3 q-30 -70 -59 -142 q-30 36 -66 82 q-37 46 -60 68 l0 0 ZM288 313 q-7 -18 -30 -89 q-24 -71 -31 -81 q1 5 11 39 q9 34 16 56 q8 25 15 43 q8 18 15 32 l2 5 l2 -5 ZM225 61 q23 177 131 357 q-92 -180 -131 -357 l0 0 ZM720 515 q20 19 20 55 q0 14 -3 31 q4 -12 6 -22 q2 -10 2 -19 q0 -31 -25 -45 l0 0 Z" /><glyph glyph-name="" unicode="u" d="M474 256 q13 49 30 99 q17 49 39 95 q2 5 2 9 q-2 19 -23 37 q-22 17 -44 18 q-8 0 -14 -4 q-6 -3 -8 -11 q-27 -73 -51 -148 q-24 -74 -44 -158 q-30 -43 -70 -79 q-41 -37 -74 -39 q-7 0 -9 6 q-2 5 -2 13 q4 106 43 224 q40 118 70 212 q0 4 1 6 q0 2 0 5 q0 12 -3 15 q-4 3 -7 3 q-1 -1 -10 -24 q-10 -24 -29 -59 q4 5 13 27 q10 23 12 30 q3 10 6 18 q2 7 2 11 q0 0 -2 3 q-2 3 -8 3 l-12 0 q-3 0 -11 3 q-8 3 -17 3 q-82 -9 -165 -105 q-83 -97 -89 -174 q2 -31 27 -50 q26 -19 57 -19 q6 0 10 2 q3 1 3 5 q-1 5 -8 16 q-7 11 -8 29 q3 65 56 150 q52 85 113 115 q-52 -103 -95 -234 q-44 -130 -47 -238 q-1 -42 14 -76 q14 -34 55 -36 q45 2 88 40 q43 39 78 88 q-3 -27 -3 -51 q2 -74 31 -103 q30 -29 68 -28 q19 0 32 6 q13 6 13 15 q0 6 -5 9 q-5 4 -10 5 q-20 9 -26 37 q-6 28 -5 53 q0 56 11 114 q10 58 25 112 l0 0 ZM34 251 q-12 9 -18 21 q-7 11 -7 26 q0 35 32 86 q-24 -48 -24 -85 q0 -14 4 -27 q5 -12 13 -21 l0 0 ZM139 192 q22 126 91 265 q-28 -74 -50 -140 q-23 -66 -41 -125 l0 0 ZM169 214 q-3 -14 -3 -14 q7 54 22 100 q16 47 37 91 q-2 -14 -20 -62 q-19 -48 -36 -115 l0 0 ZM426 -13 q-3 15 -4 31 q-1 16 -1 33 q0 65 19 145 q19 80 58 175 q-72 -205 -73 -360 q1 -12 1 -24 l0 0 Z" /><glyph glyph-name="" unicode="v" d="M583 562 q-8 14 -21 20 q-14 6 -29 6 q-26 0 -55 -12 q-29 -12 -32 -30 q0 -7 6 -9 q5 -2 11 -3 q14 -2 17 -22 q4 -21 3 -36 q-2 -107 -37 -230 q-36 -124 -87 -214 q10 84 23 168 q14 83 15 166 q2 53 -19 106 q-21 54 -83 58 q-51 -2 -99 -36 q-48 -35 -85 -76 q-39 -41 -74 -92 q-35 -52 -37 -101 q2 -29 32 -51 q29 -22 62 -23 q7 0 11 3 q5 3 5 10 q-1 7 -4 13 q-4 5 -5 16 q1 40 18 82 q17 41 37 78 q20 42 51 88 q31 47 64 51 q22 -4 28 -46 q6 -41 5 -66 l0 -7 q-1 -83 -14 -165 q-13 -82 -23 -164 q-2 -15 -2 -32 q0 -14 3 -26 q12 -27 32 -44 q20 -17 50 -17 l5 4 q60 89 112 185 q52 95 91 198 q13 35 26 84 q12 49 13 96 q0 20 -3 37 q-4 18 -11 33 l0 0 ZM33 187 q-21 14 -21 42 q0 32 27 83 q-21 -48 -21 -81 q0 -27 15 -44 l0 0 ZM276 29 q22 156 34 264 q-2 -75 -10 -142 q-9 -67 -24 -122 l0 0 ZM511 291 q0 1 3 14 q16 57 26 117 q11 59 13 64 q-3 -49 -12 -97 q-10 -49 -30 -98 l0 0 ZM509 232 q35 87 53 162 q17 75 17 139 q1 -9 1 -18 q1 -10 1 -19 q0 -60 -18 -126 q-19 -65 -54 -138 l0 0 Z" /><glyph glyph-name="" unicode="w" d="M757 551 q-8 14 -21 20 q-13 6 -28 6 q-25 0 -55 -12 q-30 -12 -33 -29 q1 -9 9 -11 q8 -2 12 -2 q12 -6 15 -22 q3 -17 3 -31 q-1 -91 -32 -192 q-31 -102 -81 -193 q8 59 16 119 q8 61 17 121 q1 18 1 34 q1 39 -14 69 q-15 30 -59 37 l-6 0 l-2 -4 q-46 -99 -94 -218 q-48 -120 -71 -131 q2 2 3 5 q0 2 6 11 q31 48 61 110 q30 61 59 149 q-31 -66 -70 -151 q-38 -84 -52 -92 q2 3 17 35 q16 31 24 58 q0 1 0 3 q0 1 1 2 q11 38 23 89 q11 50 12 100 q1 57 -22 97 q-24 40 -77 42 q-50 -2 -100 -30 q-51 -28 -83 -56 q-46 -36 -89 -86 q-44 -50 -47 -98 q2 -25 29 -50 q27 -26 58 -28 q6 0 10 4 q4 3 4 9 q0 5 -2 10 q-3 5 -3 11 q5 44 73 155 q68 111 133 125 q15 -1 20 -18 q5 -17 5 -41 q-1 -82 -21 -161 q-19 -78 -45 -153 l-5 -15 q-11 -31 -25 -70 q-15 -39 -16 -77 q1 -37 25 -64 q23 -28 60 -29 q9 0 17 3 q7 3 7 11 q0 4 -3 7 q-4 2 -7 6 q33 93 77 182 q43 88 89 176 q-10 -53 -20 -107 q-10 -55 -11 -109 q0 -21 4 -37 q11 -25 29 -43 q18 -18 45 -19 q5 1 9 1 l6 3 q55 83 107 171 q52 87 89 180 q13 32 23 70 q10 38 11 77 q0 19 -3 37 q-4 18 -12 34 l0 0 ZM24 272 q-12 12 -12 29 q0 34 42 91 q-36 -58 -36 -94 q0 -15 6 -26 l0 0 ZM302 269 q36 125 36 209 q0 17 -1 32 q3 -25 3 -51 q0 -88 -38 -190 l0 0 ZM668 250 q0 1 1 4 q2 3 4 10 q21 58 33 95 q11 37 19 74 q2 7 3 8 q-8 -48 -21 -92 q-13 -44 -35 -91 q-2 -4 -3 -5 q-1 -2 -1 -3 l0 0 ZM657 187 q34 73 62 146 q28 72 43 151 q-4 -123 -105 -297 l0 0 Z" /><glyph glyph-name="" unicode="x" d="M528 565 q-47 -7 -95 -22 q44 18 86 28 q-21 10 -45 10 q-79 -6 -158 -79 q-80 -73 -128 -136 q-2 29 -5 56 q-2 27 -2 65 q0 19 4 37 q3 17 3 28 q-1 16 -20 29 q-20 12 -42 13 q-32 -3 -38 -40 q-7 -38 -6 -75 l0 -6 q0 -56 7 -111 q6 -55 17 -108 l-9 -14 q-27 -42 -53 -89 q-25 -47 -41 -97 q-3 -9 -3 -17 q0 -16 12 -28 q12 -12 34 -13 q3 0 6 1 q2 0 5 1 l4 3 q12 37 32 74 q19 37 41 71 q9 -29 20 -56 q10 -28 23 -54 q16 -34 47 -70 q30 -36 72 -39 q33 1 55 24 q22 24 23 54 q0 5 -2 9 q-2 4 -6 4 q-8 0 -16 -4 q-8 -3 -16 -4 q-52 8 -84 92 q-32 84 -43 146 q58 72 137 148 q79 76 165 113 l6 2 q16 6 27 12 q11 6 11 14 q0 4 -5 11 q-5 6 -15 14 l-5 3 ZM299 -61 q-88 4 -154 211 q33 -91 72 -144 q38 -53 82 -67 l0 0 ZM233 10 q8 -12 8 -12 q-33 40 -56 84 q-23 44 -40 91 q4 -5 31 -59 q28 -55 57 -104 l0 0 ZM285 352 q86 119 195 153 q-106 -52 -195 -153 l0 0 Z" /><glyph glyph-name="" unicode="y" d="M525 483 q-8 6 -18 11 q-10 5 -20 5 q-25 -4 -41 -49 q-16 -44 -26 -80 q-22 -73 -42 -150 q-1 -1 -1 -3 q-30 -48 -75 -91 q-45 -44 -83 -50 q-5 0 -9 3 q-4 2 -4 14 q4 107 44 226 q40 120 69 213 q0 1 1 2 q0 1 0 2 q0 12 -4 17 q-3 4 -4 5 l-3 3 q-3 -6 -20 -45 q-18 -38 -18 -39 q20 38 27 58 q7 21 7 27 q0 2 -4 4 q-3 2 -6 3 q-3 0 -4 1 q-2 0 -3 0 q-3 0 -6 -1 q-3 0 -15 3 q-13 3 -25 3 q-81 -23 -158 -114 q-78 -91 -84 -166 q2 -31 27 -50 q26 -19 57 -19 q5 0 9 2 q4 1 4 5 q-1 5 -8 17 q-7 11 -8 29 q3 65 56 150 q52 84 113 114 q-52 -103 -95 -234 q-44 -130 -47 -238 q-1 -42 13 -76 q15 -34 55 -36 q46 2 89 41 q43 38 78 88 l-2 -9 q-8 -37 -16 -68 q-8 -31 -18 -54 q1 5 1 9 q0 8 -4 13 q-4 5 -12 5 q-23 -1 -51 -17 q-28 -16 -49 -32 l-5 -4 q-33 -23 -65 -57 q-32 -34 -34 -66 q2 -41 35 -68 q34 -28 74 -29 q13 0 24 4 q11 4 22 11 q93 67 139 175 q46 109 72 217 q20 80 42 161 q21 80 53 157 q1 2 1 4 q0 1 0 3 q-1 12 -9 23 q-9 11 -16 17 l0 0 ZM34 251 q-12 9 -18 21 q-7 11 -7 27 q0 34 32 85 q-24 -48 -24 -85 q0 -14 4 -27 q5 -12 13 -21 l0 0 ZM139 193 q11 62 34 129 q23 66 57 136 q-55 -148 -91 -265 l0 0 ZM143 -212 q4 32 52 78 q48 46 99 72 q6 5 10 11 l-2 -4 q-24 -47 -68 -100 q-44 -53 -88 -58 q-3 0 -3 1 l0 0 ZM161 -271 q5 -1 10 -2 q5 -1 11 -1 q54 0 132 77 q-70 -82 -123 -82 q-8 0 -15 2 q-8 2 -15 6 l0 0 ZM394 42 q12 31 22 74 q10 43 22 112 q-3 -54 -15 -102 q-13 -48 -31 -92 q0 1 0 3 q1 2 2 5 l0 0 ZM401 -18 q15 62 35 132 q19 69 48 161 q-30 -115 -49 -185 q-20 -69 -34 -108 l0 0 Z" /><glyph glyph-name="" unicode="z" d="M537 522 q-13 11 -31 22 q-19 11 -37 12 q-2 0 -3 0 q-2 -1 -4 -1 q-52 -14 -105 -25 q-53 -12 -101 -13 q-37 1 -70 15 q-33 15 -64 34 q-3 1 -4 1 q-8 -1 -10 -10 q-2 -9 -2 -15 q0 -55 30 -86 q30 -31 87 -31 q56 2 109 17 q54 15 109 25 q-72 -85 -141 -170 q-69 -84 -147 -161 q-15 5 -31 8 q-16 3 -32 3 q-48 -3 -69 -40 q-21 -38 -21 -80 q0 -23 9 -41 q9 -18 33 -19 q36 2 80 31 q44 28 74 53 q33 -29 64 -59 l11 -10 q36 -36 81 -72 q45 -35 87 -38 q37 2 75 27 q38 25 41 55 q0 7 -5 11 q-5 3 -11 3 q-8 0 -16 -3 q-8 -3 -13 -3 q-100 46 -158 78 q-58 32 -103 56 q87 77 165 163 q77 87 153 175 q4 4 6 10 q2 5 2 12 q-1 19 -13 37 q-12 18 -25 29 l0 0 ZM118 502 q20 -37 46 -50 q26 -14 62 -13 q33 0 77 6 q-51 -12 -85 -12 q-42 0 -65 18 q-24 17 -35 51 l0 0 ZM58 96 q8 6 17 9 q9 2 18 2 q12 0 24 -3 q-13 -14 -31 -26 q-18 -12 -33 -13 q-4 0 -6 2 q-3 2 -3 6 q0 6 5 13 q5 7 9 10 l0 0 ZM11 1 q7 -9 16 -13 q9 -4 21 -4 q36 0 98 38 q-32 -23 -57 -35 q-26 -11 -43 -11 q-26 0 -35 25 l0 0 ZM466 -117 q-3 -1 -6 -1 q-4 0 -7 0 q-71 0 -211 141 q147 -135 224 -140 l0 0 ZM191 155 q135 148 226 265 q-120 -166 -226 -265 l0 0 Z" /><glyph glyph-name="" unicode="a" d="M347 198 q-24 -27 -49 -75 q-26 -48 -58 -79 q1 38 14 82 q13 43 33 83 q1 2 1 5 q1 3 1 5 q-1 16 -16 29 q-14 13 -29 19 q-7 40 -31 60 q-25 20 -53 20 q-62 -6 -110 -88 q-47 -83 -50 -175 q0 -25 15 -57 q16 -32 54 -35 q27 4 52 24 q25 19 43 41 q4 -23 15 -39 q11 -17 31 -23 l4 -2 q9 -3 18 -3 q6 0 13 2 q7 2 14 7 q36 36 79 118 q42 82 46 97 q0 5 -5 5 q-5 0 -13 -6 q-9 -6 -19 -15 l0 0 ZM128 290 q-20 -26 -35 -43 q-16 -17 -14 -18 q-1 2 8 16 q10 14 11 17 q9 11 20 21 q12 10 14 11 q0 0 -4 -4 l0 0 ZM67 234 q-3 -5 -6 -13 q-4 -9 -5 -11 q4 31 23 57 q20 26 38 41 q-5 -3 -23 -30 q-18 -28 -27 -44 l0 0 ZM172 182 q-2 -3 -2 -6 q0 -5 4 -10 q4 -4 7 -6 q-5 -18 -48 -64 q-43 -46 -58 -52 q-3 1 -3 7 q4 40 43 131 q39 90 66 101 q4 0 5 -3 q1 -3 1 -11 q0 -19 -4 -45 q-5 -27 -11 -42 l0 0 ZM230 154 q-5 -22 -12 -46 q-7 -23 -11 -37 q1 11 15 68 q14 57 16 65 q2 7 4 10 q3 3 4 3 q0 0 -1 -3 q0 -7 -4 -23 q-5 -17 -11 -37 l0 0 Z" /><glyph glyph-name="" unicode="b" d="M262 274 q-2 16 -17 39 q-15 23 -40 25 q-22 -1 -44 -15 q-22 -15 -42 -37 l67 165 q2 5 2 12 q-1 21 -13 43 q-12 21 -26 23 q-27 -13 -85 -161 q-57 -149 -64 -284 q0 -33 8 -56 q9 -23 28 -30 q10 -15 19 -15 q4 0 6 3 q3 3 3 9 q0 6 -2 17 q-3 10 -3 22 q12 -14 28 -22 q15 -9 33 -9 q8 0 16 2 q8 2 16 6 q34 21 71 94 q37 73 40 149 q0 5 0 10 q0 5 -1 10 l0 0 ZM149 281 q-22 -21 -40 -42 q-18 -21 -27 -36 q1 12 23 37 q21 25 44 41 l0 0 ZM30 217 q9 44 27 98 q18 54 46 118 q-21 -64 -39 -118 q-18 -54 -34 -98 l0 0 ZM95 58 q-16 9 -23 22 q-7 13 -7 28 q7 62 62 123 q55 60 68 63 q3 -1 3 -8 q-4 -41 -42 -129 q-39 -89 -61 -99 l0 0 ZM226 170 q9 25 13 48 q4 24 4 47 q0 6 0 13 q0 6 -1 12 q7 -18 7 -38 q0 -37 -23 -82 l0 0 Z" /><glyph glyph-name="" unicode="c" d="M272 197 q-19 -24 -55 -81 q-36 -58 -90 -65 q-22 0 -33 15 q-10 14 -10 37 q0 22 9 49 q12 36 40 79 q28 44 47 48 q8 0 8 -12 q0 -10 -7 -28 q-7 -17 -18 -37 q-3 -4 -3 -9 q0 -5 3 -8 q4 -3 9 -3 q30 5 51 46 q22 41 23 60 q-1 23 -21 39 q-20 16 -44 17 q-71 -7 -125 -90 q-53 -84 -56 -160 q1 -38 31 -68 q30 -29 82 -31 q59 3 100 55 q40 51 70 112 l12 22 q5 11 9 18 q3 8 3 12 q0 4 -3 4 q-7 0 -32 -21 l0 0 ZM50 194 q-2 -6 -3 -8 q-2 -3 -2 -3 q0 18 17 48 q16 29 46 56 q8 7 9 7 q-5 -3 -28 -34 q-23 -30 -32 -50 q-1 -2 -3 -6 q-2 -5 -4 -10 l0 0 ZM73 206 q3 18 21 36 q17 18 20 19 q-11 -11 -23 -29 q-13 -19 -18 -26 l0 0 Z" /><glyph glyph-name="" unicode="d" d="M366 198 q-26 -30 -57 -82 q-31 -52 -73 -76 q-2 11 -2 23 q4 80 44 189 q39 110 73 186 l6 15 q6 14 5 27 q-1 26 -13 44 q-13 18 -28 19 q-11 -1 -41 -61 q-30 -61 -66 -169 q-12 14 -27 22 q-16 7 -33 7 q-56 -5 -104 -83 q-47 -79 -50 -174 q-2 -5 8 -44 q9 -38 51 -44 q29 1 59 25 q29 24 53 56 q3 -41 20 -61 q17 -21 42 -21 q43 5 83 64 q40 59 69 115 l10 19 q8 15 8 21 q0 5 -5 5 q-5 0 -13 -6 q-9 -6 -19 -16 l0 0 ZM60 236 q35 73 84 88 q-48 -31 -84 -88 l0 0 ZM150 94 q-9 -10 -19 -20 q-10 -10 -11 -11 q1 2 22 31 q21 28 37 54 q-11 -28 -29 -54 l0 0 ZM167 182 q-2 -3 -2 -6 q0 -5 4 -10 q4 -4 7 -6 l0 -5 q-31 -48 -66 -83 q-35 -36 -42 -38 q-3 0 -3 8 q4 44 44 137 q40 93 67 104 q4 0 5 -3 q1 -3 1 -11 q0 -19 -4 -45 q-5 -27 -11 -42 l0 0 ZM222 96 q2 90 62 218 q-21 -53 -36 -107 q-16 -55 -26 -111 l0 0 Z" /><glyph glyph-name="" unicode="e" d="M274 198 q-21 -25 -59 -82 q-38 -58 -87 -65 q-27 1 -37 15 q-10 14 -10 34 q0 7 1 14 q1 7 3 14 q7 -3 16 -3 q49 3 96 53 q47 49 51 103 q-1 26 -20 44 q-19 18 -47 19 q-68 -7 -123 -92 q-55 -84 -58 -164 q1 -37 32 -64 q30 -28 80 -29 q61 3 102 55 q41 52 72 114 l12 21 q11 20 11 29 q0 4 -3 4 q-4 0 -11 -5 q-8 -5 -21 -15 l0 0 ZM129 152 q44 33 63 91 q-7 -33 -23 -56 q-15 -23 -40 -35 l0 0 ZM185 276 q1 -1 1 -3 q1 -2 1 -5 q-1 -26 -26 -69 q-26 -43 -62 -48 q-2 0 -3 0 q-2 0 -4 1 q6 18 35 70 q29 51 52 57 q3 0 6 -3 l0 0 ZM52 213 q-5 -6 -8 -16 q-4 -10 -5 -11 q0 14 18 45 q17 32 54 66 q-3 -7 -25 -37 q-23 -29 -34 -47 l0 0 ZM81 216 q3 19 28 46 q25 28 30 31 q-3 -6 -27 -39 q-25 -34 -31 -38 l0 0 Z" /><glyph glyph-name="" unicode="f" d="M231 199 q-23 -26 -37 -49 q-14 -23 -35 -39 q-7 19 -18 39 q-12 20 -28 37 q12 37 31 80 q18 43 36 79 q3 6 3 13 q-2 24 -23 45 q-21 22 -37 23 q-6 0 -8 -5 q-37 -83 -89 -245 q-51 -162 -56 -287 q0 -42 12 -71 q12 -28 40 -29 q47 3 96 74 q50 71 54 169 q0 23 -4 45 q30 18 51 47 q22 30 41 71 q7 15 7 21 q0 2 -1 4 q-1 1 -3 1 q-5 0 -14 -7 q-8 -7 -18 -16 l0 0 ZM121 97 q-9 0 -16 5 q-8 5 -13 15 l10 37 q15 -28 19 -57 l0 0 ZM123 384 q-23 -52 -42 -105 q-18 -54 -30 -109 q2 44 21 98 q18 54 51 116 l0 0 ZM40 -116 q-3 6 -3 16 q0 20 12 62 q11 42 31 113 q8 -6 17 -9 q9 -4 19 -4 q2 0 4 1 q2 0 4 0 q-3 -76 -31 -128 q-28 -53 -47 -55 q-4 0 -6 4 l0 0 ZM136 -70 q-7 -26 -25 -52 q-17 -26 -47 -49 q2 -1 25 30 q23 30 36 54 q3 8 7 17 q3 9 4 10 q0 0 0 -2 q0 -1 0 -8 l0 0 Z" /><glyph glyph-name="" unicode="g" d="M236 239 q0 4 1 8 q0 4 0 8 q-2 43 -27 65 q-26 22 -54 22 q-56 -5 -104 -83 q-47 -79 -50 -174 q-2 -5 8 -44 q9 -38 51 -44 q18 0 37 12 q19 11 37 27 q-29 -71 -67 -118 q-37 -47 -88 -49 q-7 1 -12 8 q-6 7 -13 8 q-5 0 -8 -4 q-3 -3 -3 -11 q0 -22 20 -48 q20 -25 56 -27 q111 10 158 141 q47 131 74 258 q1 4 1 10 q0 11 -5 20 q-5 10 -12 15 l0 0 ZM50 207 q-3 -7 -6 -17 q-2 -10 -3 -12 l0 5 q0 20 15 52 q15 31 43 61 q-6 -4 -23 -37 q-18 -33 -26 -52 l0 0 ZM158 -63 q-6 -23 -21 -46 q-15 -24 -41 -48 q-4 -4 -6 -6 q-2 -2 -3 -2 q3 6 26 35 q22 29 34 49 q3 4 5 11 q3 7 4 12 q1 1 1 -1 q1 -2 1 -4 l0 0 ZM180 159 q-32 -50 -67 -87 q-36 -36 -44 -38 q-3 0 -3 8 q4 43 44 137 q41 93 68 104 q3 0 5 -2 q1 -3 1 -12 q-1 -21 -8 -50 q-8 -30 -9 -42 q0 -6 5 -12 q5 -5 8 -6 l0 0 Z" /><glyph glyph-name="" unicode="h" d="M326 198 q-24 -27 -52 -74 q-27 -47 -63 -76 q6 59 39 136 q32 76 37 102 q-1 20 -17 34 q-16 14 -38 15 q-35 -2 -75 -47 q-40 -46 -75 -105 q19 61 46 129 q28 68 58 141 q2 5 2 12 q-1 21 -13 43 q-12 22 -26 24 q-27 -13 -85 -161 q-57 -149 -64 -284 q0 -34 8 -57 q9 -23 28 -30 q4 -7 9 -10 q5 -4 9 -4 q10 0 10 12 q0 9 -3 25 q-3 16 -3 32 q38 79 79 140 q41 60 54 71 q-1 -1 -1 -2 q0 -1 -1 -3 q-11 -23 -30 -78 q-19 -55 -21 -108 q0 -21 6 -38 l1 -4 q7 -16 20 -25 q13 -10 35 -10 q9 0 18 2 q34 18 87 104 q53 85 58 110 q0 5 -5 5 q-5 0 -14 -6 q-9 -6 -18 -15 l0 0 ZM18 162 q9 56 30 124 q21 68 50 141 q-24 -81 -45 -146 q-21 -65 -35 -119 l0 0 ZM179 194 q-7 -21 -15 -53 q-8 -31 -9 -52 q0 -2 1 -3 q0 -2 0 -4 q0 -12 -1 -12 q-1 1 -2 9 q-2 8 -2 18 q1 20 11 59 q10 39 19 43 q0 0 -2 -5 l0 0 Z" /><glyph glyph-name="" unicode="i" d="M190 198 q-26 -29 -55 -79 q-29 -49 -67 -76 q1 45 23 107 q22 62 58 127 q3 5 4 10 q1 5 1 9 q-1 21 -20 34 q-19 13 -38 13 q-6 0 -11 -2 q-4 -2 -6 -6 q-32 -71 -55 -139 q-23 -67 -24 -118 q0 -33 15 -57 q15 -24 48 -25 q50 12 105 103 q54 90 59 115 q0 5 -5 5 q-5 0 -14 -6 q-8 -6 -18 -15 l0 0 ZM61 82 q-1 -5 -1 -9 q-1 -4 -2 -4 q-1 0 -1 10 q3 33 22 89 q20 56 33 62 q-4 -5 -25 -62 q-21 -57 -26 -86 l0 0 ZM168 364 q18 28 31 46 q12 19 27 36 q1 2 1 3 q-2 12 -24 26 q-22 14 -38 15 q-15 -4 -31 -42 q-15 -37 -16 -54 q1 -13 16 -22 q14 -10 26 -11 q6 0 8 3 l0 0 ZM134 413 q1 7 14 30 q12 24 17 27 q-1 -6 -10 -26 q-9 -19 -13 -22 q0 0 -2 -7 q-2 -6 -7 -7 q0 2 1 3 q0 1 0 2 l0 0 Z" /><glyph glyph-name="" unicode="j" d="M127 492 q-14 -16 -27 -46 q-13 -31 -14 -48 q1 -13 16 -22 q15 -10 27 -11 q5 0 7 3 l5 8 q16 24 28 41 q12 17 25 33 q1 2 1 3 q-2 12 -24 26 q-22 14 -38 15 q-4 0 -6 -2 l0 0 ZM132 470 q-8 -16 -17 -36 q-10 -20 -14 -22 q1 3 13 31 q12 28 20 31 q0 0 -1 -1 q0 -1 -1 -3 l0 0 ZM56 333 q-30 -174 -92 -313 q-63 -139 -149 -147 q-5 8 -10 12 q-5 4 -10 4 q-5 0 -8 -4 q-3 -3 -3 -11 q0 -22 20 -48 q20 -25 56 -27 q101 10 159 152 q59 142 93 290 l15 56 q0 2 1 3 q0 1 0 2 q-2 17 -20 29 q-19 12 -36 12 q-7 0 -11 -2 q-4 -3 -5 -8 l0 0 ZM-1 -59 q-7 -26 -25 -52 q-17 -25 -46 -50 q5 3 27 34 q22 31 33 50 q3 6 7 16 q4 10 5 11 q0 0 0 -3 q0 -3 -1 -6 l0 0 Z" /><glyph glyph-name="" unicode="k" d="M260 -26 q-48 2 -85 52 q-38 50 -59 125 q68 12 110 57 q43 45 44 84 q0 25 -14 42 q-14 16 -38 17 q-25 -2 -56 -30 q-31 -29 -58 -64 q18 48 39 99 q21 52 44 105 q2 5 2 11 q-1 21 -13 44 q-13 22 -27 24 q-27 -13 -85 -161 q-57 -149 -64 -284 q0 -33 8 -56 q9 -23 28 -30 q4 -7 9 -11 q5 -4 10 -4 q4 0 6 3 q3 3 3 10 q0 9 -3 24 q-3 14 -3 29 q0 17 3 37 q2 19 7 40 q12 -68 43 -143 q31 -75 85 -81 q34 3 59 24 q25 21 26 25 q0 5 -6 9 q-5 3 -15 3 l0 0 ZM19 162 q7 57 28 125 q20 67 51 140 q-28 -79 -48 -144 q-20 -66 -31 -121 l0 0 ZM211 296 q-3 -19 -39 -58 q-36 -39 -69 -46 q23 37 57 70 q33 34 47 36 q3 0 4 -2 l0 0 ZM183 -4 q-12 9 -29 31 q-17 23 -19 47 q1 -3 16 -28 q15 -26 23 -38 q4 -4 9 -9 q5 -6 6 -7 q-1 0 -6 4 l0 0 Z" /><glyph glyph-name="" unicode="l" d="M186 198 q-26 -30 -54 -82 q-28 -52 -67 -76 q-2 10 -2 22 q4 84 48 201 q43 117 75 189 q3 7 4 14 q1 7 1 14 q-1 25 -13 43 q-12 18 -27 19 q-4 0 -7 -1 q-22 -19 -79 -169 q-58 -150 -65 -279 q0 -44 14 -71 q15 -26 49 -27 q49 7 88 77 q38 70 64 122 q8 15 8 21 q0 5 -5 5 q-5 0 -13 -6 q-9 -6 -19 -16 l0 0 ZM23 162 q8 57 28 125 q20 67 51 140 q-28 -79 -48 -144 q-20 -66 -31 -121 l0 0 Z" /><glyph glyph-name="" unicode="m" d="M514 200 q-26 -28 -56 -77 q-30 -50 -69 -78 q7 60 45 142 q38 81 43 108 q-1 20 -17 35 q-16 15 -38 16 q-34 -2 -74 -45 q-40 -43 -76 -101 q12 28 24 54 q12 27 13 42 q-1 20 -16 34 q-16 15 -38 16 q-27 -1 -60 -31 q-32 -30 -63 -75 q8 14 20 33 q12 19 13 28 q0 6 -4 13 q-4 6 -10 13 q-15 -28 -30 -60 q-15 -32 -19 -52 q-1 3 -1 7 q1 20 17 51 q15 30 31 56 q-10 10 -23 17 q-13 7 -24 7 q-11 0 -16 -9 q-49 -98 -69 -163 q-19 -66 -18 -104 q1 -41 14 -58 q13 -17 26 -16 q6 0 10 3 q3 2 4 7 q37 92 90 171 q52 78 69 93 q-28 -70 -39 -119 q-11 -49 -11 -80 q1 -43 15 -59 q13 -17 27 -16 q6 0 11 3 q4 3 4 7 q39 92 91 171 q53 78 70 93 q-1 -1 -1 -2 q0 -1 -1 -3 q-13 -26 -36 -86 q-22 -61 -25 -117 q1 -39 17 -57 q16 -18 34 -18 q30 2 60 31 q29 28 45 53 q30 44 54 86 q24 42 25 53 q0 2 -1 4 q-1 1 -3 1 q-5 0 -15 -6 q-9 -6 -19 -16 l0 0 ZM213 214 q-8 -20 -18 -67 q-9 -47 -10 -82 q-4 9 -4 24 q2 49 17 89 q14 40 17 42 q1 0 -2 -6 l0 0 ZM365 187 q-6 -16 -16 -58 q-10 -43 -11 -70 q-5 6 -5 18 q2 43 18 78 q15 35 16 38 q0 -1 -1 -2 q0 -1 -1 -4 l0 0 Z" /><glyph glyph-name="" unicode="n" d="M345 198 q-26 -29 -55 -77 q-29 -49 -67 -77 q7 60 44 141 q37 81 42 108 q-1 20 -16 34 q-16 14 -38 15 q-30 -1 -65 -36 q-35 -35 -69 -85 q10 18 25 42 q14 24 16 36 q0 5 -2 10 q-2 4 -6 9 q-5 -5 -27 -48 q-22 -44 -29 -71 q-1 1 -1 3 q0 1 0 3 q2 23 23 59 q20 36 28 49 l5 6 q-10 12 -25 21 q-14 9 -27 10 q-10 0 -15 -9 q-49 -98 -68 -163 q-19 -65 -18 -103 q1 -41 14 -57 q12 -17 25 -16 q5 0 9 3 q3 2 4 7 q37 91 91 169 q54 78 71 93 q-9 -19 -33 -82 q-25 -64 -28 -125 q1 -35 17 -54 q16 -18 36 -18 q62 13 117 105 q54 92 58 114 q0 5 -4 5 q-5 0 -14 -6 q-9 -6 -18 -15 l0 0 ZM181 38 q-4 2 -6 16 q-2 14 -2 18 q1 23 12 58 q11 35 13 39 q-1 -4 -10 -43 q-9 -40 -10 -65 q0 -9 2 -16 q1 -6 1 -7 l0 0 ZM205 127 q-3 -13 -5 -43 q-2 -31 -4 -35 q0 1 -1 11 q-1 9 -1 17 q1 16 5 35 q4 19 6 21 q0 0 0 -3 q0 -2 0 -3 l0 0 Z" /><glyph glyph-name="" unicode="o" d="M330 203 q-24 -24 -38 -46 q-14 -22 -34 -37 q13 27 20 56 q7 29 7 57 q0 47 -25 87 q-26 39 -82 42 q-46 -1 -78 -36 q-32 -35 -33 -85 q0 -6 1 -14 q-8 7 -18 10 q-9 4 -16 4 q-17 -5 -25 -49 q-9 -44 -9 -64 q0 -48 26 -86 q27 -38 85 -40 q34 0 64 19 q30 19 54 51 q41 9 71 42 q31 33 59 85 q8 15 8 21 q0 4 -5 4 q-5 0 -13 -6 q-9 -6 -19 -15 l0 0 ZM34 203 q-5 -11 -9 -32 q-3 -21 -3 -45 q0 -14 2 -27 q1 -13 4 -22 q-6 11 -8 26 q-3 15 -3 32 q1 30 8 53 q7 24 11 25 q0 0 -1 -3 q0 -2 -1 -7 l0 0 ZM105 57 q-14 6 -22 20 q-7 14 -7 33 q0 18 6 38 q14 -26 33 -45 q19 -19 42 -29 q-10 -8 -21 -13 q-11 -5 -22 -5 q-4 0 -9 1 l0 0 ZM180 110 q-34 9 -50 38 q-15 28 -15 62 q0 40 18 70 q17 29 47 31 q22 0 31 -16 q9 -15 9 -41 q-1 -39 -14 -80 q-12 -42 -26 -64 l0 0 ZM212 332 q22 -6 36 -28 q14 -22 14 -38 q0 -1 -1 1 q-1 2 -2 4 q-2 15 -16 34 q-15 20 -31 27 l0 0 Z" /><glyph glyph-name="" unicode="p" d="M273 282 q-2 17 -17 41 q-15 24 -41 26 q-24 -1 -49 -18 q-25 -18 -46 -43 q-5 17 -26 32 q-21 14 -34 15 q-5 0 -5 -4 q-16 -65 -71 -196 q-56 -132 -63 -238 q-1 -41 19 -68 q19 -27 65 -28 q13 0 18 3 q5 3 5 8 q0 3 -3 6 q-4 2 -9 3 q-7 27 -7 58 q0 41 10 86 q10 45 25 95 q14 -23 35 -40 q22 -17 48 -18 q15 0 32 9 q36 22 74 97 q38 76 41 154 q0 5 0 10 q0 5 -1 10 l0 0 ZM-49 -23 q-4 -21 -7 -48 q-2 -28 -2 -49 q0 -5 2 -17 q2 -12 2 -12 q-1 1 -5 18 q-4 17 -5 33 q1 16 6 46 q5 31 9 34 q0 0 0 -5 l0 0 ZM101 223 q12 26 25 45 q13 20 31 36 q-20 -23 -34 -47 q-15 -24 -23 -38 q0 0 1 1 q0 1 0 3 l0 0 ZM101 60 q-16 9 -24 22 q-7 13 -7 29 q1 17 7 36 q8 1 14 3 q6 2 7 4 q7 24 35 78 q29 53 74 80 q3 -1 3 -8 q-4 -43 -45 -138 q-41 -95 -64 -106 l0 0 ZM198 186 q8 23 19 55 q11 31 12 56 q-1 11 -1 12 q2 0 4 -8 q1 -7 1 -15 q-2 -24 -16 -63 q-14 -39 -20 -43 q0 1 0 3 q0 1 1 3 l0 0 ZM246 264 q0 -5 -6 -35 q-6 -30 -14 -38 q-1 1 -1 2 q-1 1 0 2 q4 11 10 34 q6 23 7 28 q0 7 2 12 q2 5 2 5 l0 -10 Z" /><glyph glyph-name="" unicode="q" d="M279 222 q-1 15 -13 29 q-13 13 -32 22 q-2 36 -29 56 q-26 19 -50 19 q-56 -5 -104 -84 q-48 -80 -51 -174 q-2 -5 8 -43 q10 -39 51 -44 q18 0 37 11 q18 10 35 26 q-10 -35 -19 -72 q-8 -37 -9 -70 q-1 -42 19 -69 q19 -27 66 -28 q12 0 18 3 q5 3 5 7 q0 4 -3 7 q-4 2 -10 3 q-7 27 -7 57 q0 31 6 65 q13 72 33 133 q20 61 49 146 l0 0 ZM209 75 q11 45 22 92 q12 47 16 51 q-2 -19 -15 -63 q-13 -43 -17 -57 q-2 -8 -3 -16 q-2 -8 -3 -7 l0 0 ZM47 193 q0 -2 -1 -6 q-1 -4 -3 -5 q0 13 13 51 q13 39 36 60 q4 4 6 6 q1 2 2 2 q-5 -4 -22 -37 q-17 -33 -26 -53 q-1 -4 -2 -8 q-2 -4 -3 -10 l0 0 ZM59 164 q4 22 17 54 q12 33 20 36 q0 0 -5 -15 q-6 -14 -21 -54 q-4 -11 -6 -16 q-3 -5 -5 -5 l0 0 ZM137 -23 q-4 -20 -7 -48 q-2 -28 -2 -49 q0 -6 3 -18 q1 -11 1 -11 q-5 4 -8 23 q-2 20 -2 26 q0 16 6 47 q5 31 10 35 q0 0 -1 -5 l0 0 ZM177 165 l-1 -5 q-33 -51 -67 -85 q-34 -34 -42 -35 q-3 1 -3 7 q4 41 44 136 q40 94 68 105 q4 0 5 -3 q1 -3 1 -11 q-1 -22 -8 -52 q-7 -30 -8 -40 q0 -6 4 -11 q4 -4 7 -6 l0 0 Z" /><glyph glyph-name="" unicode="r" d="M268 328 q-13 12 -27 11 q-52 -9 -99 -87 q-47 -79 -59 -121 q9 46 27 91 q18 46 33 81 q1 2 1 4 q0 1 0 3 q-1 16 -19 26 q-18 11 -37 11 q-6 0 -11 -1 q-5 -2 -7 -5 q-12 -18 -39 -101 q-28 -83 -31 -162 q0 -37 12 -59 q13 -22 43 -23 q6 0 10 4 q4 3 6 9 q12 54 40 112 q29 58 64 116 q-1 -12 -1 -22 q0 -45 11 -69 q11 -25 33 -25 q6 0 10 3 q4 4 4 11 q-2 13 -2 25 q3 58 24 92 q21 34 24 56 q0 5 -2 10 q-3 5 -8 10 l0 0 ZM39 191 q1 34 13 67 q11 32 34 63 q-17 -32 -29 -65 q-12 -33 -18 -65 l0 0 ZM189 241 q0 -20 1 -37 q0 -17 3 -31 q-9 17 -10 36 q0 15 6 32 l0 0 Z" /><glyph glyph-name="" unicode="s" d="M213 354 q-1 3 -4 8 q-3 6 -6 8 l-4 1 l-5 -3 q1 3 1 4 q0 3 -4 3 q-3 2 -5 2 q-26 -2 -75 -39 q-49 -37 -69 -81 q-4 -11 -5 -24 q-2 -13 -2 -27 q0 -40 10 -83 q9 -43 23 -74 q-19 12 -37 33 q-17 20 -33 33 l-3 1 q-10 -3 -15 -14 q-5 -10 -5 -23 q1 -19 19 -44 q19 -25 40 -39 q10 -6 29 -10 q18 -5 38 -5 q22 0 38 7 q16 7 17 24 q0 5 -1 11 q-12 36 -24 83 q-13 46 -14 89 q0 15 3 30 q20 15 49 39 q29 23 32 50 q0 5 -1 9 q6 8 10 16 q3 8 3 15 l0 0 ZM133 51 q-30 53 -30 117 q0 5 1 10 q0 4 0 9 q5 -73 29 -136 l0 0 ZM80 272 q15 29 50 48 q-31 -24 -50 -48 l0 0 ZM60 264 q14 26 37 49 q23 22 55 39 q-29 -22 -52 -44 q-23 -22 -40 -44 l0 0 Z" /><glyph glyph-name="" unicode="t" d="M234 359 q4 1 5 10 q1 9 1 12 q0 22 -7 29 q-8 7 -27 6 q-12 0 -27 -2 q-4 0 -6 1 q-1 0 -1 0 q0 1 1 4 q0 2 1 4 q6 14 5 27 q-1 26 -13 44 q-12 18 -28 19 q-7 1 -22 -24 q-15 -24 -39 -82 q-22 0 -38 4 q-16 5 -21 16 q-3 4 -6 4 q-4 0 -7 -6 q-4 -5 -4 -12 q1 -21 18 -32 q17 -11 42 -15 q-24 -65 -42 -136 q-18 -71 -19 -129 q1 -51 19 -76 q18 -26 41 -26 q30 2 57 30 q26 27 42 53 q27 43 51 85 q23 42 25 53 q0 4 -5 4 q-35 -8 -71 -77 q-36 -69 -92 -103 q-3 13 -3 28 q2 60 28 139 q26 80 56 150 q15 0 29 1 q15 0 26 0 q23 0 31 -3 l0 0 ZM26 168 q5 43 18 92 q13 50 33 104 l4 -1 q-19 -55 -32 -104 q-14 -48 -23 -91 l0 0 Z" /><glyph glyph-name="" unicode="u" d="M357 203 q-26 -28 -55 -76 q-29 -49 -67 -77 q5 48 24 112 q19 63 53 121 q1 3 1 6 q-1 15 -20 30 q-18 15 -36 16 q-11 0 -16 -9 l-2 -3 q-2 -4 -3 -8 q-2 -4 -4 -8 q-25 -63 -67 -145 q-42 -81 -80 -89 q-2 0 -5 2 q-2 1 -2 8 q2 30 24 92 q22 63 43 99 l0 8 q0 5 1 9 q-4 13 -9 18 q-5 5 -6 5 q0 0 -4 2 q-4 2 -6 5 q-10 -20 -28 -66 q-19 -46 -22 -51 q1 12 17 59 q16 46 31 62 q0 2 -4 4 q-3 2 -7 5 q0 -1 -1 -2 q0 0 -1 0 q0 0 -6 4 q-5 3 -10 3 q-5 0 -8 -2 q-4 -2 -6 -6 q-13 -30 -42 -109 q-29 -80 -33 -149 q1 -19 20 -42 q19 -23 48 -25 q26 1 50 25 q25 24 45 56 q1 -46 18 -67 q16 -21 35 -21 q69 14 120 111 q51 96 56 110 q0 2 -1 3 q-1 1 -3 1 q-5 0 -14 -6 q-9 -6 -18 -15 l0 0 ZM215 87 q-2 6 -2 15 q2 38 20 87 q17 48 24 64 q6 12 8 12 q-3 -6 -25 -68 q-22 -63 -25 -110 l0 0 Z" /><glyph glyph-name="" unicode="v" d="M208 365 q-14 -79 -58 -191 q-44 -112 -72 -123 q-3 0 -4 5 q-2 5 -2 13 q3 51 24 133 q20 82 23 90 q-1 19 -8 27 q-8 7 -17 14 q-6 -16 -14 -43 q-8 -27 -10 -30 q0 10 6 34 q5 25 13 40 q0 1 -4 1 q-3 1 -4 3 q0 0 -5 3 q-4 3 -8 5 q-2 0 -3 0 q0 -1 -1 -1 q0 3 -5 4 q-4 1 -8 1 q-15 -1 -19 -16 q-5 -16 -8 -36 q-7 -31 -15 -79 q-8 -48 -9 -98 q-1 -49 15 -87 q16 -37 59 -39 q65 15 127 141 q62 127 78 192 q-1 16 -19 33 q-18 17 -37 18 q-6 0 -10 -3 q-4 -4 -5 -11 l0 0 ZM167 158 q1 8 22 60 q20 51 27 71 l6 22 l0 -4 q-3 -37 -26 -90 q-22 -54 -29 -59 l0 0 ZM236 285 q-16 -62 -38 -102 q-22 -40 -24 -46 q0 -1 3 4 q2 6 4 10 q27 57 42 103 q15 46 16 48 q0 -1 -1 -5 q0 -5 -2 -12 l0 0 Z" /><glyph glyph-name="" unicode="w" d="M364 365 q-14 -79 -58 -191 q-44 -112 -71 -123 q-4 0 -5 5 q-2 5 -2 14 q2 48 21 125 q19 77 27 95 q0 9 -2 16 q-2 8 -6 13 l-4 5 q-4 5 -8 6 q-3 2 -5 3 q-6 -16 -14 -43 q-8 -27 -11 -30 q0 11 6 30 q5 19 13 40 l2 5 q-1 1 -3 1 q-1 1 -7 6 q-7 4 -14 5 q0 0 -5 2 q-5 1 -9 1 q-15 -1 -20 -16 q-4 -16 -8 -36 l-1 -3 q-7 -26 -13 -59 q-6 -34 -9 -69 q-17 -58 -44 -87 q-27 -29 -36 -29 q-3 0 -4 5 q-2 5 -2 13 q2 47 21 125 q18 78 26 96 q1 2 1 4 q1 2 1 4 q-2 20 -26 35 q-23 16 -44 17 q-6 0 -10 -2 q-4 -2 -6 -7 q-9 -31 -22 -92 q-12 -60 -13 -123 q-1 -51 16 -90 q16 -39 58 -41 q21 1 44 21 q22 20 43 53 q7 -31 23 -52 q17 -21 47 -22 q65 15 127 141 q61 127 77 192 q-1 14 -19 32 q-17 17 -37 19 q-6 0 -10 -3 q-4 -4 -5 -11 l0 0 ZM49 310 q-5 -18 -14 -69 q-9 -50 -10 -90 q0 -9 1 -17 q-4 5 -6 13 q-2 9 -2 20 q2 56 16 101 q14 45 17 49 q0 -1 -2 -7 l0 0 ZM316 122 q2 7 28 66 q25 60 33 85 q-3 -26 -24 -80 q-21 -55 -37 -71 l0 0 ZM390 247 q-16 -44 -39 -93 q-23 -50 -28 -54 q0 1 4 11 q4 10 5 13 q25 57 43 96 q18 39 19 44 q0 -1 0 -4 q-1 -4 -4 -13 l0 0 Z" /><glyph glyph-name="" unicode="x" d="M318 270 q7 7 10 14 q3 7 3 11 q0 6 -4 13 q-3 6 -4 7 l-5 0 q-2 -1 -3 -1 q-1 0 -2 -1 q1 1 1 2 q1 1 1 2 q-1 3 -7 4 q-6 0 -8 0 q-4 0 -9 -1 q-7 0 -7 -3 q-31 -21 -60 -43 q-30 -22 -58 -46 q-6 22 -12 45 q-6 24 -11 49 q-2 7 -7 11 q-6 4 -14 6 q5 -28 12 -52 q6 -25 12 -43 q-10 24 -17 49 q-8 25 -11 48 q-26 0 -48 -8 q-23 -8 -25 -19 q5 -16 11 -33 q5 -17 12 -34 q-20 -39 -37 -72 q-18 -33 -19 -41 q0 -5 3 -10 q2 -6 9 -6 q7 1 25 27 q17 26 36 60 l18 -37 l-11 -12 q-27 -26 -52 -59 q-26 -33 -28 -64 q0 -14 8 -26 q9 -12 28 -22 q4 -4 7 -5 q4 -1 7 -1 q11 5 35 55 q24 50 45 79 q34 -58 73 -100 q38 -43 75 -45 q11 0 16 4 q5 4 5 9 q0 3 -1 6 q-1 2 -4 5 q-27 26 -57 67 q-30 42 -56 100 q29 32 61 59 q32 28 64 52 l0 0 ZM222 55 q9 -11 19 -22 q10 -11 18 -15 q-18 2 -30 21 q-13 19 -16 24 q1 -1 3 -2 q2 -2 6 -6 l0 0 ZM252 2 q-2 0 -5 1 q-3 1 -5 3 q-9 8 -20 21 q-10 13 -18 24 q13 -17 29 -32 q16 -16 19 -17 l0 0 ZM195 69 q0 -7 9 -18 q-4 5 -6 9 q-3 4 -3 4 q-2 2 -3 3 q0 1 0 1 q2 1 3 1 l0 0 Z" /><glyph glyph-name="" unicode="y" d="M218 335 q-6 -33 -14 -69 q-8 -36 -18 -73 q-21 -39 -51 -81 q-30 -43 -66 -64 l0 8 q2 44 27 114 q26 69 50 111 q1 5 1 10 q0 6 1 9 q-2 10 -8 14 q-7 5 -15 14 q-3 0 -5 -4 q-2 -4 -3 -6 q-13 -26 -24 -54 q-12 -29 -21 -52 q3 20 18 57 q14 36 31 63 q0 1 -3 3 q-4 2 -9 6 q-2 0 -4 2 q-1 1 -2 2 q-7 3 -12 2 q-4 0 -7 -2 q-3 -2 -4 -4 q-32 -71 -55 -139 q-23 -67 -24 -118 q0 -33 15 -57 q15 -25 49 -26 q16 0 34 13 q18 13 42 43 q-34 -87 -72 -134 q-38 -47 -86 -48 q-8 1 -14 8 q-5 6 -12 7 q-5 0 -8 -3 q-3 -4 -3 -12 q0 -22 20 -48 q20 -25 56 -27 q101 11 159 153 q59 142 93 290 l15 55 q0 2 1 3 q0 1 0 2 q-2 17 -20 29 q-19 12 -36 13 q-7 0 -11 -2 q-4 -3 -5 -8 l0 0 ZM161 -58 q-6 -22 -21 -45 q-15 -24 -41 -49 q-4 -4 -6 -5 q-2 -2 -3 -2 q6 3 27 34 q21 30 33 50 q3 4 7 14 q5 10 6 11 q0 0 0 -2 q-1 -2 -2 -6 l0 0 Z" /><glyph glyph-name="" unicode="z" d="M317 346 q-42 -12 -94 -12 q-23 0 -46 2 q-23 3 -43 7 q0 2 1 3 q0 1 0 2 q-1 14 -13 25 q-13 10 -28 11 q-17 -1 -30 -23 q-13 -21 -14 -50 q0 -11 3 -18 q4 -8 11 -11 q-21 -46 -45 -89 q-25 -44 -27 -60 q0 -5 3 -10 q2 -5 9 -5 q16 5 46 59 q31 54 52 95 q5 -2 38 -4 q32 -1 61 -1 q12 0 20 1 q8 0 8 0 q0 -2 -5 -6 q-5 -4 -9 -7 q-52 -49 -109 -101 q-56 -52 -86 -100 q-1 -2 -2 -5 q0 -4 0 -8 q0 -15 6 -31 q7 -16 21 -17 q11 0 24 3 q13 3 28 3 q51 -1 105 -14 q55 -14 87 -35 q1 -1 2 -1 q1 -1 2 -1 q12 2 25 23 q13 21 14 41 q-8 30 -88 43 q-81 13 -136 13 q52 51 120 111 q68 59 115 104 q6 6 6 15 q-1 18 -12 33 q-11 14 -20 15 l0 0 ZM148 19 q11 1 21 1 q17 0 33 -4 q15 -3 29 -10 q-18 6 -38 9 q-21 3 -45 4 l0 0 ZM257 13 q-32 10 -71 16 q-39 5 -83 7 q10 1 20 2 q10 0 20 0 q65 0 114 -25 l0 0 ZM207 305 q-28 -3 -40 -3 q-12 1 -18 4 l-4 4 q9 0 23 0 q15 -1 28 -1 q26 0 51 2 q-19 -4 -40 -6 l0 0 Z" /><glyph glyph-name="" unicode="d" d="M572 500 q-7 28 -31 57 q-25 29 -51 36 q-5 1 -8 1 q-49 -3 -100 -44 q-51 -40 -97 -108 q12 26 24 53 q13 28 14 52 q-2 7 -5 11 q-4 3 -4 4 q0 -6 -25 -45 q-24 -40 -24 -41 q7 7 18 30 q11 22 15 29 q5 10 7 18 q3 9 3 12 q-1 4 -7 6 q-7 2 -8 2 q-9 1 -16 4 q-7 3 -16 3 q-82 -8 -168 -104 q-86 -96 -93 -178 q0 -23 19 -44 q18 -22 49 -23 q2 1 3 1 q5 -3 11 -3 q2 0 2 1 q1 1 2 1 q1 0 2 0 q1 -1 2 -1 q1 0 3 2 q1 1 3 3 q-1 5 -7 16 q-7 11 -8 30 q3 65 55 150 q52 85 114 115 q-30 -58 -71 -166 q-41 -109 -45 -184 q-1 -15 6 -30 q7 -14 32 -15 q2 0 3 1 q0 1 1 1 q1 0 4 -2 q3 -1 17 -5 q0 1 1 2 q0 0 1 0 q0 0 4 -2 q3 -2 6 -2 q2 0 5 0 q3 -1 5 -1 q7 0 10 4 q2 4 2 9 q0 3 -1 6 q9 131 84 253 q74 122 133 131 q15 0 24 -13 q9 -14 9 -44 q-1 -99 -72 -246 q-72 -148 -198 -205 q-20 -7 -33 -10 q-14 -3 -22 -3 q-10 0 -10 4 q0 9 41 41 q41 31 123 45 q6 1 9 5 q3 4 3 9 q0 5 -4 9 q-3 4 -11 4 l-5 0 q-33 1 -107 -15 q-74 -16 -83 -77 q0 -32 19 -59 q18 -28 58 -30 q5 0 10 0 q5 1 10 2 q182 50 275 221 q92 170 92 286 q0 17 -3 30 l0 0 ZM35 257 q-25 18 -25 49 q0 33 32 84 q-24 -48 -24 -84 q0 -14 4 -27 q5 -12 13 -22 l0 0 ZM179 314 q-6 -29 -12 -50 q-5 -21 -7 -22 q-2 0 -3 2 q-1 1 -1 2 q1 13 18 62 q18 49 44 127 q4 7 5 11 q1 3 2 3 q-1 -9 -12 -36 q-11 -28 -18 -49 q-10 -30 -16 -50 l0 0 ZM239 387 q-2 -23 -18 -65 q-17 -43 -22 -57 q-5 -19 -6 -27 q-1 -8 -4 -8 q-2 0 -3 2 q-2 1 -2 2 q0 3 14 41 q13 39 34 97 q3 10 5 13 q2 4 2 2 l0 0 ZM280 407 q-2 -3 -2 -3 q3 5 21 34 q17 29 26 41 q13 24 27 36 q15 11 17 12 q1 1 2 2 q1 0 2 0 q-21 -20 -47 -53 q-27 -32 -46 -69 l0 0 ZM379 519 q-13 -14 -45 -53 q-31 -40 -34 -45 q6 31 43 65 q38 33 38 36 q0 -1 -2 -3 l0 0 ZM338 102 q0 2 4 6 q22 22 43 53 q20 31 50 85 q0 0 1 1 q1 2 3 6 q3 6 4 7 q1 0 6 4 q-15 -32 -42 -78 q-27 -46 -60 -78 q-9 -9 -11 -9 q0 2 2 3 l0 0 ZM449 225 q-21 -44 -55 -92 q-34 -48 -78 -67 q27 6 72 68 q45 62 62 96 q0 -3 -1 -5 l0 0 Z" /><glyph glyph-name="" unicode="a" d="M526 582 q-9 -12 -14 -13 q-5 0 -13 -2 l-3 -3 q-54 -90 -112 -177 q-57 -87 -124 -168 q-7 3 -15 7 l-6 3 q-35 19 -75 35 q-40 15 -85 16 q-22 0 -37 -8 q-16 -9 -26 -24 l-3 -7 q-5 -9 -9 -20 q-4 -11 -4 -18 q0 -3 2 -3 q2 0 2 -3 q0 -2 -2 -3 q-1 -2 -2 -3 q3 -5 6 -10 q3 -5 9 -5 q5 1 15 4 q9 3 24 3 q43 0 77 -8 q34 -8 69 -20 q-26 -23 -59 -47 q-32 -23 -35 -35 q1 -14 17 -18 q16 -5 31 -17 l10 -3 q5 -1 11 -2 q6 0 12 0 q34 4 61 29 q27 24 50 55 q27 -12 58 -28 q31 -17 54 -35 q6 -50 27 -88 q22 -38 66 -40 q24 1 48 17 q25 16 27 39 q0 7 -6 9 q-5 2 -13 2 q-33 1 -47 37 q-14 35 -14 93 q2 107 33 225 q32 118 74 175 q2 3 4 6 q1 4 1 8 q-1 19 -19 38 q-19 19 -41 20 q-13 0 -24 -13 l0 0 ZM23 245 q18 27 59 27 q32 0 77 -17 q-39 10 -69 10 q-21 0 -38 -5 q-17 -5 -29 -15 l0 0 ZM303 194 l-4 3 q18 24 54 76 q36 52 41 58 q-15 -17 -43 -64 q-28 -47 -42 -66 l-6 -7 ZM319 184 l-4 3 q23 28 49 65 q26 37 54 81 q-23 -39 -52 -82 q-29 -43 -47 -67 l0 0 ZM424 294 q-5 -29 -11 -73 q-6 -44 -7 -94 q-16 12 -35 25 q-20 12 -36 23 q23 34 47 68 q24 34 45 70 l-3 -19 ZM483 72 q-3 32 -3 65 q0 66 12 134 q13 69 39 140 q-26 -90 -37 -174 q-11 -84 -11 -165 l0 0 Z" /><glyph glyph-name="" unicode="b" d="M452 317 q49 40 86 97 q36 56 38 103 q0 24 -17 44 q-17 21 -52 22 q-65 -2 -129 -59 q-64 -56 -111 -138 q14 35 28 68 q14 33 26 65 q1 2 2 7 q0 6 0 10 q-3 8 -6 11 q-3 3 -3 4 q-3 -11 -21 -47 q-19 -36 -22 -40 q4 16 20 44 q15 27 17 46 q-1 4 -8 6 q-7 2 -7 2 q-6 0 -11 4 q-6 3 -21 3 q-82 -8 -168 -104 q-86 -96 -93 -178 q1 -28 23 -48 q23 -20 59 -21 q2 0 2 1 q1 1 2 1 q1 0 2 -1 q0 -1 1 -1 q2 0 4 3 q2 3 3 5 q0 1 -1 2 q-1 1 -1 2 q-1 2 -7 15 q-5 13 -6 25 q3 65 55 150 q52 85 114 115 q-30 -58 -71 -167 q-41 -109 -45 -184 q-1 -15 6 -29 q8 -14 33 -15 q2 0 2 1 q-1 0 4 0 q1 0 1 -2 q0 -2 6 -2 q2 -1 6 -1 q5 -1 5 -1 q4 0 6 -1 q3 -2 6 -2 l10 0 q7 0 10 4 q2 4 2 9 q0 3 -1 6 q9 146 98 263 q89 118 158 125 q8 0 15 -3 q8 -3 8 -10 q-5 -31 -67 -92 q-63 -61 -119 -98 q-9 -6 -14 -11 q-5 -4 -5 -8 q0 -1 1 -1 q1 -1 2 -3 q0 -4 -1 -6 q-1 -2 -1 -4 q0 -5 3 -8 q3 -3 6 -3 q1 0 2 2 q0 1 0 1 q0 0 0 -2 q0 -2 0 -7 q0 -3 1 -4 q2 -1 4 -1 q2 0 5 1 q3 1 4 1 q0 0 -1 -1 q-1 0 -1 -2 q0 -1 0 -2 q1 -1 2 -1 q2 0 5 1 q3 1 6 1 q27 0 48 -9 q22 -9 23 -28 q-12 -99 -111 -161 q-100 -62 -147 -64 q-4 0 -6 1 q-3 1 -3 3 q1 11 44 40 q43 30 121 43 q5 0 9 4 q3 5 3 10 q0 7 -6 10 q-7 3 -22 3 q-59 0 -118 -21 q-59 -22 -64 -70 q1 -37 22 -63 q21 -27 56 -28 q127 15 222 96 q95 81 100 199 q-1 21 -18 40 q-18 18 -42 33 l0 0 ZM35 246 q-25 18 -25 48 q0 34 32 85 q-24 -48 -24 -85 q0 -14 4 -27 q5 -12 13 -21 l0 0 ZM287 392 q-2 -3 -2 -3 q2 6 6 11 q38 62 51 79 q13 16 15 16 q6 6 12 11 q7 6 10 8 q-21 -20 -47 -53 q-27 -34 -45 -69 l0 0 ZM386 504 q-15 -16 -45 -55 q-31 -38 -34 -43 q2 4 22 34 q20 30 32 43 q4 4 12 11 q7 7 12 10 q3 3 3 3 q1 0 -2 -3 l0 0 ZM374 341 q-9 -7 -11 -7 q10 7 72 61 q61 53 70 72 q-1 -5 -38 -44 q-38 -39 -93 -82 l0 0 ZM310 48 q17 4 58 41 q40 38 45 70 q0 0 -7 -12 q-6 -12 -19 -28 q-17 -21 -38 -41 q-22 -20 -39 -30 l0 0 ZM309 30 q37 12 82 64 q45 52 64 86 l3 -1 l-4 -5 q-23 -43 -61 -86 q-39 -44 -85 -61 q1 3 1 3 l0 0 ZM345 17 q-3 -1 -7 -3 q-4 -3 -5 -3 q0 1 2 4 q2 2 4 4 q48 32 81 67 q32 35 56 81 q1 -1 2 -2 q0 -1 1 -1 q-16 -36 -55 -82 q-38 -46 -79 -65 l0 0 Z" /><glyph glyph-name="" unicode="c" d="M288 302 q-15 -29 -22 -42 q-6 -12 -7 -21 q2 -4 12 -7 q11 -3 12 -3 q1 0 2 0 q1 -1 2 -1 q38 9 92 97 q54 87 59 142 q-3 42 -44 71 q-42 29 -86 30 q-88 -10 -193 -147 q-106 -138 -115 -289 q1 -78 47 -128 q45 -50 118 -52 q63 0 128 54 q66 53 124 153 q1 2 2 4 q0 2 0 4 q0 7 -5 11 q-6 4 -12 4 q-5 0 -9 -2 q-4 -3 -6 -8 q-25 -51 -81 -89 q-56 -39 -109 -41 q-46 2 -68 35 q-22 32 -22 74 q8 117 91 236 q83 120 143 129 q11 0 18 -7 q6 -7 6 -18 q-2 -26 -19 -57 q-18 -32 -28 -46 q-6 3 -13 3 q-12 -2 -21 -28 q-8 -26 -16 -46 l-8 -18 l-13 -38 q1 -12 4 -16 q4 -3 4 -3 q4 5 20 35 q17 31 19 34 q0 -1 -2 -3 q-2 -2 -4 -6 l0 0 ZM292 65 q-22 -22 -44 -32 q-23 -11 -45 -11 q-17 0 -33 6 q-17 6 -34 19 q16 -9 32 -13 q16 -4 32 -4 q47 0 92 35 l0 0 ZM236 495 q-29 -14 -74 -73 q-45 -60 -61 -92 q20 45 58 96 q38 51 77 69 l0 0 ZM106 375 q45 96 153 168 q-97 -78 -153 -168 l0 0 Z" /><glyph glyph-name="" unicode="1" d="M158 530 l-4 0 l-2 -4 q-14 -22 -35 -42 q-20 -21 -44 -22 q-5 0 -10 1 q-5 1 -10 4 l-9 5 l-2 -12 q-3 -15 -3 -34 q0 -15 4 -28 q4 -13 15 -20 l3 -1 q4 -1 9 -1 q5 0 10 0 q8 0 15 1 q-29 -77 -59 -156 q-30 -78 -51 -156 q-2 -5 -4 -12 q-2 -8 -2 -14 q2 -14 19 -29 q17 -16 31 -23 l7 -4 l3 9 q49 120 92 244 q44 124 86 248 q-1 32 -18 40 q-18 7 -41 6 l0 0 ZM5 90 q14 51 36 113 q22 63 52 137 q-22 -68 -44 -131 q-22 -62 -44 -119 l0 0 ZM61 447 q20 0 38 9 q17 8 32 25 q-13 -20 -25 -30 q-12 -10 -25 -10 q-10 0 -20 6 l0 0 Z" /><glyph glyph-name="" unicode="2" d="M199 81 q-11 10 -26 13 q-15 4 -32 4 q-4 0 -8 0 q-4 -1 -8 -1 q57 59 112 143 q56 84 60 177 q1 41 -24 76 q-26 35 -85 37 q-53 -2 -95 -47 q-43 -45 -45 -111 q0 -30 14 -47 q14 -17 38 -17 q17 0 38 10 l-7 11 q-7 11 -9 21 q-3 11 -3 20 q2 33 25 53 q22 20 48 21 q16 0 26 -10 q11 -10 11 -32 q0 -11 -3 -26 q-4 -14 -11 -32 q-33 -69 -120 -161 q-88 -92 -145 -102 l-7 -9 q-1 -6 -1 -12 q0 -20 9 -37 q9 -17 23 -29 l3 -3 l3 1 q45 11 90 18 q44 7 80 7 q21 -1 37 -5 q16 -4 24 -5 q3 0 4 3 q1 2 1 7 q0 14 -5 32 q-5 17 -10 28 l-2 4 ZM64 420 q-1 -8 -2 -16 q0 -8 0 -15 q0 -22 5 -38 q5 -16 15 -26 q-24 10 -24 49 q0 19 6 46 l0 0 ZM233 291 q-25 -54 -72 -112 q15 22 31 46 q15 25 33 53 l8 13 ZM-20 4 q17 11 40 17 q24 5 54 5 q15 0 33 -1 q-69 -1 -127 -21 l0 0 ZM266 325 q-46 -105 -143 -207 q69 83 143 207 l0 0 Z" /><glyph glyph-name="" unicode="3" d="M278 409 q-1 61 -29 90 q-28 29 -72 29 q-57 -3 -95 -44 q-38 -41 -40 -91 q1 -29 15 -49 q14 -20 31 -21 q17 1 29 13 q12 12 12 23 q-1 6 -7 11 q-7 4 -8 13 q2 21 26 40 q25 20 49 21 q11 0 18 -7 q7 -7 7 -23 q0 -6 -1 -13 q-22 -57 -62 -88 q-41 -31 -90 -43 l-3 -1 l-2 -4 q-4 -9 -4 -17 q0 -15 9 -27 q8 -13 18 -21 l6 -2 q0 0 10 0 q22 1 56 -5 q34 -5 37 -24 q-7 -28 -60 -60 q-52 -32 -96 -35 q-14 0 -23 7 q-9 6 -9 22 q0 4 1 9 q1 5 1 9 q0 6 -3 6 q-7 -1 -19 -25 q-13 -24 -14 -53 q-1 -22 14 -38 q14 -15 52 -16 q72 2 148 53 q76 50 82 122 q-1 32 -21 50 q-21 19 -46 26 q29 31 55 74 q26 43 28 89 l0 0 ZM60 360 q-7 15 -7 33 q0 33 26 77 q-10 -25 -15 -47 q-5 -23 -5 -44 q0 -5 0 -9 q0 -5 1 -10 l0 0 ZM57 66 q107 35 137 89 q-39 -75 -137 -89 l0 0 Z" /><glyph glyph-name="" unicode="4" d="M327 495 l0 4 q-3 11 -10 18 l-3 3 q-8 5 -17 7 q-9 2 -17 3 l-12 0 l-6 -3 q-33 -42 -119 -137 q-85 -95 -130 -106 l-6 1 l-3 -7 q-4 -10 -4 -21 q0 -18 10 -32 q9 -15 22 -26 l3 -2 l3 1 q26 5 56 10 q30 4 57 7 q-16 -41 -35 -84 q-18 -42 -30 -86 l-1 -5 l2 -4 q20 -31 50 -43 l7 -3 l3 7 q23 54 45 110 q21 57 41 113 q34 -1 45 -10 q12 -10 13 -11 q5 0 8 10 q3 10 3 24 q0 22 -10 36 q-10 13 -36 19 q18 51 36 102 q17 52 35 105 l0 0 ZM39 211 q14 6 31 10 q17 3 37 3 q12 0 25 -2 q-9 0 -39 -3 q-30 -3 -54 -8 l0 0 ZM147 17 q10 48 27 94 q17 46 40 91 q-67 -185 -67 -185 l0 0 ZM179 287 q-18 1 -36 1 q0 9 75 94 l-39 -95 Z" /><glyph glyph-name="" unicode="5" d="M309 483 q-6 30 -30 42 q-24 12 -55 12 q-37 -1 -66 -10 q-29 -9 -34 -17 q-3 -9 -7 -18 q-10 -25 -35 -89 q-25 -65 -28 -89 l1 -4 q7 -17 21 -29 q15 -12 29 -20 l4 -1 q2 0 10 1 q8 0 19 0 q19 0 36 -3 q16 -3 17 -14 q-8 -39 -81 -95 q-74 -55 -124 -61 q-14 0 -23 7 l-12 -8 q1 -48 20 -68 q20 -20 50 -19 q17 0 34 5 q18 6 34 14 q46 25 106 91 q59 66 65 135 q-3 53 -42 71 q-39 18 -77 18 l42 108 q7 2 18 3 q12 1 24 1 q19 0 33 -5 q14 -5 15 -20 q0 -13 5 -13 q12 2 22 25 q9 23 10 37 q0 7 -1 13 l0 0 ZM74 98 q60 32 97 81 q-36 -58 -97 -81 l0 0 ZM39 91 q108 59 148 125 q-48 -87 -148 -125 l0 0 ZM219 526 q30 0 50 -8 q20 -8 33 -29 q-17 15 -37 25 q-21 9 -46 12 l0 0 Z" /><glyph glyph-name="" unicode="6" d="M251 518 q-132 -47 -210 -181 q-78 -134 -80 -229 q1 -64 31 -97 q30 -32 74 -32 q85 5 135 78 q51 73 52 148 q0 44 -22 73 q-23 29 -71 30 q-19 0 -45 -6 q37 47 85 89 q49 43 94 46 q5 0 11 -2 q5 -2 10 -2 q4 0 5 4 q2 3 2 9 q0 21 -17 45 q-18 25 -54 27 l0 0 ZM107 41 q33 16 56 47 q23 30 35 75 q-10 -49 -33 -80 q-23 -30 -58 -42 l0 0 ZM142 244 q24 0 36 -14 q11 -14 11 -38 q-1 -43 -35 -94 q-35 -51 -94 -56 q-19 1 -28 15 q-9 15 -9 38 q0 48 31 96 q31 47 88 53 l0 0 ZM98 367 q27 48 106 94 q-31 -23 -57 -47 q-27 -24 -49 -47 l0 0 ZM64 356 q41 58 86 95 q46 37 96 54 q-105 -59 -182 -149 l0 0 Z" /><glyph glyph-name="" unicode="7" d="M256 530 q-17 -3 -56 -7 q-40 -5 -81 -5 q-33 1 -52 8 q-19 6 -19 7 q-9 -3 -14 -23 q-6 -21 -6 -28 q2 -34 33 -45 q32 -12 66 -11 q13 0 24 1 q10 1 17 2 l-189 -392 q0 -1 0 -3 q-1 -2 -1 -4 q5 -23 15 -34 q11 -11 27 -11 q6 0 15 2 q8 2 9 6 q41 81 81 163 q40 82 79 165 q19 39 39 82 q20 43 35 85 q1 5 1 9 q0 14 -7 23 q-7 10 -16 10 l0 0 ZM36 493 q11 -54 84 -60 q-85 6 -85 52 q0 3 1 8 l0 0 ZM48 127 q56 108 87 193 q-28 -103 -87 -193 l0 0 ZM13 82 q45 93 78 164 q34 71 56 119 q-60 -162 -134 -283 l0 0 Z" /><glyph glyph-name="" unicode="8" d="M192 533 q-55 -10 -94 -53 q-39 -43 -41 -101 q0 -23 9 -47 q9 -24 28 -47 q-65 -42 -97 -95 q-31 -53 -31 -100 q0 -41 23 -67 q23 -26 68 -27 q71 2 132 54 q62 52 66 128 q0 25 -10 51 q-11 25 -33 50 q30 26 56 61 q25 34 31 78 q-1 55 -27 85 q-26 31 -66 31 q-6 0 -14 -1 l0 0 ZM74 339 q-3 11 -4 21 q-1 10 -1 20 q0 70 67 121 q-63 -60 -63 -139 q0 -11 1 -23 l0 0 ZM59 156 q16 19 41 40 q24 20 56 42 q14 -10 20 -21 q6 -12 6 -25 q-5 -52 -52 -88 q-47 -36 -73 -38 q-14 0 -21 8 q-7 7 -7 20 q0 13 8 29 q7 16 22 33 l0 0 ZM114 15 q47 25 79 65 q32 39 48 94 q-4 -52 -36 -91 q-32 -40 -91 -68 l0 0 ZM221 140 q-11 -27 -29 -51 q-18 -24 -43 -46 q35 37 72 97 l0 0 ZM164 321 q-22 15 -31 30 q-9 16 -9 30 q2 33 32 55 q29 22 56 23 q11 0 18 -5 q7 -6 7 -17 q1 -16 -16 -44 q-17 -29 -57 -72 l0 0 Z" /><glyph glyph-name="" unicode="9" d="M207 518 q-84 -9 -133 -77 q-48 -69 -49 -143 q0 -46 23 -76 q23 -31 72 -32 q20 0 44 6 q-36 -46 -84 -89 q-48 -42 -94 -45 q-6 0 -11 2 q-6 1 -11 1 q-4 0 -5 -3 q-2 -4 -2 -10 q0 -21 18 -45 q17 -25 53 -27 q134 47 211 182 q77 134 79 228 q-1 67 -33 98 q-32 30 -78 30 l0 0 ZM173 457 q-33 -17 -56 -47 q-23 -31 -35 -75 q10 49 33 80 q23 30 58 42 l0 0 ZM182 135 q-25 -48 -105 -93 q62 45 105 93 l0 0 ZM33 -7 q53 29 99 67 q45 37 84 82 q-41 -58 -87 -95 q-45 -37 -96 -54 l0 0 ZM138 254 q-25 0 -36 14 q-11 13 -11 37 q1 43 35 95 q34 51 93 56 q19 0 28 -15 q9 -15 9 -38 q0 -48 -31 -95 q-31 -48 -87 -54 l0 0 Z" /><glyph glyph-name="" unicode="0" d="M234 523 q-15 4 -30 4 q-93 -7 -148 -117 q-56 -109 -57 -233 q0 -78 28 -133 q29 -55 91 -57 q89 8 147 123 q58 115 60 241 q0 65 -21 112 q-22 47 -70 60 l0 0 ZM47 336 q11 55 39 97 q28 42 73 71 q-78 -69 -112 -168 l0 0 ZM162 52 q27 36 48 77 q21 40 35 94 q-10 -59 -31 -100 q-21 -40 -52 -71 l0 0 ZM97 51 q-12 8 -18 29 q-6 22 -6 53 q2 103 43 217 q41 113 99 123 q22 0 32 -22 q10 -22 10 -63 q-2 -103 -43 -218 q-41 -115 -97 -125 q-10 0 -20 6 l0 0 Z" /><glyph glyph-name="" unicode="!" d="M190 443 q-34 -93 -67 -186 q-33 -94 -66 -189 q1 -15 14 -24 q13 -10 25 -10 q14 5 34 52 q21 48 33 79 q26 61 52 123 q25 62 48 124 q3 7 3 14 q-1 19 -14 32 q-13 12 -29 13 q-10 0 -19 -6 q-9 -7 -14 -22 l0 0 ZM130 115 q21 67 49 132 q27 64 59 127 q-29 -73 -57 -138 q-27 -64 -51 -121 l0 0 ZM36 4 q-14 -8 -25 -30 q-10 -23 -11 -42 q1 -16 12 -23 q11 -8 26 -8 q19 1 38 25 q18 23 19 58 q-1 14 -11 21 q-10 6 -22 6 q-14 0 -26 -7 l0 0 ZM14 -36 q6 16 18 28 q12 12 27 14 q-13 -8 -25 -20 q-13 -12 -20 -22 l0 0 Z" /><glyph glyph-name="" unicode="~" d="M201 269 q-1 0 -2 -1 q-1 -1 -1 -1 q-7 -5 -17 -10 q-9 -6 -17 -6 q-14 4 -27 28 q-14 25 -43 28 q-26 -2 -58 -21 q-33 -19 -36 -36 q0 -14 10 -25 q10 -12 24 -13 q10 1 20 10 q11 9 24 10 q12 -3 26 -26 q13 -24 44 -27 q25 1 58 18 q33 18 36 36 q-1 14 -10 26 q-9 13 -21 14 q-3 0 -5 -1 q-3 -1 -5 -3 l0 0 ZM27 265 q18 16 34 24 q16 8 31 8 q8 0 15 -3 q8 -2 15 -7 q-6 1 -11 2 q-6 0 -12 0 q-36 0 -72 -24 l0 0 Z" /><glyph glyph-name="" unicode="&quot;" d="M155 567 q-8 -24 -19 -55 q-12 -30 -26 -52 q-2 -3 -2 -6 q0 -7 6 -14 q6 -7 14 -8 q22 4 51 49 q30 44 33 77 q0 13 -9 21 q-10 9 -22 9 q-8 0 -15 -5 q-7 -5 -11 -16 l0 0 ZM158 467 q31 48 50 87 q-7 -37 -50 -87 l0 0 ZM146 559 q-1 13 -10 22 q-9 9 -21 9 q-22 -4 -37 -49 q-15 -45 -35 -79 q-1 -1 -1 -2 q0 -2 0 -3 q0 -7 6 -14 q6 -7 14 -7 q23 5 52 49 q29 45 32 74 l0 0 ZM92 469 q30 48 49 87 q-7 -37 -49 -87 l0 0 ZM146 559 q-1 13 -10 22 q-9 9 -21 9 q-22 -4 -37 -49 q-15 -45 -35 -79 q-1 -1 -1 -2 q0 -2 0 -3 q0 -7 6 -14 q6 -7 14 -7 q23 5 52 49 q29 45 32 74 l0 0 ZM92 469 q30 48 49 87 q-7 -37 -49 -87 l0 0 Z" /><glyph glyph-name="" unicode="#" d="M296 321 l25 61 q2 3 2 6 q-1 6 -10 8 q-9 1 -17 1 q-6 0 -14 -1 q-9 -2 -16 -8 q-4 -13 -12 -38 q-8 -24 -12 -27 l24 65 q-7 -3 -16 -26 q-8 -24 -13 -39 l-56 0 q6 17 17 38 q11 21 12 35 q-1 7 -8 8 q-7 2 -14 2 q-3 0 -19 -2 q-15 -2 -21 -11 q-7 -18 -14 -36 q-6 -18 -13 -36 q-33 1 -61 -6 q-29 -6 -31 -47 q0 -15 8 -15 q32 3 63 4 q-4 -11 -7 -23 q-3 -12 -7 -23 q-35 0 -60 -7 q-25 -7 -26 -45 q0 -8 2 -12 q1 -4 5 -4 l63 4 q-5 -20 -10 -41 q-5 -22 -5 -42 q2 -12 18 -14 q15 -3 23 -3 q5 0 10 1 q4 1 5 5 q3 24 7 48 q4 24 10 47 l57 0 q0 -1 0 -2 q-1 -1 -1 -2 q-6 -21 -11 -44 q-6 -23 -6 -44 q2 -12 18 -15 q16 -3 23 -3 q5 0 9 1 q4 1 5 5 q9 51 20 102 q15 -2 32 -3 q16 -2 33 -2 q13 0 18 8 q6 7 6 18 q-2 35 -25 40 q-23 5 -48 4 q8 23 14 45 q17 -2 33 -3 q17 -1 32 -1 q13 0 18 7 q5 7 5 18 q0 15 -7 27 q-7 13 -16 14 l-41 3 ZM66 73 q1 11 5 40 q4 28 11 32 q-6 -19 -9 -36 q-3 -18 -7 -36 l0 0 ZM94 209 q3 7 6 25 q4 18 12 23 l-14 -48 l-4 0 ZM131 321 q4 18 10 36 q6 18 13 36 q-6 -19 -12 -36 q-6 -18 -11 -36 l0 0 ZM179 73 q1 10 5 40 q5 29 11 33 l-16 -73 ZM144 213 q6 22 14 46 q29 0 57 -1 q-7 -22 -13 -45 q-19 0 -39 -1 q-5 0 -9 1 q-5 0 -10 0 l0 0 ZM207 211 q2 10 7 27 q5 17 11 19 q-4 -11 -6 -23 q-3 -12 -7 -23 l-5 0 Z" /><glyph glyph-name="" unicode="$" d="M282 512 q8 19 18 43 q10 25 11 40 q0 10 -8 14 q-7 4 -18 4 q-38 -3 -51 -38 q-12 -34 -21 -68 q-48 -17 -100 -67 q-51 -50 -55 -115 q1 -41 20 -62 q19 -21 45 -34 l-33 -128 q-12 8 -16 22 q-4 14 -4 30 q0 12 2 24 q2 11 2 20 q0 10 -8 10 q-17 -1 -40 -27 q-24 -27 -26 -61 q0 -38 19 -66 q19 -27 52 -32 q-3 -10 -6 -20 q-3 -11 -3 -20 q1 -15 15 -23 q14 -8 28 -8 q6 0 10 2 q4 1 5 5 l18 77 q43 20 80 62 q36 42 38 94 q-1 29 -17 48 q-16 19 -38 33 q12 43 26 85 q14 42 28 84 q2 -6 2 -13 q0 -10 -4 -21 q-3 -10 -4 -19 q0 -7 4 -9 q4 -3 11 -3 q21 1 43 17 q23 15 25 33 q-2 30 -13 54 q-11 23 -37 33 l0 0 ZM115 328 q0 31 14 58 q15 27 47 51 q-26 -26 -42 -53 q-15 -27 -19 -56 l0 0 ZM129 328 q5 26 20 50 q15 24 33 42 l-37 -118 q-7 4 -11 11 q-5 6 -5 15 l0 0 ZM178 193 q4 -5 6 -11 q3 -6 3 -13 q0 -17 -9 -30 q-8 -14 -20 -25 q5 20 10 40 q5 19 10 39 l0 0 ZM159 101 q17 17 27 34 q9 17 9 33 q0 11 -5 23 q5 -7 8 -14 q3 -7 3 -14 q0 -29 -42 -62 l0 0 ZM200 299 q5 66 43 147 q-36 -108 -43 -147 l0 0 Z" /><glyph glyph-name="" unicode="%" d="M64 366 q15 -11 33 -11 q18 0 35 9 q17 10 30 27 q26 33 50 80 q24 47 26 91 q0 24 -14 47 q-15 22 -45 24 q-51 -5 -93 -74 q-42 -69 -45 -136 q0 -19 6 -34 q5 -15 17 -23 l0 0 ZM111 410 q13 7 27 26 q14 18 30 48 q-13 -35 -27 -53 q-14 -19 -30 -21 l0 0 ZM185 570 q4 -1 4 -9 q-1 -17 -14 -43 q-12 -27 -17 -35 q-5 -11 -24 -39 q-19 -28 -31 -31 q-2 0 -4 3 q-1 2 -1 6 q3 36 35 89 q32 54 52 59 l0 0 ZM172 623 q-59 -42 -89 -93 q32 69 89 93 l0 0 ZM331 279 q-7 4 -14 6 q-7 2 -14 2 q-51 -5 -93 -74 q-42 -68 -45 -135 q0 -30 15 -49 q14 -18 41 -19 q17 0 34 9 q17 10 31 27 q26 32 50 80 q24 47 26 91 q0 19 -7 35 q-8 16 -24 27 l0 0 ZM295 277 q-58 -42 -89 -93 q17 35 39 58 q22 23 50 35 l0 0 ZM235 64 q24 15 56 74 q-13 -35 -26 -53 q-14 -19 -30 -21 l0 0 ZM224 68 q-4 2 -4 9 q3 32 34 86 q31 55 52 61 q6 0 6 -9 q-3 -31 -36 -86 q-32 -55 -52 -61 l0 0 ZM329 638 q-84 -146 -157 -293 q-73 -148 -135 -303 q-1 -2 -1 -5 q-1 -3 -1 -5 q1 -17 16 -28 q15 -11 28 -11 q6 0 9 4 q62 161 138 315 q76 154 165 301 q6 9 5 15 q-1 11 -11 17 q-11 5 -25 5 q-10 0 -19 -3 q-9 -3 -12 -9 l0 0 ZM128 225 q59 146 179 347 q-49 -93 -90 -174 q-42 -81 -77 -149 l-12 -24 Z" /><glyph glyph-name="" unicode="&amp;" d="M310 54 q-22 0 -40 7 q13 17 29 41 q15 25 16 43 q-1 21 -17 38 q-16 18 -30 19 q-8 0 -10 -9 q-5 -25 -15 -48 q-9 -24 -25 -44 q-15 18 -24 40 q-10 23 -15 46 l9 7 q35 24 91 77 q56 54 62 114 q-1 27 -27 50 q-27 24 -73 25 q-69 -5 -96 -73 q-27 -68 -26 -134 q0 -15 1 -27 q-58 -46 -89 -87 q-31 -41 -31 -85 q0 -35 22 -58 q22 -22 67 -23 q32 0 64 9 q32 10 62 29 q14 -15 24 -23 q11 -8 24 -8 q25 2 43 22 q17 20 18 38 q0 6 -3 10 q-4 4 -11 4 l0 0 ZM305 157 q1 -3 1 -5 q1 -3 1 -6 q0 -12 -7 -27 q-7 -15 -21 -32 q21 31 26 70 l0 0 ZM171 267 q6 71 38 107 q32 36 56 36 q14 0 14 -13 q1 -15 -24 -47 q-24 -33 -84 -83 l0 0 ZM209 446 q-34 -38 -54 -81 q-20 -43 -25 -92 q3 63 23 106 q20 44 56 67 l0 0 ZM55 31 q7 -4 16 -6 q9 -2 19 -2 q31 0 76 20 q-42 -24 -72 -25 q-22 1 -39 13 l0 0 ZM96 32 q-11 0 -25 2 q-15 3 -16 14 q3 27 31 57 q28 29 48 45 q15 -48 42 -89 q-19 -13 -39 -20 q-21 -7 -41 -9 l0 0 Z" /><glyph glyph-name="" unicode="&#39;" d="M147 514 q-1 13 -10 22 q-9 9 -21 9 q-22 -4 -37 -49 q-15 -45 -35 -79 q-1 -1 -1 -2 q0 -2 0 -3 q0 -7 6 -14 q6 -7 14 -7 q23 5 52 49 q29 45 32 74 l0 0 ZM93 424 q30 48 49 87 q-7 -37 -49 -87 l0 0 Z" /><glyph glyph-name="" unicode="(" d="M184 496 q-76 -85 -129 -192 q-53 -107 -55 -217 q0 -54 18 -98 q18 -45 60 -74 q8 -5 15 -5 q12 0 21 7 q9 7 9 16 q0 3 -2 7 q-2 3 -6 6 q-27 21 -38 51 q-11 30 -11 66 q1 46 14 95 q12 48 31 89 q23 54 62 114 q40 59 86 94 q8 6 12 12 q3 5 3 11 q-1 13 -17 22 q-16 10 -37 10 q-11 0 -20 -3 q-9 -4 -16 -11 l0 0 ZM39 225 q20 98 143 254 q-52 -74 -88 -137 q-36 -64 -55 -117 l0 0 Z" /><glyph glyph-name="" unicode=")" d="M242 465 q-11 18 -28 34 q-17 17 -33 18 q-12 0 -21 -7 q-9 -7 -10 -16 q0 -3 2 -6 q2 -4 6 -7 q27 -21 39 -51 q11 -31 11 -67 q-1 -46 -14 -94 q-13 -48 -31 -88 q-24 -55 -63 -114 q-39 -59 -85 -94 q-8 -6 -12 -12 q-3 -6 -3 -11 q1 -14 17 -23 q16 -9 36 -9 q11 0 20 3 q9 4 16 11 q76 83 129 191 q53 107 55 217 q0 34 -7 66 q-8 32 -24 59 l0 0 ZM95 -43 q52 74 88 138 q35 63 54 116 q-9 -49 -45 -112 q-35 -64 -97 -142 l0 0 Z" /><glyph glyph-name="" unicode="*" d="M172 517 q5 7 12 20 q7 13 8 21 q-1 6 -9 10 q-9 5 -19 5 q-18 -2 -26 -21 q-9 -20 -15 -37 q-9 9 -19 20 q-10 10 -17 11 q-12 -1 -24 -13 q-11 -11 -12 -20 q1 -5 13 -16 q11 -10 18 -16 q-16 -6 -28 -14 q-13 -8 -14 -35 q0 -8 3 -14 q2 -6 8 -6 q6 1 19 7 q12 7 21 11 q-4 -10 -9 -22 q-5 -13 -6 -22 q1 -10 10 -19 q10 -9 21 -10 q12 2 18 22 q6 20 11 38 q8 -12 17 -27 q10 -15 17 -16 q11 1 20 16 q9 15 10 28 q-1 8 -12 21 q-10 13 -19 23 q19 6 41 12 q23 7 25 20 q0 13 -6 24 q-6 10 -17 11 l-40 -12 ZM47 421 q13 5 25 11 q12 6 24 11 q-29 -23 -44 -23 q-3 0 -5 1 l0 0 ZM131 514 q12 44 26 51 l-26 -51 ZM138 425 q31 -30 31 -48 l-31 48 Z" /><glyph glyph-name="" unicode="+" d="M283 261 q-16 1 -32 2 q-17 1 -33 2 q6 17 15 39 q9 23 10 39 q0 8 -8 11 q-7 3 -16 3 q-4 0 -22 -3 q-17 -4 -24 -16 q-6 -18 -12 -36 q-5 -19 -9 -37 q-33 1 -62 -6 q-28 -7 -30 -58 q0 -14 5 -14 q17 0 34 2 q18 2 35 3 q-4 -18 -8 -37 q-5 -20 -5 -38 q1 -13 15 -19 q14 -6 29 -6 q7 0 12 2 q5 1 5 5 q6 47 18 92 q20 -1 40 -4 q20 -3 40 -3 q10 0 14 10 q4 10 4 24 q0 16 -4 29 q-4 13 -11 14 l0 0 ZM140 184 q-1 -6 -3 -21 q-2 -15 -6 -39 q0 -3 -1 -6 q-1 5 -1 11 q0 8 2 28 q3 21 11 31 l-2 -4 ZM233 342 q-7 -28 -12 -44 q-5 -17 -8 -23 q0 13 5 29 q5 17 15 38 l0 0 Z" /><glyph glyph-name="" unicode="," d="M53 84 q-12 -23 -28 -50 q-16 -28 -34 -47 q-1 -1 -2 -3 q0 -2 0 -4 q0 -7 6 -15 q5 -7 14 -8 q28 4 62 45 q33 40 36 65 q0 14 -9 23 q-9 10 -21 10 q-7 0 -13 -4 q-6 -4 -11 -12 l0 0 ZM40 -15 q38 40 62 76 q-12 -36 -62 -76 l0 0 Z" /><glyph glyph-name="" unicode="-" d="M216 225 q-33 5 -66 5 q-18 0 -36 -2 q-18 -2 -36 -4 q-13 -4 -18 -26 q-4 -23 -4 -37 q0 -5 1 -8 q1 -3 3 -3 q16 0 33 3 q18 3 35 3 q22 0 43 -4 q21 -3 38 -4 q9 1 13 13 q4 11 4 27 q0 14 -3 25 q-2 11 -7 12 l0 0 ZM84 215 q30 8 66 8 q6 0 12 0 q6 -1 13 -1 q-46 -3 -91 -7 l0 0 Z" /><glyph glyph-name="" unicode="." d="M92 80 q-5 8 -14 12 q-8 4 -17 4 q-22 -1 -41 -24 q-19 -23 -20 -56 q1 -15 12 -23 q12 -8 25 -8 q19 1 38 25 q19 23 20 58 q0 8 -3 12 l0 0 ZM14 48 q5 16 17 28 q12 12 28 14 q-13 -7 -25 -19 q-13 -13 -20 -23 l0 0 Z" /><glyph glyph-name="" unicode="/" d="M217 545 q-54 -145 -108 -290 q-54 -145 -109 -288 q1 -9 14 -22 q13 -14 30 -15 q5 0 9 3 q4 2 6 8 l228 575 q-1 13 -14 28 q-14 15 -35 16 q-7 0 -12 -3 q-6 -4 -9 -12 l0 0 ZM74 114 q19 70 51 155 q31 85 74 185 q-66 -174 -112 -305 l-13 -35 Z" /><glyph glyph-name="" unicode=":" d="M176 339 q-5 8 -14 12 q-8 4 -17 4 q-22 -1 -41 -24 q-19 -23 -20 -56 q1 -15 12 -23 q12 -8 25 -8 q19 1 38 25 q19 23 20 58 q0 8 -3 12 l0 0 ZM98 307 q5 16 17 28 q12 12 28 14 q-13 -7 -25 -19 q-13 -13 -20 -23 l0 0 ZM79 209 q-14 -9 -25 -31 q-10 -23 -11 -42 q1 -14 12 -23 q11 -8 25 -8 q20 1 38 25 q19 23 20 58 q-1 14 -11 21 q-10 7 -23 7 q-7 0 -13 -2 q-6 -2 -12 -5 l0 0 ZM57 168 q5 16 17 28 q12 12 28 14 q-13 -7 -25 -19 q-13 -13 -20 -23 l0 0 Z" /><glyph glyph-name="" unicode=";" d="M176 339 q-5 8 -14 12 q-8 4 -17 4 q-22 -1 -41 -24 q-19 -23 -20 -56 q1 -15 12 -23 q12 -8 25 -8 q19 1 38 25 q19 23 20 58 q0 8 -3 12 l0 0 ZM98 307 q5 16 17 28 q12 12 28 14 q-13 -7 -25 -19 q-13 -13 -20 -23 l0 0 ZM89 194 q-12 -23 -28 -50 q-16 -28 -34 -47 q-1 -1 -2 -3 q0 -2 0 -4 q0 -7 6 -15 q5 -7 14 -8 q28 4 62 45 q33 40 36 65 q0 14 -9 23 q-9 10 -21 10 q-7 0 -13 -4 q-6 -4 -11 -12 l0 0 ZM76 95 q38 40 62 76 q-12 -36 -62 -76 l0 0 Z" /><glyph glyph-name="" unicode="&lt;" d="M354 256 q31 9 56 45 q24 35 25 61 q0 7 -3 11 q-3 4 -9 4 q-6 0 -18 -6 q-58 -31 -125 -49 q-67 -18 -134 -31 l-33 -7 q-26 -6 -45 -28 q-19 -22 -20 -49 q0 -6 1 -12 q1 -6 4 -11 q25 -29 127 -80 q102 -50 113 -56 q24 3 53 31 q29 29 32 50 q0 5 -2 7 q-2 2 -2 2 q-22 7 -98 34 q-77 27 -103 43 q17 5 49 12 q32 7 44 10 l88 19 ZM280 78 q-70 27 -183 99 q147 -72 183 -99 l0 0 Z" /><glyph glyph-name="" unicode="&gt;" d="M83 162 q-31 -9 -55 -45 q-25 -36 -26 -62 q0 -6 3 -10 q2 -4 8 -4 q7 0 19 6 q56 30 120 48 q65 17 129 30 l43 9 q26 6 45 28 q19 22 20 49 q0 12 -5 23 q-26 30 -128 80 q-101 51 -113 56 q-24 -3 -53 -31 q-28 -29 -31 -50 q0 -4 2 -7 q2 -2 2 -2 q22 -7 98 -34 q77 -27 103 -43 q-17 -5 -49 -12 q-32 -7 -44 -10 l-88 -19 ZM157 340 q71 -27 183 -99 q-147 72 -183 99 l0 0 Z" /><glyph glyph-name="" unicode="?" d="M138 183 q-29 -28 -46 -50 q-18 -21 -18 -42 q1 -20 12 -31 q11 -12 23 -12 q5 0 9 3 q4 3 6 8 q40 72 123 146 q82 74 92 156 q0 32 -20 63 q-21 30 -63 32 q-54 -2 -100 -42 q-47 -40 -74 -95 q-2 -4 -3 -8 q-1 -4 -1 -8 q1 -17 11 -30 q10 -13 23 -14 q8 0 14 6 q6 5 10 18 q15 41 46 82 q31 40 66 43 q12 -1 17 -11 q5 -10 5 -20 q-2 -32 -26 -68 q-25 -36 -42 -56 q-15 -18 -31 -35 q-16 -18 -33 -35 l0 0 ZM88 293 q-1 3 -1 7 q0 16 14 40 q15 25 44 57 q-45 -54 -57 -104 l0 0 ZM325 356 q-4 -76 -120 -174 q87 80 120 174 l0 0 ZM75 3 q-14 -9 -25 -31 q-10 -23 -11 -42 q1 -15 12 -23 q12 -8 25 -8 q19 1 38 25 q19 23 20 58 q-1 14 -11 21 q-11 7 -23 7 q-7 0 -13 -2 q-6 -2 -12 -5 l0 0 ZM53 -38 q5 16 17 28 q12 12 28 14 q-13 -7 -25 -19 q-13 -13 -20 -23 l0 0 Z" /><glyph glyph-name="" unicode="=" d="M319 341 q-24 2 -48 4 q-25 1 -49 1 q-49 0 -99 -6 q-13 -3 -19 -22 q-7 -19 -7 -37 q0 -6 1 -10 q1 -4 4 -4 q21 0 45 3 q23 3 47 3 q32 -1 64 -4 q31 -4 58 -5 q10 0 15 10 q4 10 4 24 q0 16 -5 29 q-4 13 -11 14 l0 0 ZM126 327 q21 5 44 7 q23 3 48 3 q34 0 73 -5 q-11 0 -21 1 q-11 0 -22 0 q-61 0 -122 -6 l0 0 ZM287 228 q-48 5 -98 5 q-50 0 -98 -5 q-13 -3 -20 -23 q-7 -20 -7 -38 q0 -7 1 -10 q1 -4 4 -4 q22 4 46 5 q24 2 48 2 q32 -1 62 -4 q31 -4 57 -5 q11 0 16 11 q5 10 5 25 q0 16 -5 28 q-4 12 -11 13 l0 0 ZM94 215 q20 5 43 7 q23 3 48 3 q18 0 36 -1 q19 -2 38 -4 q-11 0 -21 1 q-11 0 -22 0 q-61 0 -122 -6 l0 0 Z" /><glyph glyph-name="" unicode="@" d="M487 375 q-13 66 -58 100 q-45 35 -111 35 q-130 -8 -222 -134 q-92 -127 -96 -276 q0 -70 36 -123 q35 -54 106 -57 q64 3 90 39 q26 36 25 65 q0 18 -6 29 q-5 11 -13 11 q-3 0 -6 -2 q-4 -3 -7 -9 q-15 -24 -36 -39 q-22 -15 -46 -15 l-8 0 q-37 5 -54 32 q-16 28 -16 68 q1 49 18 101 q17 52 38 89 q34 61 85 109 q52 48 115 51 q59 -2 83 -36 q25 -33 24 -78 q-2 -67 -35 -130 q-32 -63 -72 -68 q-6 0 -12 2 q-7 2 -10 2 l4 16 q7 28 21 56 q14 28 28 54 q3 7 3 13 q-1 13 -9 23 q-9 10 -19 15 q-1 36 -17 53 q-17 17 -39 17 q-54 -6 -104 -86 q-50 -81 -54 -161 q0 -22 11 -41 q10 -20 28 -21 l4 0 q17 2 31 13 q14 10 31 22 q5 3 10 5 q5 2 11 5 q6 -38 25 -47 q18 -9 36 -7 q87 8 138 98 q51 89 52 169 q0 20 -3 38 l0 0 ZM39 -14 q-13 25 -19 54 q-6 28 -6 59 q0 42 12 90 q11 48 35 101 q-41 -103 -41 -192 q0 -30 5 -58 q5 -28 14 -54 l0 0 ZM240 338 q-4 -4 -8 -9 q-3 -4 -7 -9 l-19 -22 q-9 -12 -12 -13 q0 0 1 2 q0 1 1 2 l5 8 q1 2 3 5 q1 2 3 5 l6 7 q7 8 15 15 q7 7 15 13 q0 0 -3 -4 l0 0 ZM175 276 q5 17 20 37 q15 20 38 41 q-11 -14 -25 -32 q-15 -17 -23 -32 l-7 -13 q-2 -4 -3 -6 q-1 -2 -1 -2 q0 0 0 3 q0 2 1 4 l0 0 ZM218 114 q12 11 21 21 l0 -11 l-21 -10 ZM260 244 q-1 -2 -1 -3 q-1 -2 -1 -4 q0 -4 2 -7 q2 -3 4 -5 q-5 -14 -43 -55 q-39 -41 -52 -46 q-3 0 -3 4 q5 32 48 113 q44 81 66 91 q1 0 2 0 q2 -1 2 -4 q-1 -13 -8 -40 q-8 -28 -16 -44 l0 0 ZM275 148 q0 6 2 11 q1 6 3 10 l10 31 q6 18 13 34 l11 29 q1 3 4 8 q2 4 4 4 q0 -2 -1 -4 q-1 -3 -2 -4 l-4 -10 q-5 -22 -16 -44 q-11 -22 -17 -43 l-7 -22 ZM384 490 q30 -6 50 -30 q20 -25 29 -67 q-11 31 -30 55 q-20 25 -49 42 l0 0 Z" /><glyph glyph-name="" unicode="[" d="M248 530 q-23 1 -53 -7 q-30 -7 -44 -35 q-18 -41 -44 -115 q-26 -73 -52 -157 q-24 -76 -39 -143 q-15 -67 -16 -109 q0 -9 1 -16 q3 -18 13 -26 q10 -7 24 -7 q24 1 51 11 q26 11 44 17 q8 3 12 13 q4 9 4 21 q0 21 -7 39 q-7 18 -18 19 q-3 0 -6 -2 q-9 -7 -20 -12 q-10 -6 -21 -6 q-3 1 -6 1 q4 43 24 105 q20 62 34 105 q16 50 32 101 q16 50 34 100 q7 10 32 15 q25 6 39 8 q2 1 3 1 q12 2 17 10 q5 7 5 16 q-1 18 -14 35 q-13 16 -29 18 l0 0 ZM25 48 q20 98 51 195 q30 97 70 193 q-63 -180 -121 -388 l0 0 Z" /><glyph glyph-name="" unicode="]" d="M290 503 q-2 18 -12 26 q-10 7 -25 7 q-24 -1 -51 -12 q-27 -11 -45 -17 q-8 -3 -12 -12 q-3 -9 -3 -21 q0 -21 8 -39 q7 -18 17 -19 q10 1 24 10 q14 8 27 9 q1 0 1 -3 q-4 -32 -29 -116 q-26 -84 -29 -91 q-16 -50 -31 -102 q-16 -51 -35 -100 q-7 -10 -34 -16 q-28 -5 -39 -7 q-12 -2 -17 -10 q-5 -7 -5 -16 q1 -18 13 -36 q13 -17 29 -18 q23 -1 54 7 q30 8 44 36 q37 87 91 257 q54 170 59 269 l0 14 ZM150 18 q32 90 63 187 q30 97 59 201 q-20 -98 -51 -195 q-30 -97 -71 -193 l0 0 Z" /><glyph glyph-name="" unicode="\" d="M29 528 q47 -146 95 -293 q48 -148 95 -294 q2 -4 10 -7 q7 -2 18 -2 q13 0 24 4 q10 5 11 15 q0 3 -1 6 q-45 148 -90 295 q-45 147 -90 297 q-3 7 -12 10 q-9 4 -21 4 q-16 0 -28 -6 q-12 -7 -13 -20 q0 -4 2 -9 l0 0 ZM185 102 q-57 135 -114 344 q32 -101 61 -187 q29 -86 53 -157 l0 0 Z" /><glyph glyph-name="" unicode="^" d="M231 450 q-5 52 -11 101 q-6 50 -8 103 q0 19 -12 31 q-11 13 -28 13 q-33 -7 -69 -82 q-36 -75 -71 -132 q-4 -6 -4 -13 q1 -19 16 -38 q14 -19 29 -20 q9 8 37 76 q27 67 48 105 q4 -61 4 -116 q0 -54 31 -58 q16 0 27 9 q11 8 11 21 l0 0 ZM55 506 q12 33 76 147 q-42 -97 -76 -147 l0 0 Z" /><glyph glyph-name="" unicode="_" d="M250 48 q-23 2 -47 4 q-24 1 -47 1 q-26 0 -51 -1 q-26 -2 -51 -5 q-13 -3 -20 -22 q-7 -19 -7 -37 q0 -14 6 -14 q23 5 45 7 q22 2 42 2 q31 -1 62 -6 q31 -5 64 -6 q10 0 15 10 q5 10 5 24 q0 16 -5 29 q-4 13 -11 14 l0 0 ZM62 35 q17 4 37 6 q19 2 39 2 q39 0 82 -7 q-36 3 -72 3 q-44 0 -86 -4 l0 0 Z" /><glyph glyph-name="" unicode="`" d="M248 730 q0 4 -1 5 q-1 2 -3 2 q-4 0 -8 -8 q-4 -8 -4 -20 q0 -14 9 -30 q9 -16 33 -31 q22 -12 41 -26 q19 -13 26 -31 q2 -6 5 -6 q7 1 14 16 q6 14 7 26 q0 2 0 3 q-1 1 -1 2 q-20 32 -65 57 q-46 24 -53 41 l0 0 Z" /><glyph glyph-name="" unicode="" d="M526 582 q-9 -12 -14 -13 q-5 0 -13 -2 l-3 -3 q-54 -90 -112 -177 q-57 -87 -124 -168 q-7 3 -15 7 l-6 3 q-35 19 -75 35 q-40 15 -85 16 q-22 0 -37 -8 q-16 -9 -26 -24 l-3 -7 q-5 -9 -9 -20 q-4 -11 -4 -18 q0 -3 2 -3 q2 0 2 -3 q0 -2 -2 -3 q-1 -2 -2 -3 q3 -5 6 -10 q3 -5 9 -5 q5 1 15 4 q9 3 24 3 q43 0 77 -8 q34 -8 69 -20 q-26 -23 -59 -47 q-32 -23 -35 -35 q1 -14 17 -18 q16 -5 31 -17 l10 -3 q5 -1 11 -2 q6 0 12 0 q34 4 61 29 q27 24 50 55 q27 -12 58 -28 q31 -17 54 -35 q6 -50 27 -88 q22 -38 66 -40 q24 1 48 17 q25 16 27 39 q0 7 -6 9 q-5 2 -13 2 q-33 1 -47 37 q-14 35 -14 93 q2 107 33 225 q32 118 74 175 q2 3 4 6 q1 4 1 8 q-1 19 -19 38 q-19 19 -41 20 q-13 0 -24 -13 l0 0 ZM23 245 q18 27 59 27 q32 0 77 -17 q-39 10 -69 10 q-21 0 -38 -5 q-17 -5 -29 -15 l0 0 ZM303 194 l-4 3 q18 24 54 76 q36 52 41 58 q-15 -17 -43 -64 q-28 -47 -42 -66 l-6 -7 ZM319 184 l-4 3 q23 28 49 65 q26 37 54 81 q-23 -39 -52 -82 q-29 -43 -47 -67 l0 0 ZM424 294 q-5 -29 -11 -73 q-6 -44 -7 -94 q-16 12 -35 25 q-20 12 -36 23 q23 34 47 68 q24 34 45 70 l-3 -19 ZM483 72 q-3 32 -3 65 q0 66 12 134 q13 69 39 140 q-26 -90 -37 -174 q-11 -84 -11 -165 l0 0 ZM657 664 q2 -1 3 -2 q1 0 2 0 q3 0 3 3 q0 9 -13 22 q-13 13 -39 14 q-24 -2 -54 -15 q-30 -14 -55 -16 q-5 0 -10 2 q-5 1 -8 1 q-3 0 -4 -1 q-1 -2 -1 -4 q1 -19 16 -30 q14 -12 24 -12 q33 2 71 20 q38 17 58 19 q4 0 7 -1 l0 0 Z" /><glyph glyph-name="" unicode="{" d="M267 516 q-11 2 -24 4 q-12 2 -26 2 q-73 -5 -103 -72 q-31 -67 -53 -141 q-6 -13 -22 -21 q-16 -9 -18 -30 q1 -12 5 -24 q4 -12 5 -22 q-2 -56 -15 -109 q-14 -54 -16 -97 q-1 -36 22 -58 q23 -21 84 -22 q14 1 21 18 q8 16 8 34 q0 10 -3 16 q-3 7 -9 7 q-6 0 -13 -1 q-6 -2 -13 -2 q-16 -1 -27 8 q-11 8 -11 31 q2 58 18 110 q15 52 17 108 q14 25 24 50 q10 26 18 53 q7 29 22 56 q14 26 45 28 q12 0 23 -3 q10 -4 18 -4 q17 1 28 19 q10 18 10 37 q0 10 -4 17 q-3 7 -11 8 l0 0 ZM116 431 q27 77 101 84 q-38 -14 -63 -35 q-25 -21 -38 -49 l0 0 Z" /><glyph glyph-name="" unicode="}" d="M177 523 q-14 -1 -22 -19 q-8 -17 -8 -36 q0 -9 3 -15 q2 -6 8 -6 q5 0 12 1 q7 1 14 1 q17 1 28 -7 q12 -9 12 -32 q0 -19 -5 -39 q-5 -21 -8 -35 q-9 -37 -15 -72 q-7 -35 -7 -71 q-15 -25 -25 -50 q-10 -26 -18 -53 q0 -1 0 -2 q-1 -2 -1 -3 q-8 -30 -22 -54 q-14 -24 -44 -25 q-12 0 -23 4 q-10 3 -18 3 q-17 -1 -28 -19 q-10 -19 -10 -38 q1 -21 17 -26 q16 -5 36 -4 l11 0 q63 3 94 56 q31 53 52 126 l10 31 q6 11 22 20 q17 10 19 29 q-1 12 -5 25 q-4 12 -5 23 q2 55 16 109 q13 54 15 97 q1 37 -21 59 q-23 21 -84 22 l0 0 ZM65 -61 q75 28 101 85 q-14 -39 -39 -60 q-25 -21 -62 -25 l0 0 Z" /><glyph glyph-name="" unicode="|" d="M99 639 q-18 -152 -35 -306 q-17 -154 -36 -307 q1 -8 15 -17 q14 -8 30 -9 q8 0 12 3 q5 4 6 12 l82 613 q-1 12 -16 22 q-15 9 -33 10 q-9 0 -17 -4 q-7 -5 -8 -17 l0 0 ZM64 187 q5 146 39 360 q-13 -106 -22 -195 q-10 -90 -17 -165 l0 0 Z" /><glyph glyph-name="" unicode="&#x20ac;" d="M266 509 q-44 -26 -88 -81 q-44 -55 -78 -124 l-18 0 q-24 1 -44 -8 q-19 -9 -20 -43 q0 -12 6 -12 q11 3 21 6 q10 2 20 2 q2 0 4 0 q2 -1 4 -1 q0 -6 -5 -19 q-4 -14 -6 -19 q-24 1 -43 -6 q-18 -8 -19 -43 q0 -13 6 -13 q23 6 45 7 q-1 -8 -2 -17 q-1 -8 -1 -16 q0 -57 31 -92 q30 -35 96 -41 q44 5 76 37 q31 31 49 87 q3 10 3 16 q0 4 -2 6 q-1 2 -5 2 q-3 1 -9 -2 q-31 -40 -57 -53 q-26 -12 -48 -11 q-31 0 -45 14 q-13 15 -13 46 q0 12 2 24 q17 -2 35 -5 q18 -4 36 -4 q10 0 14 8 q4 8 4 19 q-1 25 -15 33 q-14 8 -33 7 q-15 0 -27 -1 q6 17 13 35 q14 -2 30 -5 q16 -3 33 -3 q10 0 14 8 q4 8 4 19 q-1 26 -12 33 q-12 6 -28 5 l-16 0 q33 63 70 108 q37 44 64 46 q7 0 11 -3 q3 -4 3 -9 q-2 -25 -18 -44 q-17 -20 -19 -25 q0 -4 6 -7 q5 -2 14 -2 q27 0 50 14 q23 14 24 42 q-1 37 -27 65 q-25 28 -59 29 q-16 0 -31 -9 l0 0 ZM126 319 q29 83 125 162 q-84 -79 -125 -162 l0 0 Z" /><glyph glyph-name="" unicode="&#x201a;" d="M53 84 q-12 -23 -28 -50 q-16 -28 -34 -47 q-1 -1 -2 -3 q0 -2 0 -4 q0 -7 6 -15 q5 -7 14 -8 q28 4 62 45 q33 40 36 65 q0 14 -9 23 q-9 10 -21 10 q-7 0 -13 -4 q-6 -4 -11 -12 l0 0 ZM40 -15 q38 40 62 76 q-12 -36 -62 -76 l0 0 ZM53 84 q-12 -23 -28 -50 q-16 -28 -34 -47 q-1 -1 -2 -3 q0 -2 0 -4 q0 -7 6 -15 q5 -7 14 -8 q28 4 62 45 q33 40 36 65 q0 14 -9 23 q-9 10 -21 10 q-7 0 -13 -4 q-6 -4 -11 -12 l0 0 ZM40 -15 q38 40 62 76 q-12 -36 -62 -76 l0 0 Z" /><glyph glyph-name="" unicode="&#x201e;" d="M147 85 q-12 -23 -28 -50 q-16 -28 -34 -47 q-1 -1 -2 -3 q0 -2 0 -4 q0 -7 6 -15 q5 -7 14 -8 q28 4 62 45 q33 40 36 65 q0 14 -9 23 q-9 10 -21 10 q-7 0 -13 -4 q-6 -4 -11 -12 l0 0 ZM134 -14 q38 40 62 76 q-12 -36 -62 -76 l0 0 ZM53 84 q-12 -23 -28 -50 q-16 -28 -34 -47 q-1 -1 -2 -3 q0 -2 0 -4 q0 -7 6 -15 q5 -7 14 -8 q28 4 62 45 q33 40 36 65 q0 14 -9 23 q-9 10 -21 10 q-7 0 -13 -4 q-6 -4 -11 -12 l0 0 ZM40 -15 q38 40 62 76 q-12 -36 -62 -76 l0 0 Z" /><glyph glyph-name="" unicode="&#x2026;" d="M92 80 q-5 8 -14 12 q-8 4 -17 4 q-22 -1 -41 -24 q-19 -23 -20 -56 q1 -15 12 -23 q12 -8 25 -8 q19 1 38 25 q19 23 20 58 q0 8 -3 12 l0 0 ZM14 48 q5 16 17 28 q12 12 28 14 q-13 -7 -25 -19 q-13 -13 -20 -23 l0 0 ZM217 80 q-5 8 -14 12 q-8 4 -17 4 q-22 -1 -41 -24 q-19 -23 -20 -56 q1 -15 12 -23 q12 -8 25 -8 q19 1 38 25 q19 23 20 58 q0 8 -3 12 l0 0 ZM139 48 q5 16 17 28 q12 12 28 14 q-13 -7 -25 -19 q-13 -13 -20 -23 l0 0 ZM347 80 q-5 8 -14 12 q-8 4 -17 4 q-22 -1 -41 -24 q-19 -23 -20 -56 q1 -15 12 -23 q12 -8 25 -8 q19 1 38 25 q19 23 20 58 q0 8 -3 12 l0 0 ZM269 48 q5 16 17 28 q12 12 28 14 q-13 -7 -25 -19 q-13 -13 -20 -23 l0 0 Z" /><glyph glyph-name="" unicode="&#x2020;" d="M98 639 q-18 -152 -35 -306 q-17 -154 -36 -307 q1 -8 15 -17 q14 -8 30 -9 q8 0 12 3 q5 4 6 12 l82 613 q-1 12 -16 22 q-15 9 -33 10 q-9 0 -17 -4 q-7 -5 -8 -17 l0 0 ZM63 187 q5 146 39 360 q-13 -106 -22 -195 q-10 -90 -17 -165 l0 0 ZM159 225 q-33 5 -66 5 q-18 0 -36 -2 q-18 -2 -36 -4 q-13 -4 -18 -26 q-4 -23 -4 -37 q0 -5 1 -8 q1 -3 3 -3 q16 0 33 3 q18 3 35 3 q22 0 43 -4 q21 -3 38 -4 q9 1 13 13 q4 11 4 27 q0 14 -3 25 q-2 11 -7 12 l0 0 ZM27 215 q30 8 66 8 q6 0 12 0 q6 -1 13 -1 q-46 -3 -91 -7 l0 0 Z" /><glyph glyph-name="" unicode="&#x2021;" d="M143 639 q-18 -152 -35 -306 q-17 -154 -36 -307 q1 -8 15 -17 q14 -8 30 -9 q8 0 12 3 q5 4 6 12 l82 613 q-1 12 -16 22 q-15 9 -33 10 q-9 0 -17 -4 q-7 -5 -8 -17 l0 0 ZM108 187 q5 146 39 360 q-13 -106 -22 -195 q-10 -90 -17 -165 l0 0 ZM249 372 q-24 2 -48 4 q-25 1 -49 1 q-49 0 -99 -6 q-13 -3 -19 -22 q-7 -19 -7 -37 q0 -6 1 -10 q1 -4 4 -4 q21 0 45 3 q23 3 47 3 q32 -1 64 -4 q31 -4 58 -5 q10 0 15 10 q4 10 4 24 q0 16 -5 29 q-4 13 -11 14 l0 0 ZM56 358 q21 5 44 7 q23 3 48 3 q34 0 73 -5 q-11 0 -21 1 q-11 0 -22 0 q-61 0 -122 -6 l0 0 ZM230 228 q-48 5 -98 5 q-50 0 -98 -5 q-13 -3 -20 -23 q-7 -20 -7 -38 q0 -7 1 -10 q1 -4 4 -4 q22 4 46 5 q24 2 48 2 q32 -1 62 -4 q31 -4 57 -5 q11 0 16 11 q5 10 5 25 q0 16 -5 28 q-4 12 -11 13 l0 0 ZM37 215 q20 5 43 7 q23 3 48 3 q18 0 36 -1 q19 -2 38 -4 q-11 0 -21 1 q-11 0 -22 0 q-61 0 -122 -6 l0 0 Z" /><glyph glyph-name="" unicode="&#x2030;" d="M531 278 q-7 4 -14 6 q-7 2 -14 2 q-51 -5 -93 -74 q-42 -68 -45 -135 q0 -30 15 -49 q14 -18 41 -19 q17 0 34 9 q17 10 31 27 q26 32 50 80 q24 47 26 91 q0 19 -7 35 q-8 16 -24 27 l0 0 ZM495 276 q-58 -42 -89 -93 q17 35 39 58 q22 23 50 35 l0 0 ZM435 63 q24 15 56 74 q-13 -35 -26 -53 q-14 -19 -30 -21 l0 0 ZM424 67 q-4 2 -4 9 q3 32 34 86 q31 55 52 61 q6 0 6 -9 q-3 -31 -36 -86 q-32 -55 -52 -61 l0 0 ZM64 366 q15 -11 33 -11 q18 0 35 9 q17 10 30 27 q26 33 50 80 q24 47 26 91 q0 24 -14 47 q-15 22 -45 24 q-51 -5 -93 -74 q-42 -69 -45 -136 q0 -19 6 -34 q5 -15 17 -23 l0 0 ZM111 410 q13 7 27 26 q14 18 30 48 q-13 -35 -27 -53 q-14 -19 -30 -21 l0 0 ZM185 570 q4 -1 4 -9 q-1 -17 -14 -43 q-12 -27 -17 -35 q-5 -11 -24 -39 q-19 -28 -31 -31 q-2 0 -4 3 q-1 2 -1 6 q3 36 35 89 q32 54 52 59 l0 0 ZM172 623 q-59 -42 -89 -93 q32 69 89 93 l0 0 ZM331 279 q-7 4 -14 6 q-7 2 -14 2 q-51 -5 -93 -74 q-42 -68 -45 -135 q0 -30 15 -49 q14 -18 41 -19 q17 0 34 9 q17 10 31 27 q26 32 50 80 q24 47 26 91 q0 19 -7 35 q-8 16 -24 27 l0 0 ZM295 277 q-58 -42 -89 -93 q17 35 39 58 q22 23 50 35 l0 0 ZM235 64 q24 15 56 74 q-13 -35 -26 -53 q-14 -19 -30 -21 l0 0 ZM224 68 q-4 2 -4 9 q3 32 34 86 q31 55 52 61 q6 0 6 -9 q-3 -31 -36 -86 q-32 -55 -52 -61 l0 0 ZM329 638 q-84 -146 -157 -293 q-73 -148 -135 -303 q-1 -2 -1 -5 q-1 -3 -1 -5 q1 -17 16 -28 q15 -11 28 -11 q6 0 9 4 q62 161 138 315 q76 154 165 301 q6 9 5 15 q-1 11 -11 17 q-11 5 -25 5 q-10 0 -19 -3 q-9 -3 -12 -9 l0 0 ZM128 225 q59 146 179 347 q-49 -93 -90 -174 q-42 -81 -77 -149 l-12 -24 Z" /><glyph glyph-name="" unicode="" d="M416 681 q2 -1 3 -2 q1 0 2 0 q3 0 3 3 q0 9 -13 22 q-13 13 -39 14 q-24 -2 -54 -15 q-30 -14 -55 -16 q-5 0 -10 2 q-5 1 -8 1 q-3 0 -4 -1 q-1 -2 -1 -4 q1 -19 16 -30 q14 -12 24 -12 q33 2 71 20 q38 17 58 19 q4 0 7 -1 l0 0 Z" /><glyph glyph-name="" unicode="" d="M225 497 q21 18 32 38 q10 21 10 41 q0 32 -27 58 q-26 26 -78 28 q-38 -1 -58 -25 q-20 -24 -20 -60 q1 -47 27 -75 q25 -28 56 -29 q29 0 58 24 l0 0 ZM176 647 q28 -19 41 -37 q13 -19 13 -37 q0 -20 -16 -40 q-16 -19 -46 -37 q-20 22 -30 43 q-10 20 -10 39 q0 21 12 39 q12 17 36 30 l0 0 Z" /><glyph glyph-name="" unicode="" d="M234 646 q-7 3 -15 4 q-8 1 -16 1 q-8 0 -13 -1 q-5 -1 -5 -3 q1 -2 6 -4 q5 -3 6 -8 q-1 -8 -9 -22 q-9 -13 -10 -28 q0 -6 8 -19 q9 -13 32 -15 q9 1 21 22 q13 20 14 43 q0 10 -4 18 q-5 7 -15 12 l0 0 ZM315 626 q-7 3 -15 4 q-8 1 -16 1 q-8 0 -13 -1 q-5 -1 -5 -3 q1 -2 6 -4 q5 -3 6 -8 q-1 -9 -9 -22 q-9 -13 -10 -28 q0 -7 9 -20 q9 -13 30 -14 q9 1 22 22 q13 20 14 43 q0 10 -4 18 q-5 7 -15 12 l0 0 Z" /><glyph glyph-name="" unicode="&#x2018;" d="M116 531 q-20 -20 -42 -49 q-22 -29 -24 -58 q1 -14 11 -23 q11 -9 22 -9 q6 0 10 2 q4 3 6 8 q8 29 20 55 q11 27 27 52 q1 3 1 6 q0 8 -5 15 q-5 7 -13 7 q-3 0 -6 -1 q-3 -1 -7 -5 l0 0 ZM57 430 q4 19 17 40 q13 22 35 45 q-33 -46 -52 -85 l0 0 Z" /><glyph glyph-name="" unicode="&#x2019;" d="M143 490 q-1 13 -10 22 q-9 9 -21 9 q-22 -4 -37 -49 q-15 -45 -35 -79 q-1 -1 -1 -2 q0 -2 0 -3 q0 -7 6 -14 q6 -7 14 -7 q23 5 52 49 q29 45 32 74 l0 0 ZM89 400 q30 48 49 87 q-7 -37 -49 -87 l0 0 Z" /><glyph glyph-name="" unicode="&#x201c;" d="M99 452 q8 24 20 55 q12 30 26 52 q1 2 1 5 q0 7 -5 14 q-6 7 -14 8 q-22 -4 -52 -48 q-30 -44 -33 -76 q0 -13 9 -22 q9 -9 21 -9 q8 0 15 5 q7 5 12 16 l0 0 ZM97 552 q-31 -47 -51 -86 q4 19 16 40 q13 21 35 46 l0 0 ZM108 460 q0 -14 10 -23 q9 -9 21 -9 q22 4 38 49 q15 45 35 79 q1 2 1 5 q0 7 -6 14 q-6 7 -14 7 q-23 -5 -53 -49 q-29 -44 -32 -73 l0 0 ZM163 549 q-16 -23 -28 -45 q-12 -21 -22 -41 q4 19 16 40 q12 22 34 46 l0 0 ZM108 460 q0 -14 10 -23 q9 -9 21 -9 q22 4 38 49 q15 45 35 79 q1 2 1 5 q0 7 -6 14 q-6 7 -14 7 q-23 -5 -53 -49 q-29 -44 -32 -73 l0 0 ZM163 549 q-16 -23 -28 -45 q-12 -21 -22 -41 q4 19 16 40 q12 22 34 46 l0 0 Z" /><glyph glyph-name="" unicode="&#x2022;" d="M293 386 q-9 14 -23 20 q-15 7 -32 7 q-38 -1 -67 -33 q-29 -31 -31 -78 q1 -27 22 -42 q20 -15 46 -15 q35 2 62 35 q27 34 29 82 q0 7 -1 13 q-2 6 -5 11 l0 0 ZM156 329 q9 29 30 50 q21 21 48 24 q-23 -14 -45 -35 q-21 -21 -33 -39 l0 0 Z" /><glyph glyph-name="" unicode="&#x2039;" d="M354 256 q31 9 56 45 q24 35 25 61 q0 7 -3 11 q-3 4 -9 4 q-6 0 -18 -6 q-58 -31 -125 -49 q-67 -18 -134 -31 l-33 -7 q-26 -6 -45 -28 q-19 -22 -20 -49 q0 -6 1 -12 q1 -6 4 -11 q25 -29 127 -80 q102 -50 113 -56 q24 3 53 31 q29 29 32 50 q0 5 -2 7 q-2 2 -2 2 q-22 7 -98 34 q-77 27 -103 43 q17 5 49 12 q32 7 44 10 l88 19 ZM280 78 q-70 27 -183 99 q147 -72 183 -99 l0 0 Z" /><glyph glyph-name="" unicode="&#x2c7;" d="M346 611 q-20 27 -50 67 q-29 40 -57 44 q-14 -1 -31 -10 q-17 -10 -19 -19 q0 -2 2 -3 q2 -2 6 -3 q37 -15 68 -64 q31 -50 74 -56 q44 6 71 51 q28 45 63 59 q6 2 6 5 q-1 7 -16 15 q-14 8 -26 9 q-24 -4 -49 -38 q-25 -35 -42 -57 l0 0 Z" /><glyph glyph-name="" unicode="&#x2d8;" d="M235 608 q47 -67 90 -67 q25 0 48 20 q24 20 47 59 q7 14 7 24 q0 8 -4 13 q-4 4 -9 4 q-4 0 -7 -3 q-3 -2 -4 -7 q-9 -25 -29 -39 q-20 -14 -47 -14 q-26 1 -46 17 q-20 16 -27 41 q4 6 4 10 q0 2 -2 4 q-2 1 -4 1 q-8 0 -16 -9 q-9 -8 -10 -25 q0 -6 2 -13 q2 -8 7 -16 l0 0 Z" /><glyph glyph-name="" unicode="&#x141;" d="M391 99 q-43 2 -87 3 q-44 1 -88 1 q-22 0 -44 0 q-23 0 -45 -1 l36 157 q20 -3 41 -7 q21 -4 41 -4 q10 0 15 10 q4 10 4 24 q-1 31 -15 41 q-14 9 -33 8 q-8 0 -15 0 q-8 -1 -15 -1 l-6 0 q15 62 29 123 q14 62 29 123 q-1 10 -16 19 q-14 9 -34 10 q-10 0 -18 -4 q-7 -5 -10 -15 l-54 -257 q-35 2 -58 -8 q-23 -9 -24 -54 q0 -8 2 -12 q1 -4 5 -4 q31 8 61 9 q-9 -40 -18 -81 q-8 -40 -18 -81 q-23 -3 -36 -22 q-12 -19 -12 -36 q0 -15 11 -15 q12 3 26 4 q3 -7 16 -13 q13 -7 27 -7 q10 0 17 6 q7 6 7 19 q32 2 62 2 q51 0 101 -4 q50 -4 104 -9 q21 0 30 9 q9 9 9 24 q0 16 -8 29 q-7 13 -19 14 l0 0 ZM159 502 q-10 -46 -19 -89 q-9 -43 -17 -84 l-6 0 q7 40 18 84 q10 43 24 89 l0 0 ZM93 177 l0 4 q1 18 5 48 q4 29 11 32 l-16 -84 ZM125 89 q2 3 23 4 q21 1 37 1 q5 0 7 0 q3 0 2 0 q34 0 71 -2 q36 -2 74 -5 q-63 3 -126 3 q-22 0 -44 0 q-22 0 -44 -1 l0 0 Z" /><glyph glyph-name="" unicode="&#x2d9;" d="M303 686 q4 -1 5 -4 q1 -2 1 -5 q-1 -11 -12 -28 q-10 -18 -12 -37 q0 -10 12 -26 q12 -16 39 -18 q12 2 28 28 q16 26 18 56 q-1 24 -19 35 q-18 11 -46 11 q-10 0 -16 -1 q-6 -2 -6 -5 q0 -1 2 -3 q2 -1 6 -3 l0 0 Z" /><glyph glyph-name="" unicode="" d="M380 -23 q19 -6 28 -16 q8 -9 8 -20 q0 -15 -12 -26 q-13 -10 -31 -11 q-11 0 -23 6 q-13 6 -24 22 q0 6 -1 10 q-1 3 -4 3 q-6 0 -13 -9 q-6 -9 -7 -21 q2 -26 27 -41 q25 -15 52 -15 q35 1 58 21 q23 21 24 51 q0 17 -10 34 q-10 17 -32 32 q-38 14 -38 30 q0 12 21 25 q-66 -19 -66 -40 q0 -17 43 -35 l0 0 Z" /><glyph glyph-name="" unicode="" d="M240 386 q-9 14 -23 20 q-15 7 -32 7 q-38 -1 -67 -33 q-29 -31 -31 -78 q1 -27 22 -42 q20 -15 46 -15 q35 2 62 35 q27 34 29 82 q0 7 -1 13 q-2 6 -5 11 l0 0 ZM103 329 q9 29 30 50 q21 21 48 24 q-23 -14 -45 -35 q-21 -21 -33 -39 l0 0 Z" /><glyph glyph-name="" unicode="&#x160;" d="M528 547 q-11 14 -26 22 q-16 7 -33 7 q-112 0 -226 -42 q-115 -43 -181 -133 q-11 -15 -18 -33 q-7 -18 -7 -36 q3 -43 43 -76 q40 -33 79 -53 q38 -20 82 -45 q45 -24 49 -45 q-29 -56 -82 -78 q-53 -23 -118 -22 q-8 0 -18 2 q-9 2 -17 6 q8 4 26 9 q17 5 24 6 q58 12 115 18 q9 1 16 10 q7 9 7 19 q0 5 -3 8 q-3 3 -10 3 q-69 -2 -146 -20 q-77 -17 -84 -68 q5 -41 50 -62 q46 -20 78 -20 q85 2 161 52 q75 50 97 130 q1 2 1 6 q1 3 1 6 q-4 37 -42 69 q-39 33 -69 51 q-36 22 -76 49 q-41 27 -44 52 q1 4 4 7 q50 55 136 101 q85 46 157 52 q-10 -22 -26 -42 q-15 -21 -35 -34 q-4 2 -8 5 q-4 2 -8 2 q-9 -3 -31 -33 q-22 -31 -37 -51 q-8 -11 -8 -23 q0 -15 10 -26 q9 -11 22 -12 q6 0 12 4 q30 20 57 45 q28 25 53 51 q24 23 55 60 q30 38 33 65 q0 10 -4 19 q-5 10 -11 18 l0 0 ZM367 82 q-73 -135 -261 -147 q180 21 261 147 l0 0 ZM88 417 q105 112 321 148 q-204 -48 -321 -148 l0 0 ZM297 638 q-20 27 -50 67 q-29 40 -57 44 q-14 -1 -31 -10 q-17 -10 -19 -19 q0 -2 2 -3 q2 -2 6 -3 q37 -15 68 -64 q31 -50 74 -56 q44 6 71 51 q28 45 63 59 q6 2 6 5 q-1 7 -16 15 q-14 8 -26 9 q-24 -4 -49 -38 q-25 -35 -42 -57 l0 0 Z" /><glyph glyph-name="" unicode="&#x15a;" d="M528 547 q-11 14 -26 22 q-16 7 -33 7 q-112 0 -226 -42 q-115 -43 -181 -133 q-11 -15 -18 -33 q-7 -18 -7 -36 q3 -43 43 -76 q40 -33 79 -53 q38 -20 82 -45 q45 -24 49 -45 q-29 -56 -82 -78 q-53 -23 -118 -22 q-8 0 -18 2 q-9 2 -17 6 q8 4 26 9 q17 5 24 6 q58 12 115 18 q9 1 16 10 q7 9 7 19 q0 5 -3 8 q-3 3 -10 3 q-69 -2 -146 -20 q-77 -17 -84 -68 q5 -41 50 -62 q46 -20 78 -20 q85 2 161 52 q75 50 97 130 q1 2 1 6 q1 3 1 6 q-4 37 -42 69 q-39 33 -69 51 q-36 22 -76 49 q-41 27 -44 52 q1 4 4 7 q50 55 136 101 q85 46 157 52 q-10 -22 -26 -42 q-15 -21 -35 -34 q-4 2 -8 5 q-4 2 -8 2 q-9 -3 -31 -33 q-22 -31 -37 -51 q-8 -11 -8 -23 q0 -15 10 -26 q9 -11 22 -12 q6 0 12 4 q30 20 57 45 q28 25 53 51 q24 23 55 60 q30 38 33 65 q0 10 -4 19 q-5 10 -11 18 l0 0 ZM367 82 q-73 -135 -261 -147 q180 21 261 147 l0 0 ZM88 417 q105 112 321 148 q-204 -48 -321 -148 l0 0 ZM436 675 q2 -2 4 -3 q2 0 3 0 q4 0 4 4 q0 12 -18 31 q-19 19 -56 21 q-35 -3 -78 -22 q-43 -20 -79 -23 q-6 0 -14 3 q-7 2 -12 2 q-7 0 -7 -8 q2 -27 22 -43 q21 -17 36 -17 q48 4 102 28 q54 25 83 28 q6 0 10 -1 l0 0 Z" /><glyph glyph-name="" unicode="&#x164;" d="M728 627 q-6 -2 -9 -8 q-26 -35 -119 -45 q-94 -11 -165 -12 q-6 0 -12 0 q-5 -1 -10 -1 q-6 10 -20 23 q-13 13 -30 14 q-16 -1 -23 -14 q-7 -14 -11 -26 q-77 -2 -141 -5 q-64 -3 -141 -3 q-25 -1 -36 -20 q-11 -18 -11 -37 q0 -8 2 -15 q3 -6 7 -8 q31 -5 91 -58 q61 -53 118 -116 q-1 -2 -2 -6 q-1 -3 -2 -6 q-17 -45 -41 -125 q-25 -80 -27 -148 q1 -46 20 -65 q19 -20 48 -19 q21 0 41 13 l5 4 l-5 4 q-11 8 -16 23 q-5 16 -5 36 q3 74 35 163 q31 89 49 128 q36 87 77 172 q16 -1 38 -1 q21 -1 47 -1 q98 -2 184 14 q85 17 91 82 q-1 25 -9 44 q-8 18 -18 19 l0 0 ZM230 544 q-55 -9 -108 -10 q-39 0 -76 6 q27 -2 56 -2 q60 0 128 6 l0 0 ZM105 480 q53 0 94 -1 q40 -1 93 -4 l-2 -3 q-30 -70 -59 -142 q-30 36 -66 82 q-37 46 -60 68 l0 0 ZM288 313 q-7 -18 -30 -89 q-24 -71 -31 -81 q1 5 11 39 q9 34 16 56 q8 25 15 43 q8 18 15 32 l2 5 l2 -5 ZM225 61 q23 177 131 357 q-92 -180 -131 -357 l0 0 ZM720 515 q20 19 20 55 q0 14 -3 31 q4 -12 6 -22 q2 -10 2 -19 q0 -31 -25 -45 l0 0 ZM423 637 q-18 25 -44 60 q-26 35 -51 38 q-13 -1 -28 -9 q-15 -9 -16 -16 q0 -2 2 -3 q1 -2 5 -3 q33 -13 61 -57 q27 -43 65 -49 q39 5 63 45 q24 40 56 52 q5 2 5 5 q-1 7 -14 14 q-13 6 -23 7 q-22 -3 -44 -34 q-22 -30 -37 -50 l0 0 Z" /><glyph glyph-name="" unicode="&#x17d;" d="M537 522 q-13 11 -31 22 q-19 11 -37 12 q-2 0 -3 0 q-2 -1 -4 -1 q-52 -14 -105 -25 q-53 -12 -101 -13 q-37 1 -70 15 q-33 15 -64 34 q-3 1 -4 1 q-8 -1 -10 -10 q-2 -9 -2 -15 q0 -55 30 -86 q30 -31 87 -31 q56 2 109 17 q54 15 109 25 q-72 -85 -141 -170 q-69 -84 -147 -161 q-15 5 -31 8 q-16 3 -32 3 q-48 -3 -69 -40 q-21 -38 -21 -80 q0 -23 9 -41 q9 -18 33 -19 q36 2 80 31 q44 28 74 53 q33 -29 64 -59 l11 -10 q36 -36 81 -72 q45 -35 87 -38 q37 2 75 27 q38 25 41 55 q0 7 -5 11 q-5 3 -11 3 q-8 0 -16 -3 q-8 -3 -13 -3 q-100 46 -158 78 q-58 32 -103 56 q87 77 165 163 q77 87 153 175 q4 4 6 10 q2 5 2 12 q-1 19 -13 37 q-12 18 -25 29 l0 0 ZM118 502 q20 -37 46 -50 q26 -14 62 -13 q33 0 77 6 q-51 -12 -85 -12 q-42 0 -65 18 q-24 17 -35 51 l0 0 ZM58 96 q8 6 17 9 q9 2 18 2 q12 0 24 -3 q-13 -14 -31 -26 q-18 -12 -33 -13 q-4 0 -6 2 q-3 2 -3 6 q0 6 5 13 q5 7 9 10 l0 0 ZM11 1 q7 -9 16 -13 q9 -4 21 -4 q36 0 98 38 q-32 -23 -57 -35 q-26 -11 -43 -11 q-26 0 -35 25 l0 0 ZM466 -117 q-3 -1 -6 -1 q-4 0 -7 0 q-71 0 -211 141 q147 -135 224 -140 l0 0 ZM191 155 q135 148 226 265 q-120 -166 -226 -265 l0 0 ZM347 633 q-20 27 -50 67 q-29 40 -57 44 q-14 -1 -31 -10 q-17 -10 -19 -19 q0 -2 2 -3 q2 -2 6 -3 q37 -15 68 -64 q31 -50 74 -56 q44 6 71 51 q28 45 63 59 q6 2 6 5 q-1 7 -16 15 q-14 8 -26 9 q-24 -4 -49 -38 q-25 -35 -42 -57 l0 0 Z" /><glyph glyph-name="" unicode="&#x179;" d="M537 522 q-13 11 -31 22 q-19 11 -37 12 q-2 0 -3 0 q-2 -1 -4 -1 q-52 -14 -105 -25 q-53 -12 -101 -13 q-37 1 -70 15 q-33 15 -64 34 q-3 1 -4 1 q-8 -1 -10 -10 q-2 -9 -2 -15 q0 -55 30 -86 q30 -31 87 -31 q56 2 109 17 q54 15 109 25 q-72 -85 -141 -170 q-69 -84 -147 -161 q-15 5 -31 8 q-16 3 -32 3 q-48 -3 -69 -40 q-21 -38 -21 -80 q0 -23 9 -41 q9 -18 33 -19 q36 2 80 31 q44 28 74 53 q33 -29 64 -59 l11 -10 q36 -36 81 -72 q45 -35 87 -38 q37 2 75 27 q38 25 41 55 q0 7 -5 11 q-5 3 -11 3 q-8 0 -16 -3 q-8 -3 -13 -3 q-100 46 -158 78 q-58 32 -103 56 q87 77 165 163 q77 87 153 175 q4 4 6 10 q2 5 2 12 q-1 19 -13 37 q-12 18 -25 29 l0 0 ZM118 502 q20 -37 46 -50 q26 -14 62 -13 q33 0 77 6 q-51 -12 -85 -12 q-42 0 -65 18 q-24 17 -35 51 l0 0 ZM58 96 q8 6 17 9 q9 2 18 2 q12 0 24 -3 q-13 -14 -31 -26 q-18 -12 -33 -13 q-4 0 -6 2 q-3 2 -3 6 q0 6 5 13 q5 7 9 10 l0 0 ZM11 1 q7 -9 16 -13 q9 -4 21 -4 q36 0 98 38 q-32 -23 -57 -35 q-26 -11 -43 -11 q-26 0 -35 25 l0 0 ZM466 -117 q-3 -1 -6 -1 q-4 0 -7 0 q-71 0 -211 141 q147 -135 224 -140 l0 0 ZM191 155 q135 148 226 265 q-120 -166 -226 -265 l0 0 ZM494 644 q2 -2 4 -3 q2 0 3 0 q5 0 5 5 q0 13 -19 33 q-20 19 -59 21 q-37 -3 -82 -23 q-45 -21 -82 -24 q-7 0 -15 3 q-7 2 -12 2 q-4 0 -6 -2 q-1 -2 -1 -6 q2 -28 23 -45 q21 -17 37 -17 q50 4 107 29 q56 25 86 29 q4 0 6 0 q3 -1 5 -2 l0 0 Z" /><glyph glyph-name="" unicode="&#x2013;" d="M313 350 q-24 2 -56 4 q-32 1 -68 1 q-39 0 -74 -1 q-35 -2 -61 -5 q-13 -3 -20 -22 q-7 -19 -7 -37 q0 -14 6 -14 q24 5 52 7 q28 2 57 2 q46 -1 90 -6 q44 -5 77 -6 q10 0 15 10 q5 10 5 24 q0 16 -5 29 q-4 13 -11 14 l0 0 ZM62 337 q18 4 47 6 q28 2 62 2 q31 0 61 -2 q29 -1 51 -5 q-18 2 -44 2 q-26 1 -54 1 q-36 0 -69 -1 q-32 -1 -54 -3 l0 0 Z" /><glyph glyph-name="" unicode="&#x2014;" d="M411 350 q-24 2 -70 4 q-47 1 -101 1 q-58 0 -109 -1 q-50 -2 -77 -5 q-13 -3 -20 -22 q-7 -19 -7 -37 q0 -14 6 -14 q24 5 62 7 q37 2 82 2 q69 -1 133 -6 q64 -5 97 -6 q10 0 15 10 q5 10 5 24 q0 16 -5 29 q-4 13 -11 14 l0 0 ZM62 337 q19 4 63 6 q44 2 96 2 q50 0 94 -2 q43 -1 66 -5 q-19 2 -56 2 q-38 1 -84 1 q-56 0 -106 -1 q-50 -1 -73 -3 l0 0 Z" /><glyph glyph-name="" unicode="&#x161;" d="M213 354 q-1 3 -4 8 q-3 6 -6 8 l-4 1 l-5 -3 q1 3 1 4 q0 3 -4 3 q-3 2 -5 2 q-26 -2 -75 -39 q-49 -37 -69 -81 q-4 -11 -5 -24 q-2 -13 -2 -27 q0 -40 10 -83 q9 -43 23 -74 q-19 12 -37 33 q-17 20 -33 33 l-3 1 q-10 -3 -15 -14 q-5 -10 -5 -23 q1 -19 19 -44 q19 -25 40 -39 q10 -6 29 -10 q18 -5 38 -5 q22 0 38 7 q16 7 17 24 q0 5 -1 11 q-12 36 -24 83 q-13 46 -14 89 q0 15 3 30 q20 15 49 39 q29 23 32 50 q0 5 -1 9 q6 8 10 16 q3 8 3 15 l0 0 ZM133 51 q-30 53 -30 117 q0 5 1 10 q0 4 0 9 q5 -73 29 -136 l0 0 ZM80 272 q15 29 50 48 q-31 -24 -50 -48 l0 0 ZM60 264 q14 26 37 49 q23 22 55 39 q-29 -22 -52 -44 q-23 -22 -40 -44 l0 0 ZM114 411 q-13 18 -33 45 q-19 26 -38 29 q-9 0 -21 -7 q-11 -6 -12 -13 q0 -1 1 -2 q1 -1 4 -2 q25 -10 46 -42 q20 -33 49 -37 q29 4 47 34 q19 30 42 39 q4 2 4 3 q-1 5 -11 10 q-9 6 -17 6 q-16 -2 -33 -25 q-17 -23 -28 -38 l0 0 ZM114 411 q-13 18 -33 45 q-19 26 -38 29 q-9 0 -21 -7 q-11 -6 -12 -13 q0 -1 1 -2 q1 -1 4 -2 q25 -10 46 -42 q20 -33 49 -37 q29 4 47 34 q19 30 42 39 q4 2 4 3 q-1 5 -11 10 q-9 6 -17 6 q-16 -2 -33 -25 q-17 -23 -28 -38 l0 0 Z" /><glyph glyph-name="" unicode="&#x203a;" d="M83 162 q-31 -9 -55 -45 q-25 -36 -26 -62 q0 -6 3 -10 q2 -4 8 -4 q7 0 19 6 q56 30 120 48 q65 17 129 30 l43 9 q26 6 45 28 q19 22 20 49 q0 12 -5 23 q-26 30 -128 80 q-101 51 -113 56 q-24 -3 -53 -31 q-28 -29 -31 -50 q0 -4 2 -7 q2 -2 2 -2 q22 -7 98 -34 q77 -27 103 -43 q-17 -5 -49 -12 q-32 -7 -44 -10 l-88 -19 ZM157 340 q71 -27 183 -99 q-147 72 -183 99 l0 0 Z" /><glyph glyph-name="" unicode="&#x15b;" d="M213 354 q-1 3 -4 8 q-3 6 -6 8 l-4 1 l-5 -3 q1 3 1 4 q0 3 -4 3 q-3 2 -5 2 q-26 -2 -75 -39 q-49 -37 -69 -81 q-4 -11 -5 -24 q-2 -13 -2 -27 q0 -40 10 -83 q9 -43 23 -74 q-19 12 -37 33 q-17 20 -33 33 l-3 1 q-10 -3 -15 -14 q-5 -10 -5 -23 q1 -19 19 -44 q19 -25 40 -39 q10 -6 29 -10 q18 -5 38 -5 q22 0 38 7 q16 7 17 24 q0 5 -1 11 q-12 36 -24 83 q-13 46 -14 89 q0 15 3 30 q20 15 49 39 q29 23 32 50 q0 5 -1 9 q6 8 10 16 q3 8 3 15 l0 0 ZM133 51 q-30 53 -30 117 q0 5 1 10 q0 4 0 9 q5 -73 29 -136 l0 0 ZM80 272 q15 29 50 48 q-31 -24 -50 -48 l0 0 ZM60 264 q14 26 37 49 q23 22 55 39 q-29 -22 -52 -44 q-23 -22 -40 -44 l0 0 ZM206 415 q2 -1 3 -2 q1 0 2 0 q3 0 3 3 q0 9 -13 22 q-13 13 -39 14 q-24 -2 -54 -15 q-30 -14 -55 -16 q-5 0 -10 2 q-5 1 -8 1 q-3 0 -4 -1 q-1 -2 -1 -4 q1 -19 16 -30 q14 -12 24 -12 q33 2 71 20 q38 17 58 19 q4 0 7 -1 l0 0 Z" /><glyph glyph-name="" unicode="&#x165;" d="M234 359 q4 1 5 10 q1 9 1 12 q0 22 -7 29 q-8 7 -27 6 q-12 0 -27 -2 q-4 0 -6 1 q-1 0 -1 0 q0 1 1 4 q0 2 1 4 q6 14 5 27 q-1 26 -13 44 q-12 18 -28 19 q-7 1 -22 -24 q-15 -24 -39 -82 q-22 0 -38 4 q-16 5 -21 16 q-3 4 -6 4 q-4 0 -7 -6 q-4 -5 -4 -12 q1 -21 18 -32 q17 -11 42 -15 q-24 -65 -42 -136 q-18 -71 -19 -129 q1 -51 19 -76 q18 -26 41 -26 q30 2 57 30 q26 27 42 53 q27 43 51 85 q23 42 25 53 q0 4 -5 4 q-35 -8 -71 -77 q-36 -69 -92 -103 q-3 13 -3 28 q2 60 28 139 q26 80 56 150 q15 0 29 1 q15 0 26 0 q23 0 31 -3 l0 0 ZM26 168 q5 43 18 92 q13 50 33 104 l4 -1 q-19 -55 -32 -104 q-14 -48 -23 -91 l0 0 ZM285 467 q-1 13 -10 22 q-9 9 -21 9 q-22 -4 -37 -49 q-15 -45 -35 -79 q-1 -1 -1 -2 q0 -2 0 -3 q0 -7 6 -14 q6 -7 14 -7 q23 5 52 49 q29 45 32 74 l0 0 ZM231 377 q30 48 49 87 q-7 -37 -49 -87 l0 0 Z" /><glyph glyph-name="" unicode="&#x17e;" d="M317 346 q-42 -12 -94 -12 q-23 0 -46 2 q-23 3 -43 7 q0 2 1 3 q0 1 0 2 q-1 14 -13 25 q-13 10 -28 11 q-17 -1 -30 -23 q-13 -21 -14 -50 q0 -11 3 -18 q4 -8 11 -11 q-21 -46 -45 -89 q-25 -44 -27 -60 q0 -5 3 -10 q2 -5 9 -5 q16 5 46 59 q31 54 52 95 q5 -2 38 -4 q32 -1 61 -1 q12 0 20 1 q8 0 8 0 q0 -2 -5 -6 q-5 -4 -9 -7 q-52 -49 -109 -101 q-56 -52 -86 -100 q-1 -2 -2 -5 q0 -4 0 -8 q0 -15 6 -31 q7 -16 21 -17 q11 0 24 3 q13 3 28 3 q51 -1 105 -14 q55 -14 87 -35 q1 -1 2 -1 q1 -1 2 -1 q12 2 25 23 q13 21 14 41 q-8 30 -88 43 q-81 13 -136 13 q52 51 120 111 q68 59 115 104 q6 6 6 15 q-1 18 -12 33 q-11 14 -20 15 l0 0 ZM148 19 q11 1 21 1 q17 0 33 -4 q15 -3 29 -10 q-18 6 -38 9 q-21 3 -45 4 l0 0 ZM257 13 q-32 10 -71 16 q-39 5 -83 7 q10 1 20 2 q10 0 20 0 q65 0 114 -25 l0 0 ZM207 305 q-28 -3 -40 -3 q-12 1 -18 4 l-4 4 q9 0 23 0 q15 -1 28 -1 q26 0 51 2 q-19 -4 -40 -6 l0 0 ZM225 398 q-13 18 -33 45 q-19 26 -38 29 q-9 0 -21 -7 q-11 -6 -12 -13 q0 -1 1 -2 q1 -1 4 -2 q25 -10 46 -42 q20 -33 49 -37 q29 4 47 34 q19 30 42 39 q4 2 4 3 q-1 5 -11 10 q-9 6 -17 6 q-16 -2 -33 -25 q-17 -23 -28 -38 l0 0 Z" /><glyph glyph-name="" unicode="&#x17a;" d="M317 346 q-42 -12 -94 -12 q-23 0 -46 2 q-23 3 -43 7 q0 2 1 3 q0 1 0 2 q-1 14 -13 25 q-13 10 -28 11 q-17 -1 -30 -23 q-13 -21 -14 -50 q0 -11 3 -18 q4 -8 11 -11 q-21 -46 -45 -89 q-25 -44 -27 -60 q0 -5 3 -10 q2 -5 9 -5 q16 5 46 59 q31 54 52 95 q5 -2 38 -4 q32 -1 61 -1 q12 0 20 1 q8 0 8 0 q0 -2 -5 -6 q-5 -4 -9 -7 q-52 -49 -109 -101 q-56 -52 -86 -100 q-1 -2 -2 -5 q0 -4 0 -8 q0 -15 6 -31 q7 -16 21 -17 q11 0 24 3 q13 3 28 3 q51 -1 105 -14 q55 -14 87 -35 q1 -1 2 -1 q1 -1 2 -1 q12 2 25 23 q13 21 14 41 q-8 30 -88 43 q-81 13 -136 13 q52 51 120 111 q68 59 115 104 q6 6 6 15 q-1 18 -12 33 q-11 14 -20 15 l0 0 ZM148 19 q11 1 21 1 q17 0 33 -4 q15 -3 29 -10 q-18 6 -38 9 q-21 3 -45 4 l0 0 ZM257 13 q-32 10 -71 16 q-39 5 -83 7 q10 1 20 2 q10 0 20 0 q65 0 114 -25 l0 0 ZM207 305 q-28 -3 -40 -3 q-12 1 -18 4 l-4 4 q9 0 23 0 q15 -1 28 -1 q26 0 51 2 q-19 -4 -40 -6 l0 0 ZM334 431 q2 -1 3 -2 q1 0 2 0 q3 0 3 3 q0 9 -13 22 q-13 13 -39 14 q-24 -2 -54 -15 q-30 -14 -55 -16 q-5 0 -10 2 q-5 1 -8 1 q-3 0 -4 -1 q-1 -2 -1 -4 q1 -19 16 -30 q14 -12 24 -12 q33 2 71 20 q38 17 58 19 q4 0 7 -1 l0 0 Z" /><glyph glyph-name="" unicode="&#x104;" d="M525 583 q-9 -12 -13 -12 q-5 0 -13 -3 l-4 -3 q-54 -90 -112 -178 q-58 -88 -124 -168 l-14 7 q-38 20 -79 37 q-42 16 -89 17 q-22 0 -37 -8 q-16 -9 -26 -24 l-3 -7 q-1 -1 -2 -2 q-1 -2 -1 -3 q-5 -8 -7 -18 q-3 -10 -3 -15 q0 -3 2 -3 q2 0 2 -3 q0 -2 -2 -3 q-1 -2 -2 -3 q3 -6 6 -10 q3 -5 9 -5 q6 1 16 4 q10 3 24 3 q33 0 62 -6 q29 -6 56 -14 l28 -8 q-31 -31 -67 -55 q-8 -8 -18 -13 q-9 -5 -10 -15 q1 -6 7 -8 q5 -2 6 -5 q1 -7 12 -12 q10 -6 17 -8 l16 -5 q5 -1 11 -2 q6 0 12 0 q34 4 61 29 q27 25 50 56 q28 -12 59 -29 q31 -17 54 -35 q4 -33 15 -61 q10 -27 28 -45 q-8 -12 -35 -22 q-22 -15 -33 -32 q-10 -16 -10 -33 q1 -31 26 -52 q25 -20 62 -21 q26 2 49 18 q23 15 25 39 q0 12 -7 21 q-6 9 -13 9 q-3 0 -4 -3 q-1 -4 -1 -10 q-11 -16 -23 -22 q-13 -6 -24 -6 q-18 1 -31 11 q-12 11 -13 26 q2 20 28 31 q26 10 46 25 q2 0 4 0 q2 -1 4 -1 q24 1 49 17 q25 16 27 39 q0 7 -5 9 q-4 2 -10 2 l-5 0 q-33 1 -47 37 q-14 36 -14 94 q2 107 34 226 q32 118 74 175 q2 3 4 6 q1 4 1 8 q-1 19 -19 38 q-19 19 -41 20 q-7 0 -13 -3 q-7 -3 -12 -10 l0 0 ZM21 245 q18 27 59 27 q32 0 78 -17 q-39 10 -69 10 q-44 0 -68 -20 l0 0 ZM302 194 l-4 2 q21 27 44 61 q23 35 51 75 q-6 -21 -25 -47 q-20 -26 -32 -44 q-8 -12 -15 -22 q-6 -10 -13 -18 l-6 -7 ZM318 184 l-4 3 q21 27 59 83 q39 56 44 63 q1 -1 -6 -7 q-7 -6 -35 -61 q-35 -51 -58 -81 l0 0 ZM423 294 q-6 -29 -11 -73 q-6 -45 -7 -95 q-15 12 -35 25 q-19 12 -36 23 q24 35 48 69 q23 34 44 70 l-3 -19 ZM482 72 q-3 30 -3 62 q0 134 51 278 q-26 -90 -37 -174 q-11 -85 -11 -166 l0 0 Z" /><glyph glyph-name="" unicode="&#x15e;" d="M528 547 q-11 14 -26 22 q-16 7 -33 7 q-112 0 -226 -42 q-115 -43 -181 -133 q-11 -15 -18 -33 q-7 -18 -7 -36 q3 -43 43 -76 q40 -33 79 -53 q38 -20 82 -45 q45 -24 49 -45 q-29 -56 -82 -78 q-53 -23 -118 -22 q-8 0 -18 2 q-9 2 -17 6 q8 4 26 9 q17 5 24 6 q58 12 115 18 q9 1 16 10 q7 9 7 19 q0 5 -3 8 q-3 3 -10 3 q-69 -2 -146 -20 q-77 -17 -84 -68 q5 -41 50 -62 q46 -20 78 -20 q85 2 161 52 q75 50 97 130 q1 2 1 6 q1 3 1 6 q-4 37 -42 69 q-39 33 -69 51 q-36 22 -76 49 q-41 27 -44 52 q1 4 4 7 q50 55 136 101 q85 46 157 52 q-10 -22 -26 -42 q-15 -21 -35 -34 q-4 2 -8 5 q-4 2 -8 2 q-9 -3 -31 -33 q-22 -31 -37 -51 q-8 -11 -8 -23 q0 -15 10 -26 q9 -11 22 -12 q6 0 12 4 q30 20 57 45 q28 25 53 51 q24 23 55 60 q30 38 33 65 q0 10 -4 19 q-5 10 -11 18 l0 0 ZM367 82 q-73 -135 -261 -147 q180 21 261 147 l0 0 ZM88 417 q105 112 321 148 q-204 -48 -321 -148 l0 0 ZM212 -120 q-43 18 -43 35 q0 21 66 40 q-21 -13 -21 -25 q0 -16 38 -30 q22 -15 32 -32 q10 -17 10 -34 q-1 -30 -24 -51 q-23 -20 -58 -21 q-27 0 -52 15 q-25 15 -27 41 q1 12 7 21 q7 9 13 9 q3 0 4 -3 q1 -4 1 -10 q11 -16 24 -22 q12 -6 23 -6 q18 1 31 11 q12 11 12 26 q0 11 -8 20 q-9 10 -28 16 l0 0 Z" /><glyph glyph-name="" unicode="&#x17b;" d="M537 522 q-13 11 -31 22 q-19 11 -37 12 q-2 0 -3 0 q-2 -1 -4 -1 q-52 -14 -105 -25 q-53 -12 -101 -13 q-37 1 -70 15 q-33 15 -64 34 q-3 1 -4 1 q-8 -1 -10 -10 q-2 -9 -2 -15 q0 -55 30 -86 q30 -31 87 -31 q56 2 109 17 q54 15 109 25 q-72 -85 -141 -170 q-69 -84 -147 -161 q-15 5 -31 8 q-16 3 -32 3 q-48 -3 -69 -40 q-21 -38 -21 -80 q0 -23 9 -41 q9 -18 33 -19 q36 2 80 31 q44 28 74 53 q33 -29 64 -59 l11 -10 q36 -36 81 -72 q45 -35 87 -38 q37 2 75 27 q38 25 41 55 q0 7 -5 11 q-5 3 -11 3 q-8 0 -16 -3 q-8 -3 -13 -3 q-100 46 -158 78 q-58 32 -103 56 q87 77 165 163 q77 87 153 175 q4 4 6 10 q2 5 2 12 q-1 19 -13 37 q-12 18 -25 29 l0 0 ZM118 502 q20 -37 46 -50 q26 -14 62 -13 q33 0 77 6 q-51 -12 -85 -12 q-42 0 -65 18 q-24 17 -35 51 l0 0 ZM58 96 q8 6 17 9 q9 2 18 2 q12 0 24 -3 q-13 -14 -31 -26 q-18 -12 -33 -13 q-4 0 -6 2 q-3 2 -3 6 q0 6 5 13 q5 7 9 10 l0 0 ZM11 1 q7 -9 16 -13 q9 -4 21 -4 q36 0 98 38 q-32 -23 -57 -35 q-26 -11 -43 -11 q-26 0 -35 25 l0 0 ZM466 -117 q-3 -1 -6 -1 q-4 0 -7 0 q-71 0 -211 141 q147 -135 224 -140 l0 0 ZM191 155 q135 148 226 265 q-120 -166 -226 -265 l0 0 ZM288 690 q4 -1 5 -4 q1 -2 1 -5 q-1 -11 -12 -28 q-10 -18 -12 -37 q0 -10 12 -26 q12 -16 39 -18 q12 2 28 28 q16 26 18 56 q-1 24 -19 35 q-18 11 -46 11 q-10 0 -16 -1 q-6 -2 -6 -5 q0 -1 2 -3 q2 -1 6 -3 l0 0 Z" /><glyph glyph-name="" unicode="&#x2122;" d="M253 619 q-13 -4 -24 -5 q-11 -1 -19 -1 q-36 1 -47 7 q-11 6 -11 7 q-4 -1 -5 -7 q-2 -6 -2 -10 q0 -13 12 -20 q12 -6 32 -6 q8 0 18 1 q9 1 18 3 q-17 -54 -41 -107 q-25 -53 -27 -69 q0 -10 4 -12 q4 -2 17 -2 l4 0 q3 0 3 3 q0 2 0 3 q-1 1 -2 2 q-2 -5 -4 -8 q-1 -2 -1 -3 q5 8 43 88 q37 80 42 107 q1 3 11 4 q9 1 12 1 q22 -1 27 -11 q5 -10 4 -12 q13 9 13 18 q-1 13 -17 22 q-16 10 -31 10 q-14 0 -29 -3 l0 0 ZM492 620 q-2 1 -4 1 q-3 0 -5 0 q-5 0 -10 -2 q-5 -3 -6 -5 q-45 -40 -70 -78 q-25 -39 -34 -66 q0 3 0 6 q-1 2 -1 5 q2 50 20 85 q17 34 19 36 q-1 13 -9 17 q-8 3 -9 3 q-3 0 -7 -2 q-23 -11 -77 -99 q-54 -87 -82 -100 q-1 0 -2 0 q-1 1 -2 2 q-1 -1 -1 -2 q-1 -1 -1 -2 q0 -3 7 -12 q7 -8 20 -9 q32 7 63 67 q31 60 47 91 q-12 -36 -18 -70 q-6 -34 -6 -53 q3 -21 11 -28 q9 -8 18 -7 q7 0 11 2 q5 2 5 2 q15 50 37 94 q23 45 59 79 q-15 -58 -33 -103 q-18 -46 -20 -53 q0 -11 7 -21 q7 -10 18 -12 q2 0 4 1 q1 1 1 3 q0 1 0 2 q-1 1 -2 2 q34 83 50 130 q15 48 15 70 q0 11 -3 18 q-4 6 -10 8 l0 0 Z" /><glyph glyph-name="" unicode="" d="M584 579 q-42 -12 -83 -36 q-42 -24 -93 -27 q-13 5 -26 7 q-13 2 -24 2 q-18 0 -29 -2 q-12 -3 -12 -3 q-4 0 -9 -1 q-5 -1 -11 -3 q-30 6 -54 16 q-25 10 -33 25 q-9 19 -19 27 q-10 8 -19 8 q-13 0 -21 -12 q-8 -11 -8 -27 q-1 -21 17 -42 q18 -22 61 -34 q-27 -20 -48 -62 q-22 -41 -23 -101 q0 -28 9 -51 q8 -24 22 -43 q-44 -15 -73 -41 q-30 -26 -31 -46 q0 -7 6 -11 q5 -4 18 -4 q40 3 57 24 q18 20 80 29 q23 -11 49 -18 q27 -7 58 -7 q10 0 20 1 q10 1 20 3 q35 -28 70 -46 q35 -18 54 -19 q11 0 11 9 q0 10 -15 32 q-15 22 -49 59 q30 28 48 74 q18 46 18 84 q-1 43 -17 75 q-16 33 -36 53 q83 17 101 60 q18 43 14 48 l0 0 ZM428 317 q-13 -61 -44 -96 q-31 -35 -65 -36 q-26 0 -49 29 q-23 29 -24 92 q2 69 37 125 q34 56 81 59 q23 1 45 -29 q22 -29 24 -96 q0 -24 -5 -48 l0 0 Z" /><glyph glyph-name="" unicode="" d="M219 535 q-47 -124 -46 -125 q1 -1 -46 -125 q1 -9 14 -22 q13 -14 30 -15 q5 0 9 3 q4 2 6 8 q49 123 51 124 q2 0 52 123 q-1 13 -14 28 q-14 15 -35 16 q-7 0 -12 -3 q-6 -4 -9 -12 l0 0 ZM143 287 q16 61 26 83 q10 22 50 113 q-34 -90 -44 -112 q-10 -22 -32 -84 l0 0 ZM92 217 q-47 -124 -46 -125 q1 -1 -46 -125 q1 -9 14 -22 q13 -14 30 -15 q5 0 9 3 q4 2 6 8 q49 123 51 124 q2 0 52 123 q-1 13 -14 28 q-14 15 -35 16 q-7 0 -12 -3 q-6 -4 -9 -12 l0 0 ZM16 -31 q16 61 26 83 q10 22 50 113 q-34 -90 -44 -112 q-10 -22 -32 -84 l0 0 Z" /><glyph glyph-name="" unicode="" d="M193 670 q-47 -12 -68 -43 q-21 -30 -21 -68 q0 -38 19 -72 q19 -34 52 -52 q-69 -3 -96 -30 q-27 -27 -26 -63 q1 -31 14 -60 q13 -28 29 -45 q31 -31 52 -68 q20 -37 21 -70 q0 -19 -10 -36 q-11 -17 -35 -18 q-46 5 -73 36 q-27 32 -38 36 q-4 0 -7 -11 q-2 -12 -2 -40 q1 -38 33 -59 q31 -21 76 -21 q47 0 85 26 q38 26 40 82 q-1 39 -21 70 q-20 32 -45 59 q45 0 82 26 q37 27 39 85 q-7 72 -59 122 q-53 50 -60 105 q1 34 20 58 q19 23 48 24 q12 0 30 -13 q19 -14 21 -47 q-1 -22 -11 -42 q-11 -20 -21 -32 q1 -3 14 -9 q13 -5 32 -6 q21 -1 38 14 q17 15 18 56 q1 40 -27 75 q-27 35 -93 37 q-23 0 -50 -6 l0 0 ZM208 285 q-11 -13 -23 -19 q-13 -5 -27 -5 q-22 2 -30 21 q-8 20 -8 38 q3 48 32 71 q30 22 56 28 q11 -10 18 -27 q7 -16 7 -36 q0 -18 -6 -36 q-6 -18 -19 -35 l0 0 Z" /><glyph glyph-name="" unicode="" d="M474 448 q-29 22 -58 31 q-29 9 -31 9 q-36 5 -75 5 q-96 -1 -174 -68 q-78 -67 -83 -182 q1 -63 27 -112 q25 -48 59 -73 q30 -28 75 -47 q45 -18 97 -19 q40 0 80 14 q41 15 79 48 q50 45 71 92 q20 47 19 92 q-5 89 -43 149 q-38 59 -43 61 l0 0 ZM448 136 q-38 -54 -79 -74 q-41 -20 -79 -19 q-80 -1 -127 39 q-47 40 -48 138 q0 32 13 70 q13 38 46 81 q32 41 69 58 q36 17 74 16 q81 2 130 -35 q50 -36 51 -131 q0 -31 -11 -67 q-12 -36 -39 -76 l0 0 ZM385 247 q1 1 10 19 q9 18 10 43 q-2 30 -28 51 q-27 22 -60 23 q-43 -2 -82 -52 q-40 -50 -43 -120 q0 -46 27 -81 q27 -35 78 -37 q36 2 51 25 q15 23 15 49 q0 4 -3 6 q-3 3 -13 3 q-8 0 -18 -4 q-10 -4 -16 -15 q-11 -21 -18 -26 q-7 -6 -17 -5 q-6 0 -11 11 q-6 10 -6 32 q0 16 4 37 q4 22 14 50 q20 52 32 71 q12 18 19 17 q3 0 6 -2 q3 -2 3 -7 q0 -8 -4 -21 q-3 -13 -4 -27 q-1 -16 11 -28 q11 -11 43 -12 l0 0 Z" /><glyph glyph-name="" unicode="" d="M248 180 q-23 22 -40 41 q-18 19 -30 35 q13 16 32 34 q19 17 42 39 q40 38 58 59 q18 21 18 43 q0 30 -5 43 q-6 12 -15 12 q-6 0 -13 -5 q-8 -4 -16 -12 q-29 -28 -90 -91 q-62 -62 -69 -70 q-2 0 -10 -15 q-8 -14 -9 -36 q1 -21 9 -35 q7 -14 8 -14 q7 -8 65 -73 q58 -65 86 -94 q15 -15 23 -16 q7 0 10 14 q3 15 3 48 q2 19 -7 37 q-10 18 -50 56 l0 0 ZM426 180 q-23 22 -40 41 q-18 19 -30 35 q13 16 32 34 q19 17 42 39 q40 38 58 59 q18 21 18 43 q0 30 -5 43 q-6 12 -15 12 q-6 0 -13 -5 q-8 -4 -16 -12 q-29 -28 -90 -91 q-62 -62 -69 -70 q-2 0 -10 -15 q-8 -14 -9 -36 q0 -29 36 -74 q36 -45 107 -114 q11 -11 22 -19 q12 -9 21 -9 q8 0 13 10 q5 11 5 36 q2 19 -7 37 q-10 18 -50 56 l0 0 Z" /><glyph glyph-name="" unicode="" d="M411 356 q-3 46 -27 56 q-23 10 -31 8 q0 0 -15 -1 q-15 -2 -39 -4 q-65 -6 -159 -15 q-93 -10 -120 -11 q-5 0 -5 -8 q-1 -11 17 -25 q17 -15 62 -16 q44 1 105 10 q61 9 104 10 q14 0 23 -2 q5 -13 7 -37 q1 -23 1 -50 q0 -24 0 -45 q-1 -22 -1 -34 q0 -7 4 -11 q4 -3 11 -3 q16 0 32 15 q17 14 18 39 q1 14 7 50 q6 35 7 62 q0 8 -1 12 l0 0 Z" /><glyph glyph-name="" unicode="" d="M416 625 q-21 16 -42 23 q-21 6 -23 6 q-24 4 -52 4 q-43 1 -85 -16 q-42 -18 -74 -69 q-15 -25 -21 -49 q-7 -24 -7 -47 q3 -86 57 -133 q55 -47 129 -48 q81 5 130 63 q49 58 50 114 q-4 64 -31 107 q-27 43 -31 45 l0 0 ZM403 395 q-29 -41 -61 -56 q-31 -15 -61 -14 q-26 1 -49 7 q-22 6 -38 11 q-10 16 -27 45 q-17 30 -19 73 q0 24 10 53 q11 29 36 62 q24 31 52 44 q28 12 58 12 q24 0 49 -6 q25 -6 49 -14 q14 -17 26 -44 q12 -26 13 -62 q0 -23 -8 -52 q-9 -28 -30 -59 l0 0 ZM327 442 q3 0 27 21 q24 20 27 59 q-2 45 -23 58 q-21 13 -44 11 l-40 0 q-10 0 -19 1 q-9 0 -19 3 q0 0 -2 -4 q-2 -5 -2 -11 q0 -7 4 -14 q4 -7 14 -12 l-42 -154 q0 -2 5 -15 q6 -13 21 -15 q7 0 16 5 l18 60 q0 -4 17 -28 q17 -25 45 -29 q9 0 19 5 q10 5 20 16 q-5 1 -22 14 q-18 14 -20 29 l0 0 ZM284 488 l14 54 q12 3 20 4 q8 1 13 1 q8 0 10 -2 q2 -1 2 -3 q-4 -34 -29 -45 q-26 -10 -30 -9 l0 0 Z" /><glyph glyph-name="" unicode="" d="M259 75 q-48 4 -98 4 q-25 0 -50 -1 q-25 -1 -50 -3 q-19 -3 -26 -21 q-6 -18 -6 -29 q0 -4 1 -6 q1 -3 5 -3 q23 0 47 3 q24 2 50 2 q32 0 62 -3 q30 -4 56 -4 q13 1 18 10 q6 9 6 21 q0 12 -4 20 q-4 9 -11 10 l0 0 ZM69 68 q20 3 44 5 q23 1 49 1 q8 0 19 0 q10 -1 19 -1 q-33 -1 -65 -2 q-33 -1 -66 -3 l0 0 ZM283 253 q-33 3 -64 4 q5 17 14 39 q9 21 10 38 q0 9 -7 12 q-7 3 -16 3 q-2 1 -22 -3 q-19 -3 -25 -16 q-5 -18 -11 -36 q-5 -19 -10 -37 q-33 1 -61 -6 q-29 -7 -31 -59 q0 -6 1 -9 q2 -4 4 -4 q17 0 35 2 q17 2 35 3 q-4 -18 -8 -38 q-5 -19 -5 -38 q1 -12 15 -18 q14 -6 28 -6 q8 0 13 2 q5 1 5 5 q5 47 17 92 q20 -1 40 -4 q20 -3 40 -3 q10 0 15 10 q4 10 4 24 q0 16 -5 29 q-4 13 -11 14 l0 0 ZM141 176 q-2 -12 -11 -66 q0 5 -1 9 q0 23 12 57 q0 1 1 2 q0 1 0 2 q0 -1 0 -2 q-1 -1 -1 -2 l0 0 ZM234 334 q-15 -55 -20 -67 q0 13 5 29 q5 17 15 38 l0 0 Z" /><glyph glyph-name="" unicode="&#x2db;" d="M284 -23 q19 -6 28 -16 q8 -9 8 -20 q0 -15 -12 -26 q-13 -10 -31 -11 q-11 0 -23 6 q-13 6 -24 22 q0 6 -1 10 q-1 3 -4 3 q-6 0 -13 -9 q-6 -9 -7 -21 q2 -26 27 -41 q25 -15 52 -15 q35 1 58 21 q23 21 24 51 q0 17 -10 34 q-10 17 -32 32 q-38 14 -38 30 q0 12 21 25 q-66 -19 -66 -40 q0 -17 43 -35 l0 0 Z" /><glyph glyph-name="" unicode="&#x142;" d="M186 197 q-26 -30 -54 -82 q-28 -52 -66 -76 q-1 5 -1 11 q-1 5 -1 12 q0 32 10 73 q9 42 24 88 q25 1 56 3 q31 2 34 24 q0 15 -7 27 q-7 11 -16 12 q-11 -1 -23 -2 q-12 -1 -23 -3 q24 63 47 117 q23 54 25 78 q-1 25 -13 43 q-12 18 -27 19 q-12 -2 -48 -77 q-36 -74 -72 -197 q-26 -4 -51 -12 q-25 -9 -27 -42 q0 -9 2 -15 q2 -6 6 -6 q13 1 28 7 q16 6 27 10 q-8 -32 -12 -62 q-4 -30 -4 -56 q0 -43 14 -70 q15 -26 49 -27 q49 7 88 77 q38 70 64 122 q8 15 8 21 q0 4 -5 4 q-5 0 -13 -6 q-9 -6 -19 -15 l0 0 ZM115 272 q5 1 11 2 q6 0 11 1 l-22 -3 ZM103 426 q-11 -35 -29 -92 q-19 -57 -27 -63 q11 37 25 76 q14 39 31 79 l0 0 ZM-18 245 q22 8 46 14 q-2 -4 -19 -8 q-18 -4 -27 -6 l0 0 ZM24 164 q1 12 4 29 q3 18 8 20 q-7 -27 -12 -49 l0 0 Z" /><glyph glyph-name="" unicode="" d="M442 469 q-3 -43 -19 -118 q-16 -75 -53 -183 q-4 -11 -7 -21 q-4 -10 -6 -20 q-29 -28 -54 -40 q-25 -12 -45 -12 q-29 1 -50 18 q-20 18 -33 39 q20 67 45 145 q16 49 24 86 q7 37 7 64 q-1 54 -17 78 q-17 24 -35 23 q-27 4 -29 -34 q-2 -38 -35 -166 q-29 -93 -73 -221 q-44 -127 -49 -225 q2 -39 28 -69 q25 -31 50 -33 q24 -6 24 51 q1 58 47 252 q18 -45 53 -62 q34 -17 73 -16 q13 0 18 1 q4 1 15 3 q24 -50 42 -77 q18 -28 31 -28 q17 -6 24 64 q6 71 71 295 q17 58 25 100 q7 42 7 71 l-79 35 Z" /><glyph glyph-name="" unicode="&#x105;" d="M347 198 q-24 -27 -49 -75 q-26 -48 -58 -79 q1 38 14 82 q13 43 33 83 q1 2 1 5 q1 3 1 5 q-1 16 -16 29 q-14 13 -29 19 q-7 40 -31 60 q-25 20 -53 20 q-62 -6 -110 -88 q-47 -83 -50 -175 q0 -25 15 -57 q16 -32 54 -35 q27 4 52 24 q25 19 43 41 q4 -23 15 -39 q11 -17 31 -23 l4 -2 q9 -3 18 -3 q6 0 13 2 q7 2 14 7 q36 36 79 118 q42 82 46 97 q0 5 -5 5 q-5 0 -13 -6 q-9 -6 -19 -15 l0 0 ZM128 290 q-20 -26 -35 -43 q-16 -17 -14 -18 q-1 2 8 16 q10 14 11 17 q9 11 20 21 q12 10 14 11 q0 0 -4 -4 l0 0 ZM67 234 q-3 -5 -6 -13 q-4 -9 -5 -11 q4 31 23 57 q20 26 38 41 q-5 -3 -23 -30 q-18 -28 -27 -44 l0 0 ZM172 182 q-2 -3 -2 -6 q0 -5 4 -10 q4 -4 7 -6 q-5 -18 -48 -64 q-43 -46 -58 -52 q-3 1 -3 7 q4 40 43 131 q39 90 66 101 q4 0 5 -3 q1 -3 1 -11 q0 -19 -4 -45 q-5 -27 -11 -42 l0 0 ZM230 154 q-5 -22 -12 -46 q-7 -23 -11 -37 q1 11 15 68 q14 57 16 65 q2 7 4 10 q3 3 4 3 q0 0 -1 -3 q0 -7 -4 -23 q-5 -17 -11 -37 l0 0 ZM234 -23 q-37 17 -37 30 q0 9 14 18 q14 9 42 17 q-18 -12 -18 -22 q0 -14 33 -26 q19 -13 28 -28 q8 -15 8 -29 q-1 -26 -20 -43 q-20 -18 -50 -19 q-23 0 -45 13 q-21 13 -23 36 q0 10 6 18 q5 8 11 8 q2 0 3 -3 q1 -4 1 -9 q10 -13 21 -19 q10 -5 20 -5 q15 1 26 10 q11 10 11 22 q0 9 -7 17 q-8 9 -24 14 l0 0 Z" /><glyph glyph-name="" unicode="&#x15f;" d="M213 354 q-1 3 -4 8 q-3 6 -6 8 l-4 1 l-5 -3 q1 3 1 4 q0 3 -4 3 q-3 2 -5 2 q-26 -2 -75 -39 q-49 -37 -69 -81 q-4 -11 -5 -24 q-2 -13 -2 -27 q0 -40 10 -83 q9 -43 23 -74 q-19 12 -37 33 q-17 20 -33 33 l-3 1 q-10 -3 -15 -14 q-5 -10 -5 -23 q1 -19 19 -44 q19 -25 40 -39 q10 -6 29 -10 q18 -5 38 -5 q22 0 38 7 q16 7 17 24 q0 5 -1 11 q-12 36 -24 83 q-13 46 -14 89 q0 15 3 30 q20 15 49 39 q29 23 32 50 q0 5 -1 9 q6 8 10 16 q3 8 3 15 l0 0 ZM133 51 q-30 53 -30 117 q0 5 1 10 q0 4 0 9 q5 -73 29 -136 l0 0 ZM80 272 q15 29 50 48 q-31 -24 -50 -48 l0 0 ZM60 264 q14 26 37 49 q23 22 55 39 q-29 -22 -52 -44 q-23 -22 -40 -44 l0 0 ZM98 -40 q-20 8 -30 16 q-9 8 -9 16 q0 10 15 18 q15 9 45 18 q-19 -12 -19 -22 q0 -8 8 -15 q9 -7 26 -13 q20 -14 29 -29 q9 -16 9 -31 q-1 -27 -21 -46 q-21 -18 -53 -19 q-24 0 -47 14 q-23 13 -25 37 q0 11 6 19 q6 8 12 8 q3 0 4 -3 q1 -4 1 -9 q10 -14 21 -20 q11 -5 21 -5 q17 0 28 10 q11 10 11 23 q0 10 -7 19 q-8 9 -25 14 l0 0 Z" /><glyph glyph-name="" unicode="" d="M271 297 q23 -22 40 -41 q18 -19 30 -35 q-13 -16 -32 -33 q-19 -18 -42 -40 q-40 -37 -58 -58 q-18 -21 -18 -44 q0 -30 6 -42 q5 -13 14 -13 q6 0 13 5 q8 4 16 12 q29 28 90 91 q62 62 69 70 q2 0 10 15 q8 14 9 36 q-1 21 -8 35 q-8 14 -9 14 q-7 8 -65 73 q-58 65 -86 94 q-15 15 -23 15 q-7 0 -10 -14 q-3 -14 -3 -47 q-2 -19 8 -37 q9 -18 49 -56 l0 0 ZM93 297 q23 -22 40 -41 q18 -19 30 -35 q-13 -16 -32 -33 q-19 -18 -42 -40 q-40 -37 -58 -58 q-18 -21 -18 -44 q0 -30 6 -42 q5 -13 14 -13 q6 0 13 5 q8 4 16 12 q29 28 90 91 q62 62 69 70 q2 0 10 15 q8 14 9 36 q0 29 -36 74 q-36 44 -107 114 q-11 11 -22 19 q-12 9 -21 9 q-8 0 -13 -10 q-5 -11 -5 -36 q-2 -19 8 -37 q9 -18 49 -56 l0 0 Z" /><glyph glyph-name="" unicode="&#x13d;" d="M589 -32 l-1 3 q-1 1 -1 4 q-3 2 -6 10 q-2 7 -6 8 q0 -1 -1 -1 q-1 -1 -2 -1 q0 0 0 3 q0 2 0 3 q-2 0 -3 1 q-1 0 -2 0 q-2 0 -5 -3 q-3 -3 -7 -5 q-17 -33 -51 -45 q-34 -12 -72 -11 q-63 1 -127 21 q-64 21 -115 55 q21 111 53 218 q32 107 78 210 q7 17 16 42 q8 25 9 50 q0 24 -14 39 q-13 14 -39 14 q-44 -1 -91 -26 q-46 -24 -83 -54 q-34 -25 -75 -71 q-40 -46 -44 -95 q1 -27 18 -44 q17 -16 44 -28 q7 0 11 -2 q3 -3 8 -3 q4 0 5 0 q1 0 1 0 q1 0 3 2 q2 2 5 6 q-5 5 -7 14 q-2 8 -2 17 q1 41 22 78 q21 36 47 68 q19 24 46 51 q28 27 58 42 q-51 -113 -87 -231 q-36 -118 -54 -239 q-11 11 -23 25 q-12 15 -17 16 q-8 -2 -12 -16 q-4 -14 -5 -22 q0 -6 -1 -12 q1 -23 19 -37 q17 -15 34 -28 q2 -21 6 -35 q4 -14 13 -27 q5 -7 18 -19 q12 -13 23 -14 q7 0 9 7 q2 7 2 16 q0 6 0 12 q-1 6 -1 11 q67 -44 143 -76 q76 -32 152 -34 q60 1 86 33 q27 31 26 79 q0 14 -1 21 l0 0 ZM30 296 q-16 19 -16 43 q0 13 5 28 q5 15 15 31 q-12 -28 -12 -57 q0 -24 8 -45 l0 0 ZM174 186 q-11 -42 -19 -78 q-8 -36 -10 -67 l-4 2 q0 19 7 47 q7 28 19 75 q5 18 7 26 q3 7 4 7 q0 -1 -1 -3 q0 -1 -1 -3 l-2 -6 ZM150 164 q-8 -31 -14 -59 q-6 -27 -8 -50 q-1 1 -2 3 q-1 2 -2 4 q10 60 35 153 q25 93 59 195 q-38 -141 -68 -246 l0 0 ZM259 -43 q77 -33 169 -39 q-9 0 -18 -1 q-44 0 -81 10 q-38 10 -70 30 l0 0 ZM251 616 q-1 13 -10 22 q-9 9 -21 9 q-22 -4 -37 -49 q-15 -45 -35 -79 q-1 -1 -1 -2 q0 -2 0 -3 q0 -7 6 -14 q6 -7 14 -7 q23 5 52 49 q29 45 32 74 l0 0 ZM197 526 q30 48 49 87 q-7 -37 -49 -87 l0 0 Z" /><glyph glyph-name="" unicode="&#x2dd;" d="M319 681 q2 -1 3 -2 q1 0 2 0 q3 0 3 3 q0 9 -13 22 q-13 13 -39 14 q-24 -2 -54 -15 q-30 -14 -55 -16 q-5 0 -10 2 q-5 1 -8 1 q-3 0 -4 -1 q-1 -2 -1 -4 q1 -19 16 -30 q14 -12 24 -12 q33 2 71 20 q38 17 58 19 q4 0 7 -1 l0 0 ZM441 637 q2 -1 3 -2 q1 0 2 0 q3 0 3 3 q0 9 -13 22 q-13 13 -39 14 q-24 -2 -54 -15 q-30 -14 -55 -16 q-5 0 -10 2 q-5 1 -8 1 q-3 0 -4 -1 q-1 -2 -1 -4 q1 -19 16 -30 q14 -12 24 -12 q33 2 71 20 q38 17 58 19 q4 0 7 -1 l0 0 Z" /><glyph glyph-name="" unicode="&#x13e;" d="M186 198 q-26 -30 -54 -82 q-28 -52 -67 -76 q-2 10 -2 22 q4 84 48 201 q43 117 75 189 q3 7 4 14 q1 7 1 14 q-1 25 -13 43 q-12 18 -27 19 q-4 0 -7 -1 q-22 -19 -79 -169 q-58 -150 -65 -279 q0 -44 14 -71 q15 -26 49 -27 q49 7 88 77 q38 70 64 122 q8 15 8 21 q0 5 -5 5 q-5 0 -13 -6 q-9 -6 -19 -16 l0 0 ZM23 162 q8 57 28 125 q20 67 51 140 q-28 -79 -48 -144 q-20 -66 -31 -121 l0 0 ZM294 497 q-1 13 -10 22 q-9 9 -21 9 q-22 -4 -37 -49 q-15 -45 -35 -79 q-1 -1 -1 -2 q0 -2 0 -3 q0 -7 6 -14 q6 -7 14 -7 q23 5 52 49 q29 45 32 74 l0 0 ZM240 407 q30 48 49 87 q-7 -37 -49 -87 l0 0 Z" /><glyph glyph-name="" unicode="&#x17c;" d="M317 346 q-42 -12 -94 -12 q-23 0 -46 2 q-23 3 -43 7 q0 2 1 3 q0 1 0 2 q-1 14 -13 25 q-13 10 -28 11 q-17 -1 -30 -23 q-13 -21 -14 -50 q0 -11 3 -18 q4 -8 11 -11 q-21 -46 -45 -89 q-25 -44 -27 -60 q0 -5 3 -10 q2 -5 9 -5 q16 5 46 59 q31 54 52 95 q5 -2 38 -4 q32 -1 61 -1 q12 0 20 1 q8 0 8 0 q0 -2 -5 -6 q-5 -4 -9 -7 q-52 -49 -109 -101 q-56 -52 -86 -100 q-1 -2 -2 -5 q0 -4 0 -8 q0 -15 6 -31 q7 -16 21 -17 q11 0 24 3 q13 3 28 3 q51 -1 105 -14 q55 -14 87 -35 q1 -1 2 -1 q1 -1 2 -1 q12 2 25 23 q13 21 14 41 q-8 30 -88 43 q-81 13 -136 13 q52 51 120 111 q68 59 115 104 q6 6 6 15 q-1 18 -12 33 q-11 14 -20 15 l0 0 ZM148 19 q11 1 21 1 q17 0 33 -4 q15 -3 29 -10 q-18 6 -38 9 q-21 3 -45 4 l0 0 ZM257 13 q-32 10 -71 16 q-39 5 -83 7 q10 1 20 2 q10 0 20 0 q65 0 114 -25 l0 0 ZM207 305 q-28 -3 -40 -3 q-12 1 -18 4 l-4 4 q9 0 23 0 q15 -1 28 -1 q26 0 51 2 q-19 -4 -40 -6 l0 0 ZM201 508 q4 -1 5 -4 q1 -2 1 -5 q-1 -11 -12 -28 q-10 -18 -12 -37 q0 -10 12 -26 q12 -16 39 -18 q12 2 28 28 q16 26 18 56 q-1 24 -19 35 q-18 11 -46 11 q-10 0 -16 -1 q-6 -2 -6 -5 q0 -1 2 -3 q2 -1 6 -3 l0 0 Z" /><glyph glyph-name="" unicode="&#x154;" d="M622 -50 q0 1 -1 2 q0 0 -1 0 q-1 0 -1 0 q-1 1 -1 2 q0 2 2 3 q-2 1 -3 2 q-1 1 -2 1 q-1 0 -3 -1 q-11 -1 -22 -6 q-10 -5 -22 -6 q-81 5 -159 79 q-79 73 -129 155 q94 23 169 84 q74 60 78 182 q2 28 -12 72 q-14 43 -61 48 q-47 -4 -96 -60 q-48 -57 -85 -124 q15 48 30 88 q16 40 17 66 q-1 12 -5 16 q-4 4 -5 4 q0 1 -10 -24 q-10 -26 -29 -59 q1 4 12 27 q10 24 14 31 q4 11 6 19 q2 8 2 10 q-1 2 -6 4 q-6 2 -7 2 q-1 0 -4 0 q-3 0 -6 -1 q-1 0 -11 3 q-9 3 -20 3 q-82 -9 -163 -105 q-82 -96 -88 -172 q2 -31 27 -50 q26 -19 57 -19 q6 0 10 2 q3 1 3 5 q-1 5 -8 16 q-7 11 -8 29 q3 65 56 150 q52 85 113 115 q-29 -59 -84 -223 q-55 -164 -61 -282 q0 -23 4 -39 q4 -17 14 -25 q16 -14 32 -25 q17 -10 27 -11 q4 0 6 2 q2 2 2 7 q0 9 -1 19 q-1 10 -1 20 q0 35 6 78 q5 43 16 90 q40 -96 109 -179 q70 -82 171 -114 q11 -3 21 -3 q33 1 62 21 q28 20 43 50 q1 2 2 4 q1 2 2 3 q2 2 3 5 q0 2 0 4 q0 2 0 3 q-1 1 -1 2 l0 0 ZM34 251 q-12 9 -18 21 q-7 11 -7 26 q0 35 32 86 q-24 -48 -24 -85 q0 -14 4 -27 q5 -12 13 -21 l0 0 ZM491 347 q-54 -90 -147 -123 q96 53 147 123 l0 0 ZM132 128 q17 128 78 270 q-24 -76 -43 -143 q-20 -67 -35 -127 l0 0 ZM245 281 q3 26 16 51 q13 25 25 48 q18 37 31 54 q13 18 27 30 l-4 -5 q-24 -31 -47 -70 q-23 -39 -43 -98 q-4 -7 -4 -9 q-1 -1 -1 -1 l0 0 ZM366 453 q16 24 36 49 q21 25 37 27 q5 -1 7 -8 q1 -8 1 -16 q-3 -96 -61 -156 q-58 -61 -137 -102 q25 51 53 102 q28 50 59 97 l5 7 ZM303 22 q106 -127 239 -144 q-134 2 -239 144 l0 0 ZM449 638 q2 -1 3 -2 q1 0 2 0 q3 0 3 3 q0 9 -13 22 q-13 13 -39 14 q-24 -2 -54 -15 q-30 -14 -55 -16 q-5 0 -10 2 q-5 1 -8 1 q-3 0 -4 -1 q-1 -2 -1 -4 q1 -19 16 -30 q14 -12 24 -12 q33 2 71 20 q38 17 58 19 q4 0 7 -1 l0 0 Z" /><glyph glyph-name="" unicode="" d="M542 675 q16 -22 38 -51 q22 -29 43 -32 q11 1 23 8 q13 6 14 13 q0 3 -6 5 q-29 12 -52 49 q-23 36 -55 41 q-33 -4 -54 -38 q-20 -34 -46 -45 q-3 -1 -4 -2 q-1 -1 -1 -2 q1 -5 12 -11 q11 -6 20 -7 q18 3 37 29 q18 26 31 43 l0 0 ZM525 585 q-9 -12 -13 -12 q-5 0 -13 -3 l-4 -3 q-54 -90 -112 -178 q-58 -88 -124 -168 l-14 7 q-38 20 -79 37 q-42 16 -89 17 q-22 0 -37 -8 q-16 -9 -26 -24 l-3 -7 q-5 -10 -9 -20 q-4 -11 -4 -18 q0 -3 2 -3 q2 0 2 -3 q0 -2 -2 -3 q-1 -2 -2 -3 q3 -6 6 -10 q3 -5 9 -5 q6 1 16 4 q10 3 24 3 q33 0 60 -6 q28 -5 54 -13 l32 -9 q-26 -24 -59 -47 q-33 -24 -36 -36 q1 -5 14 -16 q12 -12 28 -17 l16 -5 q5 -1 11 -2 q6 0 12 0 q34 4 61 29 q27 25 50 56 q28 -12 59 -29 q31 -17 54 -35 q6 -52 28 -89 q22 -37 65 -39 q24 1 49 17 q25 16 27 39 q0 7 -5 9 q-4 2 -10 2 l-5 0 q-33 1 -47 37 q-14 36 -14 94 q2 107 34 226 q32 118 74 175 q2 3 4 6 q1 4 1 8 q-1 19 -19 38 q-19 19 -41 20 q-7 0 -13 -3 q-7 -3 -12 -10 l0 0 ZM21 247 q18 27 59 27 q32 0 78 -17 q-39 10 -69 10 q-44 0 -68 -20 l0 0 ZM302 196 l-4 2 q21 27 44 61 q23 35 51 75 q-6 -21 -25 -47 q-20 -27 -32 -44 q-8 -12 -15 -22 q-6 -10 -13 -18 l-6 -7 ZM318 186 l-4 3 q21 27 59 83 q39 56 44 63 q1 -1 -6 -7 q-7 -6 -35 -61 q-35 -51 -58 -81 l0 0 ZM423 296 q-5 -29 -11 -73 q-6 -45 -7 -95 q-15 12 -35 25 q-19 12 -36 23 q24 35 48 69 q23 34 44 70 l-3 -19 ZM482 74 q-3 30 -3 62 q0 134 51 278 q-26 -90 -37 -174 q-11 -85 -11 -166 l0 0 Z" /><glyph glyph-name="" unicode="&#x102;" d="M526 582 q-9 -12 -14 -13 q-5 0 -13 -2 l-3 -3 q-54 -90 -112 -177 q-57 -87 -124 -168 q-7 3 -15 7 l-6 3 q-35 19 -75 35 q-40 15 -85 16 q-22 0 -37 -8 q-16 -9 -26 -24 l-3 -7 q-5 -9 -9 -20 q-4 -11 -4 -18 q0 -3 2 -3 q2 0 2 -3 q0 -2 -2 -3 q-1 -2 -2 -3 q3 -5 6 -10 q3 -5 9 -5 q5 1 15 4 q9 3 24 3 q43 0 77 -8 q34 -8 69 -20 q-26 -23 -59 -47 q-32 -23 -35 -35 q1 -14 17 -18 q16 -5 31 -17 l10 -3 q5 -1 11 -2 q6 0 12 0 q34 4 61 29 q27 24 50 55 q27 -12 58 -28 q31 -17 54 -35 q6 -50 27 -88 q22 -38 66 -40 q24 1 48 17 q25 16 27 39 q0 7 -6 9 q-5 2 -13 2 q-33 1 -47 37 q-14 35 -14 93 q2 107 33 225 q32 118 74 175 q2 3 4 6 q1 4 1 8 q-1 19 -19 38 q-19 19 -41 20 q-13 0 -24 -13 l0 0 ZM23 245 q18 27 59 27 q32 0 77 -17 q-39 10 -69 10 q-21 0 -38 -5 q-17 -5 -29 -15 l0 0 ZM303 194 l-4 3 q18 24 54 76 q36 52 41 58 q-15 -17 -43 -64 q-28 -47 -42 -66 l-6 -7 ZM319 184 l-4 3 q23 28 49 65 q26 37 54 81 q-23 -39 -52 -82 q-29 -43 -47 -67 l0 0 ZM424 294 q-5 -29 -11 -73 q-6 -44 -7 -94 q-16 12 -35 25 q-20 12 -36 23 q23 34 47 68 q24 34 45 70 l-3 -19 ZM483 72 q-3 32 -3 65 q0 66 12 134 q13 69 39 140 q-26 -90 -37 -174 q-11 -84 -11 -165 l0 0 ZM414 678 q47 -67 90 -67 q25 0 48 20 q24 20 47 59 q7 14 7 24 q0 8 -4 13 q-4 4 -9 4 q-4 0 -7 -3 q-3 -2 -4 -7 q-9 -25 -29 -39 q-20 -14 -47 -14 q-26 1 -46 17 q-20 16 -27 41 q4 6 4 10 q0 2 -2 4 q-2 1 -4 1 q-8 0 -16 -9 q-9 -8 -10 -25 q0 -6 2 -13 q2 -8 7 -16 l0 0 Z" /><glyph glyph-name="" unicode="" d="M526 582 q-9 -12 -14 -13 q-5 0 -13 -2 l-3 -3 q-54 -90 -112 -177 q-57 -87 -124 -168 q-7 3 -15 7 l-6 3 q-35 19 -75 35 q-40 15 -85 16 q-22 0 -37 -8 q-16 -9 -26 -24 l-3 -7 q-5 -9 -9 -20 q-4 -11 -4 -18 q0 -3 2 -3 q2 0 2 -3 q0 -2 -2 -3 q-1 -2 -2 -3 q3 -5 6 -10 q3 -5 9 -5 q5 1 15 4 q9 3 24 3 q43 0 77 -8 q34 -8 69 -20 q-26 -23 -59 -47 q-32 -23 -35 -35 q1 -14 17 -18 q16 -5 31 -17 l10 -3 q5 -1 11 -2 q6 0 12 0 q34 4 61 29 q27 24 50 55 q27 -12 58 -28 q31 -17 54 -35 q6 -50 27 -88 q22 -38 66 -40 q24 1 48 17 q25 16 27 39 q0 7 -6 9 q-5 2 -13 2 q-33 1 -47 37 q-14 35 -14 93 q2 107 33 225 q32 118 74 175 q2 3 4 6 q1 4 1 8 q-1 19 -19 38 q-19 19 -41 20 q-13 0 -24 -13 l0 0 ZM23 245 q18 27 59 27 q32 0 77 -17 q-39 10 -69 10 q-21 0 -38 -5 q-17 -5 -29 -15 l0 0 ZM303 194 l-4 3 q18 24 54 76 q36 52 41 58 q-15 -17 -43 -64 q-28 -47 -42 -66 l-6 -7 ZM319 184 l-4 3 q23 28 49 65 q26 37 54 81 q-23 -39 -52 -82 q-29 -43 -47 -67 l0 0 ZM424 294 q-5 -29 -11 -73 q-6 -44 -7 -94 q-16 12 -35 25 q-20 12 -36 23 q23 34 47 68 q24 34 45 70 l-3 -19 ZM483 72 q-3 32 -3 65 q0 66 12 134 q13 69 39 140 q-26 -90 -37 -174 q-11 -84 -11 -165 l0 0 ZM545 716 q-7 3 -15 4 q-8 1 -16 1 q-8 0 -13 -1 q-5 -1 -5 -3 q1 -2 6 -4 q5 -3 6 -8 q-1 -8 -9 -22 q-9 -13 -10 -28 q0 -6 8 -19 q9 -13 32 -15 q9 1 21 22 q13 20 14 43 q0 10 -4 18 q-5 7 -15 12 l0 0 ZM626 696 q-7 3 -15 4 q-8 1 -16 1 q-8 0 -13 -1 q-5 -1 -5 -3 q1 -2 6 -4 q5 -3 6 -8 q-1 -9 -9 -22 q-9 -13 -10 -28 q0 -7 9 -20 q9 -13 30 -14 q9 1 22 22 q13 20 14 43 q0 10 -4 18 q-5 7 -15 12 l0 0 Z" /><glyph glyph-name="" unicode="&#x139;" d="M589 -32 l-1 3 q-1 1 -1 4 q-3 2 -6 10 q-2 7 -6 8 q0 -1 -1 -1 q-1 -1 -2 -1 q0 0 0 3 q0 2 0 3 q-2 0 -3 1 q-1 0 -2 0 q-2 0 -5 -3 q-3 -3 -7 -5 q-17 -33 -51 -45 q-34 -12 -72 -11 q-63 1 -127 21 q-64 21 -115 55 q21 111 53 218 q32 107 78 210 q7 17 16 42 q8 25 9 50 q0 24 -14 39 q-13 14 -39 14 q-44 -1 -91 -26 q-46 -24 -83 -54 q-34 -25 -75 -71 q-40 -46 -44 -95 q1 -27 18 -44 q17 -16 44 -28 q7 0 11 -2 q3 -3 8 -3 q4 0 5 0 q1 0 1 0 q1 0 3 2 q2 2 5 6 q-5 5 -7 14 q-2 8 -2 17 q1 41 22 78 q21 36 47 68 q19 24 46 51 q28 27 58 42 q-51 -113 -87 -231 q-36 -118 -54 -239 q-11 11 -23 25 q-12 15 -17 16 q-8 -2 -12 -16 q-4 -14 -5 -22 q0 -6 -1 -12 q1 -23 19 -37 q17 -15 34 -28 q2 -21 6 -35 q4 -14 13 -27 q5 -7 18 -19 q12 -13 23 -14 q7 0 9 7 q2 7 2 16 q0 6 0 12 q-1 6 -1 11 q67 -44 143 -76 q76 -32 152 -34 q60 1 86 33 q27 31 26 79 q0 14 -1 21 l0 0 ZM30 296 q-16 19 -16 43 q0 13 5 28 q5 15 15 31 q-12 -28 -12 -57 q0 -24 8 -45 l0 0 ZM174 186 q-11 -42 -19 -78 q-8 -36 -10 -67 l-4 2 q0 19 7 47 q7 28 19 75 q5 18 7 26 q3 7 4 7 q0 -1 -1 -3 q0 -1 -1 -3 l-2 -6 ZM150 164 q-8 -31 -14 -59 q-6 -27 -8 -50 q-1 1 -2 3 q-1 2 -2 4 q10 60 35 153 q25 93 59 195 q-38 -141 -68 -246 l0 0 ZM259 -43 q77 -33 169 -39 q-9 0 -18 -1 q-44 0 -81 10 q-38 10 -70 30 l0 0 ZM339 666 q2 -1 3 -2 q1 0 2 0 q3 0 3 3 q0 9 -13 22 q-13 13 -39 14 q-24 -2 -54 -15 q-30 -14 -55 -16 q-5 0 -10 2 q-5 1 -8 1 q-3 0 -4 -1 q-1 -2 -1 -4 q1 -19 16 -30 q14 -12 24 -12 q33 2 71 20 q38 17 58 19 q4 0 7 -1 l0 0 Z" /><glyph glyph-name="" unicode="&#x106;" d="M288 302 q-15 -29 -22 -42 q-6 -12 -7 -21 q2 -4 12 -7 q11 -3 12 -3 q1 0 2 0 q1 -1 2 -1 q38 9 92 97 q54 87 59 142 q-3 42 -44 71 q-42 29 -86 30 q-88 -10 -193 -147 q-106 -138 -115 -289 q1 -78 47 -128 q45 -50 118 -52 q63 0 128 54 q66 53 124 153 q1 2 2 4 q0 2 0 4 q0 7 -5 11 q-6 4 -12 4 q-5 0 -9 -2 q-4 -3 -6 -8 q-25 -51 -81 -89 q-56 -39 -109 -41 q-46 2 -68 35 q-22 32 -22 74 q8 117 91 236 q83 120 143 129 q11 0 18 -7 q6 -7 6 -18 q-2 -26 -19 -57 q-18 -32 -28 -46 q-6 3 -13 3 q-12 -2 -21 -28 q-8 -26 -16 -46 l-8 -18 l-13 -38 q1 -12 4 -16 q4 -3 4 -3 q4 5 20 35 q17 31 19 34 q0 -1 -2 -3 q-2 -2 -4 -6 l0 0 ZM292 65 q-22 -22 -44 -32 q-23 -11 -45 -11 q-17 0 -33 6 q-17 6 -34 19 q16 -9 32 -13 q16 -4 32 -4 q47 0 92 35 l0 0 ZM236 495 q-29 -14 -74 -73 q-45 -60 -61 -92 q20 45 58 96 q38 51 77 69 l0 0 ZM106 375 q45 96 153 168 q-97 -78 -153 -168 l0 0 ZM357 647 q-3 1 -7 1 q-20 -2 -58 -19 q-38 -18 -71 -20 q-10 0 -24 12 q-15 11 -16 30 q0 2 1 4 q1 1 4 1 q3 0 8 -1 q5 -2 10 -2 q25 2 55 16 q30 13 54 15 q26 -1 39 -14 q13 -13 13 -22 q0 -3 -3 -3 q-1 0 -2 0 q-1 1 -3 2 l0 0 Z" /><glyph glyph-name="" unicode="" d="M288 302 q-15 -29 -22 -42 q-6 -12 -7 -21 q2 -4 12 -7 q11 -3 12 -3 q1 0 2 0 q1 -1 2 -1 q38 9 92 97 q54 87 59 142 q-3 42 -44 71 q-42 29 -86 30 q-88 -10 -193 -147 q-106 -138 -115 -289 q1 -78 47 -128 q45 -50 118 -52 q63 0 128 54 q66 53 124 153 q1 2 2 4 q0 2 0 4 q0 7 -5 11 q-6 4 -12 4 q-5 0 -9 -2 q-4 -3 -6 -8 q-25 -51 -81 -89 q-56 -39 -109 -41 q-46 2 -68 35 q-22 32 -22 74 q8 117 91 236 q83 120 143 129 q11 0 18 -7 q6 -7 6 -18 q-2 -26 -19 -57 q-18 -32 -28 -46 q-6 3 -13 3 q-12 -2 -21 -28 q-8 -26 -16 -46 l-8 -18 l-13 -38 q1 -12 4 -16 q4 -3 4 -3 q4 5 20 35 q17 31 19 34 q0 -1 -2 -3 q-2 -2 -4 -6 l0 0 ZM292 65 q-22 -22 -44 -32 q-23 -11 -45 -11 q-17 0 -33 6 q-17 6 -34 19 q16 -9 32 -13 q16 -4 32 -4 q47 0 92 35 l0 0 ZM236 495 q-29 -14 -74 -73 q-45 -60 -61 -92 q20 45 58 96 q38 51 77 69 l0 0 ZM106 375 q45 96 153 168 q-97 -78 -153 -168 l0 0 ZM186 -75 q-43 18 -43 35 q0 21 66 40 q-21 -13 -21 -25 q0 -16 38 -30 q22 -15 32 -32 q10 -17 10 -34 q-1 -30 -24 -51 q-23 -20 -58 -21 q-27 0 -52 15 q-25 15 -27 41 q1 12 7 21 q7 9 13 9 q3 0 4 -3 q1 -4 1 -10 q11 -16 24 -22 q12 -6 23 -6 q18 1 31 11 q12 11 12 26 q0 11 -8 20 q-9 10 -28 16 l0 0 Z" /><glyph glyph-name="" unicode="&#x10c;" d="M288 302 q-15 -29 -22 -42 q-6 -12 -7 -21 q2 -4 12 -7 q11 -3 12 -3 q1 0 2 0 q1 -1 2 -1 q38 9 92 97 q54 87 59 142 q-3 42 -44 71 q-42 29 -86 30 q-88 -10 -193 -147 q-106 -138 -115 -289 q1 -78 47 -128 q45 -50 118 -52 q63 0 128 54 q66 53 124 153 q1 2 2 4 q0 2 0 4 q0 7 -5 11 q-6 4 -12 4 q-5 0 -9 -2 q-4 -3 -6 -8 q-25 -51 -81 -89 q-56 -39 -109 -41 q-46 2 -68 35 q-22 32 -22 74 q8 117 91 236 q83 120 143 129 q11 0 18 -7 q6 -7 6 -18 q-2 -26 -19 -57 q-18 -32 -28 -46 q-6 3 -13 3 q-12 -2 -21 -28 q-8 -26 -16 -46 l-8 -18 l-13 -38 q1 -12 4 -16 q4 -3 4 -3 q4 5 20 35 q17 31 19 34 q0 -1 -2 -3 q-2 -2 -4 -6 l0 0 ZM292 65 q-22 -22 -44 -32 q-23 -11 -45 -11 q-17 0 -33 6 q-17 6 -34 19 q16 -9 32 -13 q16 -4 32 -4 q47 0 92 35 l0 0 ZM236 495 q-29 -14 -74 -73 q-45 -60 -61 -92 q20 45 58 96 q38 51 77 69 l0 0 ZM106 375 q45 96 153 168 q-97 -78 -153 -168 l0 0 ZM362 638 q-20 27 -50 67 q-29 40 -57 44 q-14 -1 -31 -10 q-17 -10 -19 -19 q0 -2 2 -3 q2 -2 6 -3 q37 -15 68 -64 q31 -50 74 -56 q44 6 71 51 q28 45 63 59 q6 2 6 5 q-1 7 -16 15 q-14 8 -26 9 q-24 -4 -49 -38 q-25 -35 -42 -57 l0 0 Z" /><glyph glyph-name="" unicode="" d="M613 550 q-33 10 -70 15 q-37 5 -75 5 q-35 0 -69 -3 q-35 -4 -67 -9 q-5 9 -18 18 q-12 9 -25 10 q-18 -1 -26 -16 q-8 -16 -13 -31 q-92 -24 -169 -72 q-76 -48 -81 -124 q0 -8 2 -20 q3 -13 14 -14 q4 0 10 2 q7 2 15 2 q20 0 45 -3 q24 -3 47 -7 q-33 -13 -63 -34 q-17 -18 -27 -39 q-11 -22 -11 -43 q0 -8 3 -14 q2 -6 9 -6 q6 2 29 21 q23 19 47 31 q-14 -41 -25 -86 q-11 -46 -12 -84 q-20 -2 -34 -5 q-14 -3 -15 -23 q0 -12 6 -38 q6 -25 24 -29 q59 21 118 29 q59 8 125 8 q43 0 83 -6 q40 -7 57 -27 q2 -3 5 -6 q3 -3 7 -3 q5 0 7 4 q2 5 2 10 q-4 60 -75 78 q-71 18 -163 16 q-14 0 -29 0 q-14 0 -28 -1 q7 60 22 106 q16 46 33 84 l3 8 q28 5 80 10 q51 5 80 7 q7 1 16 18 q9 17 10 34 q0 8 -4 14 q-4 5 -13 5 q-22 0 -67 -3 q-45 -3 -69 -5 q32 72 65 142 q77 13 156 13 q30 1 73 -7 q43 -8 60 -37 q3 -5 4 -9 q0 -3 0 -7 q0 -6 0 -10 q-1 -4 -1 -7 q0 -8 4 -11 q4 -3 5 -3 q1 0 2 2 q1 1 2 1 q1 0 2 -2 q1 -2 2 -2 q5 1 9 5 q5 3 9 4 q1 2 2 3 q1 1 2 1 q14 14 22 31 q8 16 8 33 q-1 31 -25 49 q-23 18 -52 27 l0 0 ZM99 58 q0 57 33 164 q-24 -105 -33 -164 l0 0 ZM421 -18 q-55 18 -123 17 q-20 0 -42 -1 q-22 -2 -45 -5 q42 12 86 12 q61 0 124 -23 l0 0 ZM158 344 q-25 5 -48 10 q-24 5 -49 9 q29 27 67 47 q39 20 79 33 q-11 -25 -21 -50 q-11 -25 -21 -51 l-7 2 ZM231 497 q-29 -10 -64 -27 q-35 -17 -79 -42 q3 4 30 19 q27 15 45 25 q19 10 35 18 q16 7 30 11 l5 1 l-2 -5 ZM241 518 q-32 -7 -76 -27 q-45 -19 -93 -51 q-3 -1 -4 -1 q8 8 73 41 q66 33 90 41 l12 2 l-2 -5 ZM674 472 q-3 36 -59 60 q-57 25 -144 26 q14 1 27 1 q85 -1 130 -25 q46 -25 46 -62 l0 0 ZM525 663 q2 -1 3 -2 q1 0 2 0 q3 0 3 3 q0 9 -13 22 q-13 13 -39 14 q-24 -2 -54 -15 q-30 -14 -55 -16 q-5 0 -10 2 q-5 1 -8 1 q-3 0 -4 -1 q-1 -2 -1 -4 q1 -19 16 -30 q14 -12 24 -12 q33 2 71 20 q38 17 58 19 q4 0 7 -1 l0 0 Z" /><glyph glyph-name="" unicode="&#x118;" d="M613 550 q-33 10 -70 15 q-37 5 -75 5 q-35 0 -69 -3 q-35 -4 -67 -9 q-5 9 -18 18 q-12 9 -25 10 q-18 -1 -26 -16 q-8 -16 -13 -31 q-92 -24 -169 -72 q-76 -48 -81 -124 q0 -8 2 -20 q3 -13 14 -14 q4 0 10 2 q7 2 15 2 q20 0 45 -3 q24 -3 47 -7 q-33 -13 -63 -34 q-17 -18 -27 -39 q-11 -22 -11 -43 q0 -8 3 -14 q2 -6 9 -6 q6 2 29 21 q23 19 47 31 q-14 -41 -25 -86 q-11 -46 -12 -84 q-20 -2 -34 -5 q-14 -3 -15 -23 q0 -12 6 -38 q6 -25 24 -29 q59 21 118 29 q59 8 125 8 q43 0 83 -6 q40 -7 57 -27 q2 -3 5 -6 q3 -3 7 -3 q5 0 7 4 q2 5 2 10 q-4 60 -75 78 q-71 18 -163 16 q-14 0 -29 0 q-14 0 -28 -1 q7 60 22 106 q16 46 33 84 l3 8 q28 5 80 10 q51 5 80 7 q7 1 16 18 q9 17 10 34 q0 8 -4 14 q-4 5 -13 5 q-22 0 -67 -3 q-45 -3 -69 -5 q32 72 65 142 q77 13 156 13 q30 1 73 -7 q43 -8 60 -37 q3 -5 4 -9 q0 -3 0 -7 q0 -6 0 -10 q-1 -4 -1 -7 q0 -8 4 -11 q4 -3 5 -3 q1 0 2 2 q1 1 2 1 q1 0 2 -2 q1 -2 2 -2 q5 1 9 5 q5 3 9 4 q1 2 2 3 q1 1 2 1 q14 14 22 31 q8 16 8 33 q-1 31 -25 49 q-23 18 -52 27 l0 0 ZM99 58 q0 57 33 164 q-24 -105 -33 -164 l0 0 ZM421 -18 q-55 18 -123 17 q-20 0 -42 -1 q-22 -2 -45 -5 q42 12 86 12 q61 0 124 -23 l0 0 ZM158 344 q-25 5 -48 10 q-24 5 -49 9 q29 27 67 47 q39 20 79 33 q-11 -25 -21 -50 q-11 -25 -21 -51 l-7 2 ZM231 497 q-29 -10 -64 -27 q-35 -17 -79 -42 q3 4 30 19 q27 15 45 25 q19 10 35 18 q16 7 30 11 l5 1 l-2 -5 ZM241 518 q-32 -7 -76 -27 q-45 -19 -93 -51 q-3 -1 -4 -1 q8 8 73 41 q66 33 90 41 l12 2 l-2 -5 ZM674 472 q-3 36 -59 60 q-57 25 -144 26 q14 1 27 1 q85 -1 130 -25 q46 -25 46 -62 l0 0 ZM257 -40 q-43 18 -43 35 q0 21 66 40 q-21 -13 -21 -25 q0 -16 38 -30 q22 -15 32 -32 q10 -17 10 -34 q-1 -30 -24 -51 q-23 -20 -58 -21 q-27 0 -52 15 q-25 15 -27 41 q1 12 7 21 q7 9 13 9 q3 0 4 -3 q1 -4 1 -10 q11 -16 24 -22 q12 -6 23 -6 q18 1 31 11 q12 11 12 26 q0 11 -8 20 q-9 10 -28 16 l0 0 Z" /><glyph glyph-name="" unicode="" d="M613 550 q-33 10 -70 15 q-37 5 -75 5 q-35 0 -69 -3 q-35 -4 -67 -9 q-5 9 -18 18 q-12 9 -25 10 q-18 -1 -26 -16 q-8 -16 -13 -31 q-92 -24 -169 -72 q-76 -48 -81 -124 q0 -8 2 -20 q3 -13 14 -14 q4 0 10 2 q7 2 15 2 q20 0 45 -3 q24 -3 47 -7 q-33 -13 -63 -34 q-17 -18 -27 -39 q-11 -22 -11 -43 q0 -8 3 -14 q2 -6 9 -6 q6 2 29 21 q23 19 47 31 q-14 -41 -25 -86 q-11 -46 -12 -84 q-20 -2 -34 -5 q-14 -3 -15 -23 q0 -12 6 -38 q6 -25 24 -29 q59 21 118 29 q59 8 125 8 q43 0 83 -6 q40 -7 57 -27 q2 -3 5 -6 q3 -3 7 -3 q5 0 7 4 q2 5 2 10 q-4 60 -75 78 q-71 18 -163 16 q-14 0 -29 0 q-14 0 -28 -1 q7 60 22 106 q16 46 33 84 l3 8 q28 5 80 10 q51 5 80 7 q7 1 16 18 q9 17 10 34 q0 8 -4 14 q-4 5 -13 5 q-22 0 -67 -3 q-45 -3 -69 -5 q32 72 65 142 q77 13 156 13 q30 1 73 -7 q43 -8 60 -37 q3 -5 4 -9 q0 -3 0 -7 q0 -6 0 -10 q-1 -4 -1 -7 q0 -8 4 -11 q4 -3 5 -3 q1 0 2 2 q1 1 2 1 q1 0 2 -2 q1 -2 2 -2 q5 1 9 5 q5 3 9 4 q1 2 2 3 q1 1 2 1 q14 14 22 31 q8 16 8 33 q-1 31 -25 49 q-23 18 -52 27 l0 0 ZM99 58 q0 57 33 164 q-24 -105 -33 -164 l0 0 ZM421 -18 q-55 18 -123 17 q-20 0 -42 -1 q-22 -2 -45 -5 q42 12 86 12 q61 0 124 -23 l0 0 ZM158 344 q-25 5 -48 10 q-24 5 -49 9 q29 27 67 47 q39 20 79 33 q-11 -25 -21 -50 q-11 -25 -21 -51 l-7 2 ZM231 497 q-29 -10 -64 -27 q-35 -17 -79 -42 q3 4 30 19 q27 15 45 25 q19 10 35 18 q16 7 30 11 l5 1 l-2 -5 ZM241 518 q-32 -7 -76 -27 q-45 -19 -93 -51 q-3 -1 -4 -1 q8 8 73 41 q66 33 90 41 l12 2 l-2 -5 ZM674 472 q-3 36 -59 60 q-57 25 -144 26 q14 1 27 1 q85 -1 130 -25 q46 -25 46 -62 l0 0 ZM409 716 q-7 3 -15 4 q-8 1 -16 1 q-8 0 -13 -1 q-5 -1 -5 -3 q1 -2 6 -4 q5 -3 6 -8 q-1 -8 -9 -22 q-9 -13 -10 -28 q0 -6 8 -19 q9 -13 32 -15 q9 1 21 22 q13 20 14 43 q0 10 -4 18 q-5 7 -15 12 l0 0 ZM490 696 q-7 3 -15 4 q-8 1 -16 1 q-8 0 -13 -1 q-5 -1 -5 -3 q1 -2 6 -4 q5 -3 6 -8 q-1 -9 -9 -22 q-9 -13 -10 -28 q0 -7 9 -20 q9 -13 30 -14 q9 1 22 22 q13 20 14 43 q0 10 -4 18 q-5 7 -15 12 l0 0 Z" /><glyph glyph-name="" unicode="&#x11a;" d="M613 550 q-33 10 -70 15 q-37 5 -75 5 q-35 0 -69 -3 q-35 -4 -67 -9 q-5 9 -18 18 q-12 9 -25 10 q-18 -1 -26 -16 q-8 -16 -13 -31 q-92 -24 -169 -72 q-76 -48 -81 -124 q0 -8 2 -20 q3 -13 14 -14 q4 0 10 2 q7 2 15 2 q20 0 45 -3 q24 -3 47 -7 q-33 -13 -63 -34 q-17 -18 -27 -39 q-11 -22 -11 -43 q0 -8 3 -14 q2 -6 9 -6 q6 2 29 21 q23 19 47 31 q-14 -41 -25 -86 q-11 -46 -12 -84 q-20 -2 -34 -5 q-14 -3 -15 -23 q0 -12 6 -38 q6 -25 24 -29 q59 21 118 29 q59 8 125 8 q43 0 83 -6 q40 -7 57 -27 q2 -3 5 -6 q3 -3 7 -3 q5 0 7 4 q2 5 2 10 q-4 60 -75 78 q-71 18 -163 16 q-14 0 -29 0 q-14 0 -28 -1 q7 60 22 106 q16 46 33 84 l3 8 q28 5 80 10 q51 5 80 7 q7 1 16 18 q9 17 10 34 q0 8 -4 14 q-4 5 -13 5 q-22 0 -67 -3 q-45 -3 -69 -5 q32 72 65 142 q77 13 156 13 q30 1 73 -7 q43 -8 60 -37 q3 -5 4 -9 q0 -3 0 -7 q0 -6 0 -10 q-1 -4 -1 -7 q0 -8 4 -11 q4 -3 5 -3 q1 0 2 2 q1 1 2 1 q1 0 2 -2 q1 -2 2 -2 q5 1 9 5 q5 3 9 4 q1 2 2 3 q1 1 2 1 q14 14 22 31 q8 16 8 33 q-1 31 -25 49 q-23 18 -52 27 l0 0 ZM99 58 q0 57 33 164 q-24 -105 -33 -164 l0 0 ZM421 -18 q-55 18 -123 17 q-20 0 -42 -1 q-22 -2 -45 -5 q42 12 86 12 q61 0 124 -23 l0 0 ZM158 344 q-25 5 -48 10 q-24 5 -49 9 q29 27 67 47 q39 20 79 33 q-11 -25 -21 -50 q-11 -25 -21 -51 l-7 2 ZM231 497 q-29 -10 -64 -27 q-35 -17 -79 -42 q3 4 30 19 q27 15 45 25 q19 10 35 18 q16 7 30 11 l5 1 l-2 -5 ZM241 518 q-32 -7 -76 -27 q-45 -19 -93 -51 q-3 -1 -4 -1 q8 8 73 41 q66 33 90 41 l12 2 l-2 -5 ZM674 472 q-3 36 -59 60 q-57 25 -144 26 q14 1 27 1 q85 -1 130 -25 q46 -25 46 -62 l0 0 ZM414 631 q-18 25 -44 60 q-26 35 -51 39 q-13 -1 -28 -9 q-16 -9 -17 -17 q0 -1 2 -2 q1 -2 5 -3 q34 -14 61 -58 q28 -43 66 -49 q39 5 63 45 q25 40 56 53 q6 2 6 5 q-1 7 -14 14 q-13 6 -24 7 q-21 -3 -43 -34 q-23 -31 -38 -51 l0 0 Z" /><glyph glyph-name="" unicode="" d="M333 560 q-8 4 -18 6 q-9 2 -19 2 q-46 -2 -93 -29 q-47 -27 -77 -52 q-41 -33 -82 -79 q-41 -47 -44 -92 q2 -24 27 -44 q24 -21 43 -27 q2 -1 3 -1 q2 0 3 0 q1 0 2 1 q1 0 1 0 q-1 0 0 1 q1 1 2 1 q2 0 3 -2 q3 0 6 3 q2 3 2 4 q0 2 -3 5 q-3 3 -3 9 q5 40 67 148 q62 107 127 121 q14 -1 19 -15 q5 -15 5 -37 q-1 -63 -14 -119 q-13 -57 -30 -113 q-13 -44 -28 -89 q-15 -45 -34 -87 q-7 -18 -25 -47 q-17 -30 -35 -37 q-4 -1 -8 -4 q-4 -4 -4 -10 q1 -15 17 -24 q15 -9 30 -9 q51 5 92 73 q41 68 61 133 l2 7 q15 43 35 123 q20 79 22 156 q0 44 -12 77 q-12 32 -40 47 l0 0 ZM27 288 q-7 6 -10 13 q-3 7 -3 16 q0 28 33 73 q-13 -23 -19 -42 q-6 -19 -6 -35 q0 -7 1 -13 q1 -7 4 -12 l0 0 ZM274 175 q-17 -62 -29 -83 q-12 -21 -15 -23 q-7 -9 -9 -12 q-2 -3 -3 -3 q2 9 15 30 q13 22 19 35 q8 20 17 52 q9 31 10 34 q1 0 1 -1 q0 -1 0 -2 q0 -6 -3 -15 q-2 -10 -3 -12 l0 0 ZM194 33 q29 63 51 128 q22 66 38 134 q-26 -159 -89 -262 l0 0 ZM341 651 q2 -1 3 -2 q1 0 2 0 q3 0 3 3 q0 9 -13 22 q-13 13 -39 14 q-24 -2 -54 -15 q-30 -14 -55 -16 q-5 0 -10 2 q-5 1 -8 1 q-3 0 -4 -1 q-1 -2 -1 -4 q1 -19 16 -30 q14 -12 24 -12 q33 2 71 20 q38 17 58 19 q4 0 7 -1 l0 0 Z" /><glyph glyph-name="" unicode="" d="M299 663 q16 -22 38 -51 q22 -29 43 -32 q11 1 23 8 q13 6 14 13 q0 3 -6 5 q-29 12 -52 49 q-23 36 -55 41 q-33 -4 -54 -38 q-20 -34 -46 -45 q-3 -1 -4 -2 q-1 -1 -1 -2 q1 -5 12 -11 q11 -6 20 -7 q18 3 37 29 q18 26 31 43 l0 0 ZM333 560 q-8 4 -18 6 q-9 2 -19 2 q-46 -2 -93 -29 q-47 -27 -77 -52 q-41 -33 -82 -79 q-41 -47 -44 -92 q2 -24 27 -44 q24 -21 43 -27 q2 -1 3 -1 q2 0 3 0 q1 0 2 1 q1 0 1 0 q-1 0 0 1 q1 1 2 1 q2 0 3 -2 q3 0 6 3 q2 3 2 4 q0 2 -3 5 q-3 3 -3 9 q5 40 67 148 q62 107 127 121 q14 -1 19 -15 q5 -15 5 -37 q-1 -63 -14 -119 q-13 -57 -30 -113 q-13 -44 -28 -89 q-15 -45 -34 -87 q-7 -18 -25 -47 q-17 -30 -35 -37 q-4 -1 -8 -4 q-4 -4 -4 -10 q1 -15 17 -24 q15 -9 30 -9 q51 5 92 73 q41 68 61 133 l2 7 q15 43 35 123 q20 79 22 156 q0 44 -12 77 q-12 32 -40 47 l0 0 ZM27 288 q-7 6 -10 13 q-3 7 -3 16 q0 28 33 73 q-13 -23 -19 -42 q-6 -19 -6 -35 q0 -7 1 -13 q1 -7 4 -12 l0 0 ZM274 175 q-17 -62 -29 -83 q-12 -21 -15 -23 q-7 -9 -9 -12 q-2 -3 -3 -3 q2 9 15 30 q13 22 19 35 q8 20 17 52 q9 31 10 34 q1 0 1 -1 q0 -1 0 -2 q0 -6 -3 -15 q-2 -10 -3 -12 l0 0 ZM194 33 q29 63 51 128 q22 66 38 134 q-26 -159 -89 -262 l0 0 Z" /><glyph glyph-name="" unicode="&#x10e;" d="M572 500 q-7 28 -31 57 q-25 29 -51 36 q-5 1 -8 1 q-49 -3 -100 -44 q-51 -40 -97 -108 q12 26 24 53 q13 28 14 52 q-2 7 -5 11 q-4 3 -4 4 q0 -6 -25 -45 q-24 -40 -24 -41 q7 7 18 30 q11 22 15 29 q5 10 7 18 q3 9 3 12 q-1 4 -7 6 q-7 2 -8 2 q-9 1 -16 4 q-7 3 -16 3 q-82 -8 -168 -104 q-86 -96 -93 -178 q0 -23 19 -44 q18 -22 49 -23 q2 1 3 1 q5 -3 11 -3 q2 0 2 1 q1 1 2 1 q1 0 2 0 q1 -1 2 -1 q1 0 3 2 q1 1 3 3 q-1 5 -7 16 q-7 11 -8 30 q3 65 55 150 q52 85 114 115 q-30 -58 -71 -166 q-41 -109 -45 -184 q-1 -15 6 -30 q7 -14 32 -15 q2 0 3 1 q0 1 1 1 q1 0 4 -2 q3 -1 17 -5 q0 1 1 2 q0 0 1 0 q0 0 4 -2 q3 -2 6 -2 q2 0 5 0 q3 -1 5 -1 q7 0 10 4 q2 4 2 9 q0 3 -1 6 q9 131 84 253 q74 122 133 131 q15 0 24 -13 q9 -14 9 -44 q-1 -99 -72 -246 q-72 -148 -198 -205 q-20 -7 -33 -10 q-14 -3 -22 -3 q-10 0 -10 4 q0 9 41 41 q41 31 123 45 q6 1 9 5 q3 4 3 9 q0 5 -4 9 q-3 4 -11 4 l-5 0 q-33 1 -107 -15 q-74 -16 -83 -77 q0 -32 19 -59 q18 -28 58 -30 q5 0 10 0 q5 1 10 2 q182 50 275 221 q92 170 92 286 q0 17 -3 30 l0 0 ZM35 257 q-25 18 -25 49 q0 33 32 84 q-24 -48 -24 -84 q0 -14 4 -27 q5 -12 13 -22 l0 0 ZM179 314 q-6 -29 -12 -50 q-5 -21 -7 -22 q-2 0 -3 2 q-1 1 -1 2 q1 13 18 62 q18 49 44 127 q4 7 5 11 q1 3 2 3 q-1 -9 -12 -36 q-11 -28 -18 -49 q-10 -30 -16 -50 l0 0 ZM239 387 q-2 -23 -18 -65 q-17 -43 -22 -57 q-5 -19 -6 -27 q-1 -8 -4 -8 q-2 0 -3 2 q-2 1 -2 2 q0 3 14 41 q13 39 34 97 q3 10 5 13 q2 4 2 2 l0 0 ZM280 407 q-2 -3 -2 -3 q3 5 21 34 q17 29 26 41 q13 24 27 36 q15 11 17 12 q1 1 2 2 q1 0 2 0 q-21 -20 -47 -53 q-27 -32 -46 -69 l0 0 ZM379 519 q-13 -14 -45 -53 q-31 -40 -34 -45 q6 31 43 65 q38 33 38 36 q0 -1 -2 -3 l0 0 ZM338 102 q0 2 4 6 q22 22 43 53 q20 31 50 85 q0 0 1 1 q1 2 3 6 q3 6 4 7 q1 0 6 4 q-15 -32 -42 -78 q-27 -46 -60 -78 q-9 -9 -11 -9 q0 2 2 3 l0 0 ZM449 225 q-21 -44 -55 -92 q-34 -48 -78 -67 q27 6 72 68 q45 62 62 96 q0 -3 -1 -5 l0 0 ZM417 655 q-17 23 -42 57 q-25 34 -49 37 q-12 -1 -26 -9 q-15 -8 -16 -15 q0 -2 2 -3 q1 -2 5 -2 q32 -14 58 -56 q26 -42 63 -47 q37 5 60 44 q23 38 54 50 q2 1 4 2 q1 1 1 2 q-1 7 -13 14 q-13 6 -23 7 q-20 -3 -42 -33 q-22 -29 -36 -48 l0 0 Z" /><glyph glyph-name="" unicode="&#x110;" d="M574 499 q-6 25 -27 51 q-21 26 -45 38 q-10 5 -19 5 q-49 -3 -100 -44 q-51 -40 -97 -108 q12 27 25 55 q12 27 13 51 q-2 9 -5 12 q-3 3 -5 3 q1 0 -3 -9 q-5 -9 -15 -26 q-16 -28 -23 -41 q-7 -12 -8 -12 q6 5 18 29 q12 24 16 31 q4 10 7 18 q3 8 3 12 q-1 5 -8 7 q-7 1 -9 1 q-2 0 -9 4 q-6 3 -21 3 q-82 -8 -168 -105 q-87 -96 -94 -178 q0 -27 17 -42 q17 -16 47 -24 q2 0 3 -1 q1 0 2 1 q1 0 2 0 q2 -1 6 -2 q3 -1 5 -1 q3 0 3 1 q0 1 1 1 q1 0 2 -1 q1 -1 2 -1 q3 1 5 4 q2 4 2 4 q-1 1 -8 13 q-7 13 -8 31 q3 66 56 151 q52 85 114 115 q-17 -32 -41 -90 q-25 -58 -46 -123 q-4 0 -9 -1 q-28 0 -47 -10 q-19 -10 -20 -51 q0 -7 2 -11 q1 -4 4 -4 q12 0 26 3 q13 3 25 5 q-5 -20 -7 -37 q-3 -18 -3 -33 q1 -32 12 -36 q10 -4 13 -4 q1 -1 5 -2 q3 -1 6 -2 q4 0 3 1 q0 0 5 0 q1 -1 3 -4 q2 -3 15 -3 q6 0 13 -1 q7 -1 10 -1 q7 0 9 4 q3 3 3 9 q0 3 -1 6 q1 24 5 49 q4 25 12 51 q14 -2 29 -5 q16 -3 31 -3 q10 0 15 10 q4 10 4 23 q-1 39 -18 43 q-16 5 -36 4 q39 89 89 150 q49 60 86 63 q15 0 24 -14 q9 -13 9 -44 q-1 -98 -72 -246 q-71 -147 -199 -205 q-20 -7 -33 -11 q-14 -3 -22 -3 q-5 0 -7 1 q-3 2 -3 4 q-1 6 39 38 q40 33 126 47 q6 1 9 5 q3 4 3 9 q0 5 -4 9 q-3 4 -11 4 l-5 0 q-33 1 -107 -15 q-74 -16 -83 -77 q0 -32 19 -59 q18 -28 58 -30 q5 0 10 0 q5 1 10 2 q182 51 275 222 q93 170 93 287 q0 17 -3 30 l0 0 ZM35 255 q-25 18 -25 49 q0 34 32 85 q-24 -48 -24 -85 q0 -14 4 -27 q5 -12 13 -22 l0 0 ZM208 405 q7 19 12 31 q5 12 5 12 q-1 -20 -16 -60 q-14 -41 -26 -55 l25 72 ZM160 241 q-4 2 -4 2 q1 5 2 13 q2 7 10 8 q-3 -13 -5 -18 q-1 -5 -3 -5 l0 0 ZM200 263 q-5 -19 -6 -27 q-2 -8 -6 -8 q-3 2 -3 3 q0 1 2 9 q2 9 8 25 q2 -1 3 -1 q1 0 2 -1 l0 0 ZM219 334 q5 3 11 27 q6 24 11 27 q-3 -5 -11 -28 q-9 -23 -11 -26 l0 0 ZM281 406 q-2 -3 -2 -3 q3 5 24 39 q21 34 32 49 q5 7 18 21 q14 14 21 16 q-12 -5 -45 -49 q-33 -44 -48 -73 l0 0 ZM380 518 q-3 -6 -15 -16 q-11 -11 -21 -23 q-11 -15 -26 -36 q-15 -21 -17 -23 q4 11 32 44 q27 34 31 40 q4 1 10 9 q6 8 8 9 q0 -1 -1 -2 q0 -1 -1 -2 l0 0 ZM339 99 q0 1 1 3 q1 2 3 4 q23 22 46 57 q24 34 54 94 q1 3 3 3 q2 0 4 2 q-2 -15 -35 -69 q-32 -54 -66 -88 q-4 -2 -6 -4 q-3 -2 -4 -2 l0 0 ZM450 223 q-20 -43 -53 -90 q-32 -47 -76 -67 q-2 -1 -3 -2 q-1 0 -2 0 q30 7 74 69 q43 61 61 95 l-1 -5 Z" /><glyph glyph-name="" unicode="&#x143;" d="M458 258 q12 44 25 82 q12 38 32 81 q2 3 2 8 q-4 26 -30 42 q-27 17 -34 17 q-7 0 -13 -5 q-6 -5 -14 -16 q-1 -4 -6 -10 q-6 -7 -8 -9 q-51 -62 -96 -123 q-45 -61 -87 -131 q34 113 76 204 q42 92 57 117 q2 4 2 9 q1 4 1 8 q-1 10 -5 13 q-4 2 -5 2 q-1 -5 -25 -42 q-25 -37 -29 -40 q12 13 27 41 q14 27 24 45 q-1 2 -5 6 q-3 4 -17 4 q-3 0 -6 5 q-11 4 -23 6 q-13 3 -26 3 q-19 0 -42 -7 q-59 -22 -142 -92 q-83 -70 -91 -141 q2 -29 27 -51 q25 -23 52 -24 q1 0 3 2 q1 1 2 1 q2 0 3 -1 q3 0 5 2 q2 1 2 3 q-1 1 -5 10 q-4 9 -5 19 q6 62 68 136 q62 74 110 101 q-29 -46 -45 -89 q-15 -44 -32 -96 q-18 -55 -41 -141 q-22 -86 -24 -148 q0 -18 14 -49 q14 -31 38 -34 q1 0 3 1 q1 0 2 0 q3 3 4 6 q1 2 2 5 q28 63 65 135 q38 71 79 137 q-14 -23 -49 -68 q-35 -46 -36 -51 q5 10 47 70 q41 61 61 83 q12 20 25 37 q13 16 25 34 q-26 -80 -48 -162 q-23 -82 -24 -164 q2 -63 29 -87 q28 -24 60 -23 q18 0 30 5 q12 6 12 14 q0 5 -5 8 q-4 4 -9 5 q-16 7 -21 29 q-5 23 -5 45 q1 52 11 108 q11 56 26 108 l2 7 ZM36 294 q-22 14 -22 41 q0 34 36 88 q-13 -27 -20 -49 q-6 -22 -6 -41 q0 -11 3 -21 q4 -10 9 -18 l0 0 ZM142 113 q11 132 104 356 q-78 -218 -104 -356 l0 0 ZM375 341 q-29 -36 -74 -94 q-46 -57 -85 -121 q-5 -7 -8 -13 q-4 -6 -5 -6 q9 11 42 65 q34 54 48 76 q22 32 50 64 q28 32 37 34 l-5 -5 ZM418 -28 q-8 10 -12 26 q-4 16 -4 38 q0 78 47 228 q-40 -154 -40 -234 q0 -37 9 -58 l0 0 ZM509 625 q2 -1 3 -2 q1 0 2 0 q3 0 3 3 q0 9 -13 22 q-13 13 -39 14 q-24 -2 -54 -15 q-30 -14 -55 -16 q-5 0 -10 2 q-5 1 -8 1 q-3 0 -4 -1 q-1 -2 -1 -4 q1 -19 16 -30 q14 -12 24 -12 q33 2 71 20 q38 17 58 19 q4 0 7 -1 l0 0 Z" /><glyph glyph-name="" unicode="&#x147;" d="M458 258 q12 44 25 82 q12 38 32 81 q2 3 2 8 q-4 26 -30 42 q-27 17 -34 17 q-7 0 -13 -5 q-6 -5 -14 -16 q-1 -4 -6 -10 q-6 -7 -8 -9 q-51 -62 -96 -123 q-45 -61 -87 -131 q34 113 76 204 q42 92 57 117 q2 4 2 9 q1 4 1 8 q-1 10 -5 13 q-4 2 -5 2 q-1 -5 -25 -42 q-25 -37 -29 -40 q12 13 27 41 q14 27 24 45 q-1 2 -5 6 q-3 4 -17 4 q-3 0 -6 5 q-11 4 -23 6 q-13 3 -26 3 q-19 0 -42 -7 q-59 -22 -142 -92 q-83 -70 -91 -141 q2 -29 27 -51 q25 -23 52 -24 q1 0 3 2 q1 1 2 1 q2 0 3 -1 q3 0 5 2 q2 1 2 3 q-1 1 -5 10 q-4 9 -5 19 q6 62 68 136 q62 74 110 101 q-29 -46 -45 -89 q-15 -44 -32 -96 q-18 -55 -41 -141 q-22 -86 -24 -148 q0 -18 14 -49 q14 -31 38 -34 q1 0 3 1 q1 0 2 0 q3 3 4 6 q1 2 2 5 q28 63 65 135 q38 71 79 137 q-14 -23 -49 -68 q-35 -46 -36 -51 q5 10 47 70 q41 61 61 83 q12 20 25 37 q13 16 25 34 q-26 -80 -48 -162 q-23 -82 -24 -164 q2 -63 29 -87 q28 -24 60 -23 q18 0 30 5 q12 6 12 14 q0 5 -5 8 q-4 4 -9 5 q-16 7 -21 29 q-5 23 -5 45 q1 52 11 108 q11 56 26 108 l2 7 ZM36 294 q-22 14 -22 41 q0 34 36 88 q-13 -27 -20 -49 q-6 -22 -6 -41 q0 -11 3 -21 q4 -10 9 -18 l0 0 ZM142 113 q11 132 104 356 q-78 -218 -104 -356 l0 0 ZM375 341 q-29 -36 -74 -94 q-46 -57 -85 -121 q-5 -7 -8 -13 q-4 -6 -5 -6 q9 11 42 65 q34 54 48 76 q22 32 50 64 q28 32 37 34 l-5 -5 ZM418 -28 q-8 10 -12 26 q-4 16 -4 38 q0 78 47 228 q-40 -154 -40 -234 q0 -37 9 -58 l0 0 ZM411 598 q-18 25 -44 60 q-26 35 -51 39 q-13 -1 -28 -9 q-16 -9 -17 -17 q0 -1 2 -2 q1 -2 5 -3 q34 -14 61 -58 q28 -43 66 -49 q39 5 63 45 q25 40 56 53 q6 2 6 5 q-1 7 -14 14 q-13 6 -24 7 q-21 -3 -43 -34 q-23 -31 -38 -51 l0 0 Z" /><glyph glyph-name="" unicode="" d="M480 417 q-8 69 -63 115 q-55 46 -115 48 q-117 -5 -207 -89 q-90 -85 -95 -194 q0 -37 16 -69 q17 -31 53 -51 q-5 -18 -8 -38 q-3 -21 -3 -42 q1 -75 39 -116 q39 -41 102 -41 q87 6 146 90 q60 83 91 167 q20 52 32 107 q12 55 12 113 l0 0 ZM17 327 q18 108 144 198 q-54 -46 -90 -95 q-35 -50 -54 -103 l0 0 ZM66 355 q-3 -6 -6 -10 q-3 -5 -4 -5 q3 21 23 52 q20 30 26 36 q4 5 18 18 q13 13 20 15 q0 0 -4 -4 q-4 -4 -14 -17 q-15 -18 -32 -43 q-18 -25 -27 -42 l0 0 ZM167 -13 q-13 3 -20 18 q-7 14 -7 39 q0 23 7 54 q6 30 21 68 q3 0 6 0 q2 -1 5 -1 q24 0 43 3 q19 4 20 12 q-1 10 -9 20 q-9 10 -15 11 q-7 0 -16 -3 q-10 -4 -16 -4 q17 35 58 89 q41 54 68 60 q2 0 7 2 q4 1 5 7 q0 2 1 3 q-1 1 -3 2 q-2 0 -2 1 q0 2 2 3 q-5 1 -12 6 q-6 5 -6 6 q-2 1 -3 1 q-1 1 -2 1 l-3 1 q-8 4 -23 7 q-15 4 -33 4 q-48 -4 -85 -56 q-37 -51 -56 -97 q-13 15 -13 38 q6 72 86 148 q79 76 157 82 q33 0 52 -21 q18 -21 18 -65 q-6 -124 -82 -275 q-76 -151 -143 -165 q-4 0 -7 1 l0 0 ZM162 333 q40 54 85 54 q5 0 10 -1 q5 0 10 -1 q-28 0 -54 -13 q-27 -13 -51 -39 l0 0 ZM394 319 q-22 -94 -53 -161 q-31 -67 -71 -107 q37 49 68 116 q31 67 56 152 l0 0 ZM302 32 q20 39 65 121 q44 82 49 103 q-4 -18 -39 -95 q-36 -77 -61 -112 l-14 -17 ZM415 201 q-19 -50 -44 -93 q-24 -43 -26 -46 q0 1 -1 -1 q-2 -1 -2 -3 q26 54 50 99 q24 45 24 49 q-1 0 0 2 q1 1 1 2 l-2 -9 ZM386 657 q2 -1 3 -2 q1 0 2 0 q3 0 3 3 q0 9 -13 22 q-13 13 -39 14 q-24 -2 -54 -15 q-30 -14 -55 -16 q-5 0 -10 2 q-5 1 -8 1 q-3 0 -4 -1 q-1 -2 -1 -4 q1 -19 16 -30 q14 -12 24 -12 q33 2 71 20 q38 17 58 19 q4 0 7 -1 l0 0 Z" /><glyph glyph-name="" unicode="" d="M300 689 q16 -22 38 -51 q22 -29 43 -32 q11 1 23 8 q13 6 14 13 q0 3 -6 5 q-29 12 -52 49 q-23 36 -55 41 q-33 -4 -54 -38 q-20 -34 -46 -45 q-3 -1 -4 -2 q-1 -1 -1 -2 q1 -5 12 -11 q11 -6 20 -7 q18 3 37 29 q18 26 31 43 l0 0 ZM480 417 q-8 69 -63 115 q-55 46 -115 48 q-117 -5 -207 -89 q-90 -85 -95 -194 q0 -37 16 -69 q17 -31 53 -51 q-5 -18 -8 -38 q-3 -21 -3 -42 q1 -75 39 -116 q39 -41 102 -41 q87 6 146 90 q60 83 91 167 q20 52 32 107 q12 55 12 113 l0 0 ZM17 327 q18 108 144 198 q-54 -46 -90 -95 q-35 -50 -54 -103 l0 0 ZM66 355 q-3 -6 -6 -10 q-3 -5 -4 -5 q3 21 23 52 q20 30 26 36 q4 5 18 18 q13 13 20 15 q0 0 -4 -4 q-4 -4 -14 -17 q-15 -18 -32 -43 q-18 -25 -27 -42 l0 0 ZM167 -13 q-13 3 -20 18 q-7 14 -7 39 q0 23 7 54 q6 30 21 68 q3 0 6 0 q2 -1 5 -1 q24 0 43 3 q19 4 20 12 q-1 10 -9 20 q-9 10 -15 11 q-7 0 -16 -3 q-10 -4 -16 -4 q17 35 58 89 q41 54 68 60 q2 0 7 2 q4 1 5 7 q0 2 1 3 q-1 1 -3 2 q-2 0 -2 1 q0 2 2 3 q-5 1 -12 6 q-6 5 -6 6 q-2 1 -3 1 q-1 1 -2 1 l-3 1 q-8 4 -23 7 q-15 4 -33 4 q-48 -4 -85 -56 q-37 -51 -56 -97 q-13 15 -13 38 q6 72 86 148 q79 76 157 82 q33 0 52 -21 q18 -21 18 -65 q-6 -124 -82 -275 q-76 -151 -143 -165 q-4 0 -7 1 l0 0 ZM162 333 q40 54 85 54 q5 0 10 -1 q5 0 10 -1 q-28 0 -54 -13 q-27 -13 -51 -39 l0 0 ZM394 319 q-22 -94 -53 -161 q-31 -67 -71 -107 q37 49 68 116 q31 67 56 152 l0 0 ZM302 32 q20 39 65 121 q44 82 49 103 q-4 -18 -39 -95 q-36 -77 -61 -112 l-14 -17 ZM415 201 q-19 -50 -44 -93 q-24 -43 -26 -46 q0 1 -1 -1 q-2 -1 -2 -3 q26 54 50 99 q24 45 24 49 q-1 0 0 2 q1 1 1 2 l-2 -9 Z" /><glyph glyph-name="" unicode="&#x150;" d="M480 417 q-8 69 -63 115 q-55 46 -115 48 q-117 -5 -207 -89 q-90 -85 -95 -194 q0 -37 16 -69 q17 -31 53 -51 q-5 -18 -8 -38 q-3 -21 -3 -42 q1 -75 39 -116 q39 -41 102 -41 q87 6 146 90 q60 83 91 167 q20 52 32 107 q12 55 12 113 l0 0 ZM17 327 q18 108 144 198 q-54 -46 -90 -95 q-35 -50 -54 -103 l0 0 ZM66 355 q-3 -6 -6 -10 q-3 -5 -4 -5 q3 21 23 52 q20 30 26 36 q4 5 18 18 q13 13 20 15 q0 0 -4 -4 q-4 -4 -14 -17 q-15 -18 -32 -43 q-18 -25 -27 -42 l0 0 ZM167 -13 q-13 3 -20 18 q-7 14 -7 39 q0 23 7 54 q6 30 21 68 q3 0 6 0 q2 -1 5 -1 q24 0 43 3 q19 4 20 12 q-1 10 -9 20 q-9 10 -15 11 q-7 0 -16 -3 q-10 -4 -16 -4 q17 35 58 89 q41 54 68 60 q2 0 7 2 q4 1 5 7 q0 2 1 3 q-1 1 -3 2 q-2 0 -2 1 q0 2 2 3 q-5 1 -12 6 q-6 5 -6 6 q-2 1 -3 1 q-1 1 -2 1 l-3 1 q-8 4 -23 7 q-15 4 -33 4 q-48 -4 -85 -56 q-37 -51 -56 -97 q-13 15 -13 38 q6 72 86 148 q79 76 157 82 q33 0 52 -21 q18 -21 18 -65 q-6 -124 -82 -275 q-76 -151 -143 -165 q-4 0 -7 1 l0 0 ZM162 333 q40 54 85 54 q5 0 10 -1 q5 0 10 -1 q-28 0 -54 -13 q-27 -13 -51 -39 l0 0 ZM394 319 q-22 -94 -53 -161 q-31 -67 -71 -107 q37 49 68 116 q31 67 56 152 l0 0 ZM302 32 q20 39 65 121 q44 82 49 103 q-4 -18 -39 -95 q-36 -77 -61 -112 l-14 -17 ZM415 201 q-19 -50 -44 -93 q-24 -43 -26 -46 q0 1 -1 -1 q-2 -1 -2 -3 q26 54 50 99 q24 45 24 49 q-1 0 0 2 q1 1 1 2 l-2 -9 ZM358 686 q2 -1 3 -2 q1 0 2 0 q3 0 3 3 q0 9 -13 22 q-13 13 -39 14 q-24 -2 -54 -15 q-30 -14 -55 -16 q-5 0 -10 2 q-5 1 -8 1 q-3 0 -4 -1 q-1 -2 -1 -4 q1 -19 16 -30 q14 -12 24 -12 q33 2 71 20 q38 17 58 19 q4 0 7 -1 l0 0 ZM480 642 q2 -1 3 -2 q1 0 2 0 q3 0 3 3 q0 9 -13 22 q-13 13 -39 14 q-24 -2 -54 -15 q-30 -14 -55 -16 q-5 0 -10 2 q-5 1 -8 1 q-3 0 -4 -1 q-1 -2 -1 -4 q1 -19 16 -30 q14 -12 24 -12 q33 2 71 20 q38 17 58 19 q4 0 7 -1 l0 0 Z" /><glyph glyph-name="" unicode="" d="M480 417 q-8 69 -63 115 q-55 46 -115 48 q-117 -5 -207 -89 q-90 -85 -95 -194 q0 -37 16 -69 q17 -31 53 -51 q-5 -18 -8 -38 q-3 -21 -3 -42 q1 -75 39 -116 q39 -41 102 -41 q87 6 146 90 q60 83 91 167 q20 52 32 107 q12 55 12 113 l0 0 ZM17 327 q18 108 144 198 q-54 -46 -90 -95 q-35 -50 -54 -103 l0 0 ZM66 355 q-3 -6 -6 -10 q-3 -5 -4 -5 q3 21 23 52 q20 30 26 36 q4 5 18 18 q13 13 20 15 q0 0 -4 -4 q-4 -4 -14 -17 q-15 -18 -32 -43 q-18 -25 -27 -42 l0 0 ZM167 -13 q-13 3 -20 18 q-7 14 -7 39 q0 23 7 54 q6 30 21 68 q3 0 6 0 q2 -1 5 -1 q24 0 43 3 q19 4 20 12 q-1 10 -9 20 q-9 10 -15 11 q-7 0 -16 -3 q-10 -4 -16 -4 q17 35 58 89 q41 54 68 60 q2 0 7 2 q4 1 5 7 q0 2 1 3 q-1 1 -3 2 q-2 0 -2 1 q0 2 2 3 q-5 1 -12 6 q-6 5 -6 6 q-2 1 -3 1 q-1 1 -2 1 l-3 1 q-8 4 -23 7 q-15 4 -33 4 q-48 -4 -85 -56 q-37 -51 -56 -97 q-13 15 -13 38 q6 72 86 148 q79 76 157 82 q33 0 52 -21 q18 -21 18 -65 q-6 -124 -82 -275 q-76 -151 -143 -165 q-4 0 -7 1 l0 0 ZM162 333 q40 54 85 54 q5 0 10 -1 q5 0 10 -1 q-28 0 -54 -13 q-27 -13 -51 -39 l0 0 ZM394 319 q-22 -94 -53 -161 q-31 -67 -71 -107 q37 49 68 116 q31 67 56 152 l0 0 ZM302 32 q20 39 65 121 q44 82 49 103 q-4 -18 -39 -95 q-36 -77 -61 -112 l-14 -17 ZM415 201 q-19 -50 -44 -93 q-24 -43 -26 -46 q0 1 -1 -1 q-2 -1 -2 -3 q26 54 50 99 q24 45 24 49 q-1 0 0 2 q1 1 1 2 l-2 -9 ZM309 742 q-7 3 -15 4 q-8 1 -16 1 q-8 0 -13 -1 q-5 -1 -5 -3 q1 -2 6 -4 q5 -3 6 -8 q-1 -8 -9 -22 q-9 -13 -10 -28 q0 -6 8 -19 q9 -13 32 -15 q9 1 21 22 q13 20 14 43 q0 10 -4 18 q-5 7 -15 12 l0 0 ZM390 722 q-7 3 -15 4 q-8 1 -16 1 q-8 0 -13 -1 q-5 -1 -5 -3 q1 -2 6 -4 q5 -3 6 -8 q-1 -9 -9 -22 q-9 -13 -10 -28 q0 -7 9 -20 q9 -13 30 -14 q9 1 22 22 q13 20 14 43 q0 10 -4 18 q-5 7 -15 12 l0 0 Z" /><glyph glyph-name="" unicode="" d="M427 238 l-57 38 q41 35 58 59 q16 23 15 43 q-3 24 -25 30 q-22 5 -29 4 q0 0 -27 -20 q-28 -20 -76 -61 q-70 49 -101 68 q-32 20 -45 19 q-10 0 -14 -11 q-5 -11 -5 -38 q0 -49 86 -105 q-53 -44 -69 -67 q-17 -22 -16 -46 q0 -30 6 -44 q7 -13 18 -13 q24 2 64 39 q39 36 87 78 q53 -45 90 -76 q36 -32 56 -33 q12 0 18 15 q6 15 6 48 q-2 33 -20 53 q-17 19 -20 20 l0 0 Z" /><glyph glyph-name="" unicode="&#x158;" d="M622 -50 q0 1 -1 2 q0 0 -1 0 q-1 0 -1 0 q-1 1 -1 2 q0 2 2 3 q-2 1 -3 2 q-1 1 -2 1 q-1 0 -3 -1 q-11 -1 -22 -6 q-10 -5 -22 -6 q-81 5 -159 79 q-79 73 -129 155 q94 23 169 84 q74 60 78 182 q2 28 -12 72 q-14 43 -61 48 q-47 -4 -96 -60 q-48 -57 -85 -124 q15 48 30 88 q16 40 17 66 q-1 12 -5 16 q-4 4 -5 4 q0 1 -10 -24 q-10 -26 -29 -59 q1 4 12 27 q10 24 14 31 q4 11 6 19 q2 8 2 10 q-1 2 -6 4 q-6 2 -7 2 q-1 0 -4 0 q-3 0 -6 -1 q-1 0 -11 3 q-9 3 -20 3 q-82 -9 -163 -105 q-82 -96 -88 -172 q2 -31 27 -50 q26 -19 57 -19 q6 0 10 2 q3 1 3 5 q-1 5 -8 16 q-7 11 -8 29 q3 65 56 150 q52 85 113 115 q-29 -59 -84 -223 q-55 -164 -61 -282 q0 -23 4 -39 q4 -17 14 -25 q16 -14 32 -25 q17 -10 27 -11 q4 0 6 2 q2 2 2 7 q0 9 -1 19 q-1 10 -1 20 q0 35 6 78 q5 43 16 90 q40 -96 109 -179 q70 -82 171 -114 q11 -3 21 -3 q33 1 62 21 q28 20 43 50 q1 2 2 4 q1 2 2 3 q2 2 3 5 q0 2 0 4 q0 2 0 3 q-1 1 -1 2 l0 0 ZM34 251 q-12 9 -18 21 q-7 11 -7 26 q0 35 32 86 q-24 -48 -24 -85 q0 -14 4 -27 q5 -12 13 -21 l0 0 ZM491 347 q-54 -90 -147 -123 q96 53 147 123 l0 0 ZM132 128 q17 128 78 270 q-24 -76 -43 -143 q-20 -67 -35 -127 l0 0 ZM245 281 q3 26 16 51 q13 25 25 48 q18 37 31 54 q13 18 27 30 l-4 -5 q-24 -31 -47 -70 q-23 -39 -43 -98 q-4 -7 -4 -9 q-1 -1 -1 -1 l0 0 ZM366 453 q16 24 36 49 q21 25 37 27 q5 -1 7 -8 q1 -8 1 -16 q-3 -96 -61 -156 q-58 -61 -137 -102 q25 51 53 102 q28 50 59 97 l5 7 ZM303 22 q106 -127 239 -144 q-134 2 -239 144 l0 0 ZM373 621 q-18 25 -44 60 q-26 35 -50 38 q-13 -1 -28 -9 q-15 -9 -16 -16 q0 -2 1 -3 q2 -2 6 -3 q32 -13 60 -57 q27 -43 65 -49 q39 5 63 45 q24 40 55 52 q5 2 5 5 q-1 7 -14 14 q-12 6 -23 7 q-21 -3 -43 -34 q-23 -30 -37 -50 l0 0 Z" /><glyph glyph-name="" unicode="&#x16e;" d="M447 606 q15 13 23 28 q7 15 7 30 q0 24 -19 43 q-19 19 -56 20 q-28 -1 -42 -19 q-15 -18 -15 -44 q1 -34 19 -54 q18 -21 41 -21 q21 0 42 17 l0 0 ZM412 715 q39 -27 39 -53 q0 -15 -12 -29 q-11 -14 -33 -27 q-29 32 -29 60 q0 14 9 27 q8 12 26 22 l0 0 ZM474 256 q13 49 30 99 q17 49 39 95 q2 5 2 9 q-2 19 -23 37 q-22 17 -44 18 q-8 0 -14 -4 q-6 -3 -8 -11 q-27 -73 -51 -148 q-24 -74 -44 -158 q-30 -43 -70 -79 q-41 -37 -74 -39 q-7 0 -9 6 q-2 5 -2 13 q4 106 43 224 q40 118 70 212 q0 4 1 6 q0 2 0 5 q0 12 -3 15 q-4 3 -7 3 q-1 -1 -10 -24 q-10 -24 -29 -59 q4 5 13 27 q10 23 12 30 q3 10 6 18 q2 7 2 11 q0 0 -2 3 q-2 3 -8 3 l-12 0 q-3 0 -11 3 q-8 3 -17 3 q-82 -9 -165 -105 q-83 -97 -89 -174 q2 -31 27 -50 q26 -19 57 -19 q6 0 10 2 q3 1 3 5 q-1 5 -8 16 q-7 11 -8 29 q3 65 56 150 q52 85 113 115 q-52 -103 -95 -234 q-44 -130 -47 -238 q-1 -42 14 -76 q14 -34 55 -36 q45 2 88 40 q43 39 78 88 q-3 -27 -3 -51 q2 -74 31 -103 q30 -29 68 -28 q19 0 32 6 q13 6 13 15 q0 6 -5 9 q-5 4 -10 5 q-20 9 -26 37 q-6 28 -5 53 q0 56 11 114 q10 58 25 112 l0 0 ZM34 251 q-12 9 -18 21 q-7 11 -7 26 q0 35 32 86 q-24 -48 -24 -85 q0 -14 4 -27 q5 -12 13 -21 l0 0 ZM139 192 q22 126 91 265 q-28 -74 -50 -140 q-23 -66 -41 -125 l0 0 ZM169 214 q-3 -14 -3 -14 q7 54 22 100 q16 47 37 91 q-2 -14 -20 -62 q-19 -48 -36 -115 l0 0 ZM426 -13 q-3 15 -4 31 q-1 16 -1 33 q0 65 19 145 q19 80 58 175 q-72 -205 -73 -360 q1 -12 1 -24 l0 0 Z" /><glyph glyph-name="" unicode="" d="M474 256 q13 49 30 99 q17 49 39 95 q2 5 2 9 q-2 19 -23 37 q-22 17 -44 18 q-8 0 -14 -4 q-6 -3 -8 -11 q-27 -73 -51 -148 q-24 -74 -44 -158 q-30 -43 -70 -79 q-41 -37 -74 -39 q-7 0 -9 6 q-2 5 -2 13 q4 106 43 224 q40 118 70 212 q0 4 1 6 q0 2 0 5 q0 12 -3 15 q-4 3 -7 3 q-1 -1 -10 -24 q-10 -24 -29 -59 q4 5 13 27 q10 23 12 30 q3 10 6 18 q2 7 2 11 q0 0 -2 3 q-2 3 -8 3 l-12 0 q-3 0 -11 3 q-8 3 -17 3 q-82 -9 -165 -105 q-83 -97 -89 -174 q2 -31 27 -50 q26 -19 57 -19 q6 0 10 2 q3 1 3 5 q-1 5 -8 16 q-7 11 -8 29 q3 65 56 150 q52 85 113 115 q-52 -103 -95 -234 q-44 -130 -47 -238 q-1 -42 14 -76 q14 -34 55 -36 q45 2 88 40 q43 39 78 88 q-3 -27 -3 -51 q2 -74 31 -103 q30 -29 68 -28 q19 0 32 6 q13 6 13 15 q0 6 -5 9 q-5 4 -10 5 q-20 9 -26 37 q-6 28 -5 53 q0 56 11 114 q10 58 25 112 l0 0 ZM34 251 q-12 9 -18 21 q-7 11 -7 26 q0 35 32 86 q-24 -48 -24 -85 q0 -14 4 -27 q5 -12 13 -21 l0 0 ZM139 192 q22 126 91 265 q-28 -74 -50 -140 q-23 -66 -41 -125 l0 0 ZM169 214 q-3 -14 -3 -14 q7 54 22 100 q16 47 37 91 q-2 -14 -20 -62 q-19 -48 -36 -115 l0 0 ZM426 -13 q-3 15 -4 31 q-1 16 -1 33 q0 65 19 145 q19 80 58 175 q-72 -205 -73 -360 q1 -12 1 -24 l0 0 ZM464 654 q2 -1 3 -2 q1 0 2 0 q3 0 3 3 q0 9 -13 22 q-13 13 -39 14 q-24 -2 -54 -15 q-30 -14 -55 -16 q-5 0 -10 2 q-5 1 -8 1 q-3 0 -4 -1 q-1 -2 -1 -4 q1 -19 16 -30 q14 -12 24 -12 q33 2 71 20 q38 17 58 19 q4 0 7 -1 l0 0 Z" /><glyph glyph-name="" unicode="&#x170;" d="M474 256 q13 49 30 99 q17 49 39 95 q2 5 2 9 q-2 19 -23 37 q-22 17 -44 18 q-8 0 -14 -4 q-6 -3 -8 -11 q-27 -73 -51 -148 q-24 -74 -44 -158 q-30 -43 -70 -79 q-41 -37 -74 -39 q-7 0 -9 6 q-2 5 -2 13 q4 106 43 224 q40 118 70 212 q0 4 1 6 q0 2 0 5 q0 12 -3 15 q-4 3 -7 3 q-1 -1 -10 -24 q-10 -24 -29 -59 q4 5 13 27 q10 23 12 30 q3 10 6 18 q2 7 2 11 q0 0 -2 3 q-2 3 -8 3 l-12 0 q-3 0 -11 3 q-8 3 -17 3 q-82 -9 -165 -105 q-83 -97 -89 -174 q2 -31 27 -50 q26 -19 57 -19 q6 0 10 2 q3 1 3 5 q-1 5 -8 16 q-7 11 -8 29 q3 65 56 150 q52 85 113 115 q-52 -103 -95 -234 q-44 -130 -47 -238 q-1 -42 14 -76 q14 -34 55 -36 q45 2 88 40 q43 39 78 88 q-3 -27 -3 -51 q2 -74 31 -103 q30 -29 68 -28 q19 0 32 6 q13 6 13 15 q0 6 -5 9 q-5 4 -10 5 q-20 9 -26 37 q-6 28 -5 53 q0 56 11 114 q10 58 25 112 l0 0 ZM34 251 q-12 9 -18 21 q-7 11 -7 26 q0 35 32 86 q-24 -48 -24 -85 q0 -14 4 -27 q5 -12 13 -21 l0 0 ZM139 192 q22 126 91 265 q-28 -74 -50 -140 q-23 -66 -41 -125 l0 0 ZM169 214 q-3 -14 -3 -14 q7 54 22 100 q16 47 37 91 q-2 -14 -20 -62 q-19 -48 -36 -115 l0 0 ZM426 -13 q-3 15 -4 31 q-1 16 -1 33 q0 65 19 145 q19 80 58 175 q-72 -205 -73 -360 q1 -12 1 -24 l0 0 ZM435 657 q2 -1 3 -2 q1 0 2 0 q3 0 3 3 q0 9 -13 22 q-13 13 -39 14 q-24 -2 -54 -15 q-30 -14 -55 -16 q-5 0 -10 2 q-5 1 -8 1 q-3 0 -4 -1 q-1 -2 -1 -4 q1 -19 16 -30 q14 -12 24 -12 q33 2 71 20 q38 17 58 19 q4 0 7 -1 l0 0 ZM557 613 q2 -1 3 -2 q1 0 2 0 q3 0 3 3 q0 9 -13 22 q-13 13 -39 14 q-24 -2 -54 -15 q-30 -14 -55 -16 q-5 0 -10 2 q-5 1 -8 1 q-3 0 -4 -1 q-1 -2 -1 -4 q1 -19 16 -30 q14 -12 24 -12 q33 2 71 20 q38 17 58 19 q4 0 7 -1 l0 0 Z" /><glyph glyph-name="" unicode="" d="M474 256 q13 49 30 99 q17 49 39 95 q2 5 2 9 q-2 19 -23 37 q-22 17 -44 18 q-8 0 -14 -4 q-6 -3 -8 -11 q-27 -73 -51 -148 q-24 -74 -44 -158 q-30 -43 -70 -79 q-41 -37 -74 -39 q-7 0 -9 6 q-2 5 -2 13 q4 106 43 224 q40 118 70 212 q0 4 1 6 q0 2 0 5 q0 12 -3 15 q-4 3 -7 3 q-1 -1 -10 -24 q-10 -24 -29 -59 q4 5 13 27 q10 23 12 30 q3 10 6 18 q2 7 2 11 q0 0 -2 3 q-2 3 -8 3 l-12 0 q-3 0 -11 3 q-8 3 -17 3 q-82 -9 -165 -105 q-83 -97 -89 -174 q2 -31 27 -50 q26 -19 57 -19 q6 0 10 2 q3 1 3 5 q-1 5 -8 16 q-7 11 -8 29 q3 65 56 150 q52 85 113 115 q-52 -103 -95 -234 q-44 -130 -47 -238 q-1 -42 14 -76 q14 -34 55 -36 q45 2 88 40 q43 39 78 88 q-3 -27 -3 -51 q2 -74 31 -103 q30 -29 68 -28 q19 0 32 6 q13 6 13 15 q0 6 -5 9 q-5 4 -10 5 q-20 9 -26 37 q-6 28 -5 53 q0 56 11 114 q10 58 25 112 l0 0 ZM34 251 q-12 9 -18 21 q-7 11 -7 26 q0 35 32 86 q-24 -48 -24 -85 q0 -14 4 -27 q5 -12 13 -21 l0 0 ZM139 192 q22 126 91 265 q-28 -74 -50 -140 q-23 -66 -41 -125 l0 0 ZM169 214 q-3 -14 -3 -14 q7 54 22 100 q16 47 37 91 q-2 -14 -20 -62 q-19 -48 -36 -115 l0 0 ZM426 -13 q-3 15 -4 31 q-1 16 -1 33 q0 65 19 145 q19 80 58 175 q-72 -205 -73 -360 q1 -12 1 -24 l0 0 ZM373 683 q-7 3 -15 4 q-8 1 -16 1 q-8 0 -13 -1 q-5 -1 -5 -3 q1 -2 6 -4 q5 -3 6 -8 q-1 -8 -9 -22 q-9 -13 -10 -28 q0 -6 8 -19 q9 -13 32 -15 q9 1 21 22 q13 20 14 43 q0 10 -4 18 q-5 7 -15 12 l0 0 ZM454 663 q-7 3 -15 4 q-8 1 -16 1 q-8 0 -13 -1 q-5 -1 -5 -3 q1 -2 6 -4 q5 -3 6 -8 q-1 -9 -9 -22 q-9 -13 -10 -28 q0 -7 9 -20 q9 -13 30 -14 q9 1 22 22 q13 20 14 43 q0 10 -4 18 q-5 7 -15 12 l0 0 Z" /><glyph glyph-name="" unicode="" d="M525 483 q-8 6 -18 11 q-10 5 -20 5 q-25 -4 -41 -49 q-16 -44 -26 -80 q-22 -73 -42 -150 q-1 -1 -1 -3 q-30 -48 -75 -91 q-45 -44 -83 -50 q-5 0 -9 3 q-4 2 -4 14 q4 107 44 226 q40 120 69 213 q0 1 1 2 q0 1 0 2 q0 12 -4 17 q-3 4 -4 5 l-3 3 q-3 -6 -20 -45 q-18 -38 -18 -39 q20 38 27 58 q7 21 7 27 q0 2 -4 4 q-3 2 -6 3 q-3 0 -4 1 q-2 0 -3 0 q-3 0 -6 -1 q-3 0 -15 3 q-13 3 -25 3 q-81 -23 -158 -114 q-78 -91 -84 -166 q2 -31 27 -50 q26 -19 57 -19 q5 0 9 2 q4 1 4 5 q-1 5 -8 17 q-7 11 -8 29 q3 65 56 150 q52 84 113 114 q-52 -103 -95 -234 q-44 -130 -47 -238 q-1 -42 13 -76 q15 -34 55 -36 q46 2 89 41 q43 38 78 88 l-2 -9 q-8 -37 -16 -68 q-8 -31 -18 -54 q1 5 1 9 q0 8 -4 13 q-4 5 -12 5 q-23 -1 -51 -17 q-28 -16 -49 -32 l-5 -4 q-33 -23 -65 -57 q-32 -34 -34 -66 q2 -41 35 -68 q34 -28 74 -29 q13 0 24 4 q11 4 22 11 q93 67 139 175 q46 109 72 217 q20 80 42 161 q21 80 53 157 q1 2 1 4 q0 1 0 3 q-1 12 -9 23 q-9 11 -16 17 l0 0 ZM34 251 q-12 9 -18 21 q-7 11 -7 27 q0 34 32 85 q-24 -48 -24 -85 q0 -14 4 -27 q5 -12 13 -21 l0 0 ZM139 193 q11 62 34 129 q23 66 57 136 q-55 -148 -91 -265 l0 0 ZM143 -212 q4 32 52 78 q48 46 99 72 q6 5 10 11 l-2 -4 q-24 -47 -68 -100 q-44 -53 -88 -58 q-3 0 -3 1 l0 0 ZM161 -271 q5 -1 10 -2 q5 -1 11 -1 q54 0 132 77 q-70 -82 -123 -82 q-8 0 -15 2 q-8 2 -15 6 l0 0 ZM394 42 q12 31 22 74 q10 43 22 112 q-3 -54 -15 -102 q-13 -48 -31 -92 q0 1 0 3 q1 2 2 5 l0 0 ZM401 -18 q15 62 35 132 q19 69 48 161 q-30 -115 -49 -185 q-20 -69 -34 -108 l0 0 ZM472 637 q2 -1 3 -2 q1 0 2 0 q3 0 3 3 q0 9 -13 22 q-13 13 -39 14 q-24 -2 -54 -15 q-30 -14 -55 -16 q-5 0 -10 2 q-5 1 -8 1 q-3 0 -4 -1 q-1 -2 -1 -4 q1 -19 16 -30 q14 -12 24 -12 q33 2 71 20 q38 17 58 19 q4 0 7 -1 l0 0 Z" /><glyph glyph-name="" unicode="&#x162;" d="M728 627 q-6 -2 -9 -8 q-26 -35 -119 -45 q-94 -11 -165 -12 q-6 0 -12 0 q-5 -1 -10 -1 q-6 10 -20 23 q-13 13 -30 14 q-16 -1 -23 -14 q-7 -14 -11 -26 q-77 -2 -141 -5 q-64 -3 -141 -3 q-25 -1 -36 -20 q-11 -18 -11 -37 q0 -8 2 -15 q3 -6 7 -8 q31 -5 91 -58 q61 -53 118 -116 q-1 -2 -2 -6 q-1 -3 -2 -6 q-17 -45 -41 -125 q-25 -80 -27 -148 q1 -46 20 -65 q19 -20 48 -19 q21 0 41 13 l5 4 l-5 4 q-11 8 -16 23 q-5 16 -5 36 q3 74 35 163 q31 89 49 128 q36 87 77 172 q16 -1 38 -1 q21 -1 47 -1 q98 -2 184 14 q85 17 91 82 q-1 25 -9 44 q-8 18 -18 19 l0 0 ZM230 544 q-55 -9 -108 -10 q-39 0 -76 6 q27 -2 56 -2 q60 0 128 6 l0 0 ZM105 480 q53 0 94 -1 q40 -1 93 -4 l-2 -3 q-30 -70 -59 -142 q-30 36 -66 82 q-37 46 -60 68 l0 0 ZM288 313 q-7 -18 -30 -89 q-24 -71 -31 -81 q1 5 11 39 q9 34 16 56 q8 25 15 43 q8 18 15 32 l2 5 l2 -5 ZM225 61 q23 177 131 357 q-92 -180 -131 -357 l0 0 ZM720 515 q20 19 20 55 q0 14 -3 31 q4 -12 6 -22 q2 -10 2 -19 q0 -31 -25 -45 l0 0 ZM236 -100 q-7 3 -15 4 q-8 1 -16 1 q-8 0 -13 -1 q-5 -1 -5 -3 q1 -2 6 -4 q5 -3 6 -8 q-1 -9 -9 -22 q-9 -13 -10 -28 q0 -7 9 -20 q9 -13 30 -14 q9 1 22 22 q13 20 14 43 q0 10 -4 18 q-5 7 -15 12 l0 0 Z" /><glyph glyph-name="" unicode="" d="M10 -47 q38 -100 128 190 q90 289 129 396 q10 22 25 32 q15 10 30 10 q18 -1 33 -23 q14 -21 15 -50 q-10 -101 -78 -144 q-68 -43 -78 -70 q0 -10 13 -18 q12 -9 33 -10 q5 0 7 1 q3 0 3 0 q7 -7 15 -25 q7 -18 8 -47 q-1 -51 -33 -105 q-31 -53 -82 -57 q-17 1 -28 5 q-12 3 -12 4 q-4 -10 -6 -18 q-2 -9 -2 -18 q1 -35 27 -52 q26 -18 64 -18 q59 6 112 84 q52 78 56 162 q0 37 -17 65 q-18 28 -59 38 q59 27 95 87 q37 60 38 123 q1 49 -28 83 q-29 33 -94 34 q-109 -17 -195 -209 q-85 -192 -122 -359 q-3 -14 -6 -25 q-2 -12 0 -22 l9 -44 ZM186 446 q-24 -58 -53 -151 q-28 -93 -36 -124 l5 55 q10 63 47 147 q37 83 43 88 q0 -1 -6 -15 l0 0 ZM222 15 q52 28 76 93 q25 64 25 76 q1 -26 -18 -89 q-18 -62 -83 -80 l0 0 ZM96 160 l0 6 q0 0 1 5 q-1 -4 -1 -6 q0 -3 0 -5 l0 0 Z" /><glyph glyph-name="" unicode="&#x155;" d="M268 328 q-13 12 -27 11 q-52 -9 -99 -87 q-47 -79 -59 -121 q9 46 27 91 q18 46 33 81 q1 2 1 4 q0 1 0 3 q-1 16 -19 26 q-18 11 -37 11 q-6 0 -11 -1 q-5 -2 -7 -5 q-12 -18 -39 -101 q-28 -83 -31 -162 q0 -37 12 -59 q13 -22 43 -23 q6 0 10 4 q4 3 6 9 q12 54 40 112 q29 58 64 116 q-1 -12 -1 -22 q0 -45 11 -69 q11 -25 33 -25 q6 0 10 3 q4 4 4 11 q-2 13 -2 25 q3 58 24 92 q21 34 24 56 q0 5 -2 10 q-3 5 -8 10 l0 0 ZM39 191 q1 34 13 67 q11 32 34 63 q-17 -32 -29 -65 q-12 -33 -18 -65 l0 0 ZM189 241 q0 -20 1 -37 q0 -17 3 -31 q-9 17 -10 36 q0 15 6 32 l0 0 ZM260 409 q2 -1 3 -2 q1 0 2 0 q3 0 3 3 q0 9 -13 22 q-13 13 -39 14 q-24 -2 -54 -15 q-30 -14 -55 -16 q-5 0 -10 2 q-5 1 -8 1 q-3 0 -4 -1 q-1 -2 -1 -4 q1 -19 16 -30 q14 -12 24 -12 q33 2 71 20 q38 17 58 19 q4 0 7 -1 l0 0 Z" /><glyph glyph-name="" unicode="" d="M347 198 q-24 -27 -49 -75 q-26 -48 -58 -79 q1 38 14 82 q13 43 33 83 q1 2 1 5 q1 3 1 5 q-1 16 -16 29 q-14 13 -29 19 q-7 40 -31 60 q-25 20 -53 20 q-62 -6 -110 -88 q-47 -83 -50 -175 q0 -25 15 -57 q16 -32 54 -35 q27 4 52 24 q25 19 43 41 q4 -23 15 -39 q11 -17 31 -23 l4 -2 q9 -3 18 -3 q6 0 13 2 q7 2 14 7 q36 36 79 118 q42 82 46 97 q0 5 -5 5 q-5 0 -13 -6 q-9 -6 -19 -15 l0 0 ZM128 290 q-20 -26 -35 -43 q-16 -17 -14 -18 q-1 2 8 16 q10 14 11 17 q9 11 20 21 q12 10 14 11 q0 0 -4 -4 l0 0 ZM67 234 q-3 -5 -6 -13 q-4 -9 -5 -11 q4 31 23 57 q20 26 38 41 q-5 -3 -23 -30 q-18 -28 -27 -44 l0 0 ZM172 182 q-2 -3 -2 -6 q0 -5 4 -10 q4 -4 7 -6 q-5 -18 -48 -64 q-43 -46 -58 -52 q-3 1 -3 7 q4 40 43 131 q39 90 66 101 q4 0 5 -3 q1 -3 1 -11 q0 -19 -4 -45 q-5 -27 -11 -42 l0 0 ZM230 154 q-5 -22 -12 -46 q-7 -23 -11 -37 q1 11 15 68 q14 57 16 65 q2 7 4 10 q3 3 4 3 q0 0 -1 -3 q0 -7 -4 -23 q-5 -17 -11 -37 l0 0 ZM270 414 q2 -1 3 -2 q1 0 2 0 q3 0 3 3 q0 9 -13 22 q-13 13 -39 14 q-24 -2 -54 -15 q-30 -14 -55 -16 q-5 0 -10 2 q-5 1 -8 1 q-3 0 -4 -1 q-1 -2 -1 -4 q1 -19 16 -30 q14 -12 24 -12 q33 2 71 20 q38 17 58 19 q4 0 7 -1 l0 0 Z" /><glyph glyph-name="" unicode="" d="M191 453 q16 -22 38 -51 q22 -29 43 -32 q11 1 23 8 q13 6 14 13 q0 3 -6 5 q-29 12 -52 49 q-23 36 -55 41 q-33 -4 -54 -38 q-20 -34 -46 -45 q-3 -1 -4 -2 q-1 -1 -1 -2 q1 -5 12 -11 q11 -6 20 -7 q18 3 37 29 q18 26 31 43 l0 0 ZM347 198 q-24 -27 -49 -75 q-26 -48 -58 -79 q1 38 14 82 q13 43 33 83 q1 2 1 5 q1 3 1 5 q-1 16 -16 29 q-14 13 -29 19 q-7 40 -31 60 q-25 20 -53 20 q-62 -6 -110 -88 q-47 -83 -50 -175 q0 -25 15 -57 q16 -32 54 -35 q27 4 52 24 q25 19 43 41 q4 -23 15 -39 q11 -17 31 -23 l4 -2 q9 -3 18 -3 q6 0 13 2 q7 2 14 7 q36 36 79 118 q42 82 46 97 q0 5 -5 5 q-5 0 -13 -6 q-9 -6 -19 -15 l0 0 ZM128 290 q-20 -26 -35 -43 q-16 -17 -14 -18 q-1 2 8 16 q10 14 11 17 q9 11 20 21 q12 10 14 11 q0 0 -4 -4 l0 0 ZM67 234 q-3 -5 -6 -13 q-4 -9 -5 -11 q4 31 23 57 q20 26 38 41 q-5 -3 -23 -30 q-18 -28 -27 -44 l0 0 ZM172 182 q-2 -3 -2 -6 q0 -5 4 -10 q4 -4 7 -6 q-5 -18 -48 -64 q-43 -46 -58 -52 q-3 1 -3 7 q4 40 43 131 q39 90 66 101 q4 0 5 -3 q1 -3 1 -11 q0 -19 -4 -45 q-5 -27 -11 -42 l0 0 ZM230 154 q-5 -22 -12 -46 q-7 -23 -11 -37 q1 11 15 68 q14 57 16 65 q2 7 4 10 q3 3 4 3 q0 0 -1 -3 q0 -7 -4 -23 q-5 -17 -11 -37 l0 0 Z" /><glyph glyph-name="" unicode="&#x103;" d="M347 198 q-24 -27 -49 -75 q-26 -48 -58 -79 q1 38 14 82 q13 43 33 83 q1 2 1 5 q1 3 1 5 q-1 16 -16 29 q-14 13 -29 19 q-7 40 -31 60 q-25 20 -53 20 q-62 -6 -110 -88 q-47 -83 -50 -175 q0 -25 15 -57 q16 -32 54 -35 q27 4 52 24 q25 19 43 41 q4 -23 15 -39 q11 -17 31 -23 l4 -2 q9 -3 18 -3 q6 0 13 2 q7 2 14 7 q36 36 79 118 q42 82 46 97 q0 5 -5 5 q-5 0 -13 -6 q-9 -6 -19 -15 l0 0 ZM128 290 q-20 -26 -35 -43 q-16 -17 -14 -18 q-1 2 8 16 q10 14 11 17 q9 11 20 21 q12 10 14 11 q0 0 -4 -4 l0 0 ZM67 234 q-3 -5 -6 -13 q-4 -9 -5 -11 q4 31 23 57 q20 26 38 41 q-5 -3 -23 -30 q-18 -28 -27 -44 l0 0 ZM172 182 q-2 -3 -2 -6 q0 -5 4 -10 q4 -4 7 -6 q-5 -18 -48 -64 q-43 -46 -58 -52 q-3 1 -3 7 q4 40 43 131 q39 90 66 101 q4 0 5 -3 q1 -3 1 -11 q0 -19 -4 -45 q-5 -27 -11 -42 l0 0 ZM230 154 q-5 -22 -12 -46 q-7 -23 -11 -37 q1 11 15 68 q14 57 16 65 q2 7 4 10 q3 3 4 3 q0 0 -1 -3 q0 -7 -4 -23 q-5 -17 -11 -37 l0 0 ZM70 439 q47 -67 90 -67 q25 0 48 20 q24 20 47 59 q7 14 7 24 q0 8 -4 13 q-4 4 -9 4 q-4 0 -7 -3 q-3 -2 -4 -7 q-9 -25 -29 -39 q-20 -14 -47 -14 q-26 1 -46 17 q-20 16 -27 41 q4 6 4 10 q0 2 -2 4 q-2 1 -4 1 q-8 0 -16 -9 q-9 -8 -10 -25 q0 -6 2 -13 q2 -8 7 -16 l0 0 Z" /><glyph glyph-name="" unicode="" d="M347 198 q-24 -27 -49 -75 q-26 -48 -58 -79 q1 38 14 82 q13 43 33 83 q1 2 1 5 q1 3 1 5 q-1 16 -16 29 q-14 13 -29 19 q-7 40 -31 60 q-25 20 -53 20 q-62 -6 -110 -88 q-47 -83 -50 -175 q0 -25 15 -57 q16 -32 54 -35 q27 4 52 24 q25 19 43 41 q4 -23 15 -39 q11 -17 31 -23 l4 -2 q9 -3 18 -3 q6 0 13 2 q7 2 14 7 q36 36 79 118 q42 82 46 97 q0 5 -5 5 q-5 0 -13 -6 q-9 -6 -19 -15 l0 0 ZM128 290 q-20 -26 -35 -43 q-16 -17 -14 -18 q-1 2 8 16 q10 14 11 17 q9 11 20 21 q12 10 14 11 q0 0 -4 -4 l0 0 ZM67 234 q-3 -5 -6 -13 q-4 -9 -5 -11 q4 31 23 57 q20 26 38 41 q-5 -3 -23 -30 q-18 -28 -27 -44 l0 0 ZM172 182 q-2 -3 -2 -6 q0 -5 4 -10 q4 -4 7 -6 q-5 -18 -48 -64 q-43 -46 -58 -52 q-3 1 -3 7 q4 40 43 131 q39 90 66 101 q4 0 5 -3 q1 -3 1 -11 q0 -19 -4 -45 q-5 -27 -11 -42 l0 0 ZM230 154 q-5 -22 -12 -46 q-7 -23 -11 -37 q1 11 15 68 q14 57 16 65 q2 7 4 10 q3 3 4 3 q0 0 -1 -3 q0 -7 -4 -23 q-5 -17 -11 -37 l0 0 ZM166 493 q-7 3 -15 4 q-8 1 -16 1 q-8 0 -13 -1 q-5 -1 -5 -3 q1 -2 6 -4 q5 -3 6 -8 q-1 -8 -9 -22 q-9 -13 -10 -28 q0 -6 8 -19 q9 -13 32 -15 q9 1 21 22 q13 20 14 43 q0 10 -4 18 q-5 7 -15 12 l0 0 ZM247 473 q-7 3 -15 4 q-8 1 -16 1 q-8 0 -13 -1 q-5 -1 -5 -3 q1 -2 6 -4 q5 -3 6 -8 q-1 -9 -9 -22 q-9 -13 -10 -28 q0 -7 9 -20 q9 -13 30 -14 q9 1 22 22 q13 20 14 43 q0 10 -4 18 q-5 7 -15 12 l0 0 Z" /><glyph glyph-name="" unicode="&#x13a;" d="M186 198 q-26 -30 -54 -82 q-28 -52 -67 -76 q-2 10 -2 22 q4 84 48 201 q43 117 75 189 q3 7 4 14 q1 7 1 14 q-1 25 -13 43 q-12 18 -27 19 q-4 0 -7 -1 q-22 -19 -79 -169 q-58 -150 -65 -279 q0 -44 14 -71 q15 -26 49 -27 q49 7 88 77 q38 70 64 122 q8 15 8 21 q0 5 -5 5 q-5 0 -13 -6 q-9 -6 -19 -16 l0 0 ZM23 162 q8 57 28 125 q20 67 51 140 q-28 -79 -48 -144 q-20 -66 -31 -121 l0 0 ZM205 603 q2 -1 3 -2 q1 0 2 0 q3 0 3 3 q0 9 -13 22 q-13 13 -39 14 q-24 -2 -54 -15 q-30 -14 -55 -16 q-5 0 -10 2 q-5 1 -8 1 q-3 0 -4 -1 q-1 -2 -1 -4 q1 -19 16 -30 q14 -12 24 -12 q33 2 71 20 q38 17 58 19 q4 0 7 -1 l0 0 Z" /><glyph glyph-name="" unicode="&#x107;" d="M272 197 q-19 -24 -55 -81 q-36 -58 -90 -65 q-22 0 -33 15 q-10 14 -10 37 q0 22 9 49 q12 36 40 79 q28 44 47 48 q8 0 8 -12 q0 -10 -7 -28 q-7 -17 -18 -37 q-3 -4 -3 -9 q0 -5 3 -8 q4 -3 9 -3 q30 5 51 46 q22 41 23 60 q-1 23 -21 39 q-20 16 -44 17 q-71 -7 -125 -90 q-53 -84 -56 -160 q1 -38 31 -68 q30 -29 82 -31 q59 3 100 55 q40 51 70 112 l12 22 q5 11 9 18 q3 8 3 12 q0 4 -3 4 q-7 0 -32 -21 l0 0 ZM50 194 q-2 -6 -3 -8 q-2 -3 -2 -3 q0 18 17 48 q16 29 46 56 q8 7 9 7 q-5 -3 -28 -34 q-23 -30 -32 -50 q-1 -2 -3 -6 q-2 -5 -4 -10 l0 0 ZM73 206 q3 18 21 36 q17 18 20 19 q-11 -11 -23 -29 q-13 -19 -18 -26 l0 0 ZM230 399 q2 -1 3 -2 q1 0 2 0 q3 0 3 3 q0 9 -13 22 q-13 13 -39 14 q-24 -2 -54 -15 q-30 -14 -55 -16 q-5 0 -10 2 q-5 1 -8 1 q-3 0 -4 -1 q-1 -2 -1 -4 q1 -19 16 -30 q14 -12 24 -12 q33 2 71 20 q38 17 58 19 q4 0 7 -1 l0 0 Z" /><glyph glyph-name="" unicode="" d="M272 197 q-19 -24 -55 -81 q-36 -58 -90 -65 q-22 0 -33 15 q-10 14 -10 37 q0 22 9 49 q12 36 40 79 q28 44 47 48 q8 0 8 -12 q0 -10 -7 -28 q-7 -17 -18 -37 q-3 -4 -3 -9 q0 -5 3 -8 q4 -3 9 -3 q30 5 51 46 q22 41 23 60 q-1 23 -21 39 q-20 16 -44 17 q-71 -7 -125 -90 q-53 -84 -56 -160 q1 -38 31 -68 q30 -29 82 -31 q59 3 100 55 q40 51 70 112 l12 22 q5 11 9 18 q3 8 3 12 q0 4 -3 4 q-7 0 -32 -21 l0 0 ZM50 194 q-2 -6 -3 -8 q-2 -3 -2 -3 q0 18 17 48 q16 29 46 56 q8 7 9 7 q-5 -3 -28 -34 q-23 -30 -32 -50 q-1 -2 -3 -6 q-2 -5 -4 -10 l0 0 ZM73 206 q3 18 21 36 q17 18 20 19 q-11 -11 -23 -29 q-13 -19 -18 -26 l0 0 ZM108 -23 q-43 18 -43 35 q0 21 66 40 q-21 -13 -21 -25 q0 -16 38 -30 q22 -15 32 -32 q10 -17 10 -34 q-1 -30 -24 -51 q-23 -20 -58 -21 q-27 0 -52 15 q-25 15 -27 41 q1 12 7 21 q7 9 13 9 q3 0 4 -3 q1 -4 1 -10 q11 -16 24 -22 q12 -6 23 -6 q18 1 31 11 q12 11 12 26 q0 11 -8 20 q-9 10 -28 16 l0 0 Z" /><glyph glyph-name="" unicode="&#x10d;" d="M272 197 q-19 -24 -55 -81 q-36 -58 -90 -65 q-22 0 -33 15 q-10 14 -10 37 q0 22 9 49 q12 36 40 79 q28 44 47 48 q8 0 8 -12 q0 -10 -7 -28 q-7 -17 -18 -37 q-3 -4 -3 -9 q0 -5 3 -8 q4 -3 9 -3 q30 5 51 46 q22 41 23 60 q-1 23 -21 39 q-20 16 -44 17 q-71 -7 -125 -90 q-53 -84 -56 -160 q1 -38 31 -68 q30 -29 82 -31 q59 3 100 55 q40 51 70 112 l12 22 q5 11 9 18 q3 8 3 12 q0 4 -3 4 q-7 0 -32 -21 l0 0 ZM50 194 q-2 -6 -3 -8 q-2 -3 -2 -3 q0 18 17 48 q16 29 46 56 q8 7 9 7 q-5 -3 -28 -34 q-23 -30 -32 -50 q-1 -2 -3 -6 q-2 -5 -4 -10 l0 0 ZM73 206 q3 18 21 36 q17 18 20 19 q-11 -11 -23 -29 q-13 -19 -18 -26 l0 0 ZM153 394 q-16 20 -38 50 q-22 30 -43 33 q-10 -1 -23 -7 q-13 -7 -14 -14 q0 -2 1 -3 q1 -1 5 -2 q28 -12 51 -48 q23 -37 56 -42 q32 4 53 38 q21 34 47 45 q2 0 4 1 q1 1 1 2 q-1 6 -12 12 q-11 6 -20 6 q-18 -3 -37 -28 q-18 -26 -31 -43 l0 0 Z" /><glyph glyph-name="" unicode="" d="M274 198 q-21 -25 -59 -82 q-38 -58 -87 -65 q-27 1 -37 15 q-10 14 -10 34 q0 7 1 14 q1 7 3 14 q7 -3 16 -3 q49 3 96 53 q47 49 51 103 q-1 26 -20 44 q-19 18 -47 19 q-68 -7 -123 -92 q-55 -84 -58 -164 q1 -37 32 -64 q30 -28 80 -29 q61 3 102 55 q41 52 72 114 l12 21 q11 20 11 29 q0 4 -3 4 q-4 0 -11 -5 q-8 -5 -21 -15 l0 0 ZM129 152 q44 33 63 91 q-7 -33 -23 -56 q-15 -23 -40 -35 l0 0 ZM185 276 q1 -1 1 -3 q1 -2 1 -5 q-1 -26 -26 -69 q-26 -43 -62 -48 q-2 0 -3 0 q-2 0 -4 1 q6 18 35 70 q29 51 52 57 q3 0 6 -3 l0 0 ZM52 213 q-5 -6 -8 -16 q-4 -10 -5 -11 q0 14 18 45 q17 32 54 66 q-3 -7 -25 -37 q-23 -29 -34 -47 l0 0 ZM81 216 q3 19 28 46 q25 28 30 31 q-3 -6 -27 -39 q-25 -34 -31 -38 l0 0 ZM218 395 q2 -1 3 -2 q1 0 2 0 q3 0 3 3 q0 9 -13 22 q-13 13 -39 14 q-24 -2 -54 -15 q-30 -14 -55 -16 q-5 0 -10 2 q-5 1 -8 1 q-3 0 -4 -1 q-1 -2 -1 -4 q1 -19 16 -30 q14 -12 24 -12 q33 2 71 20 q38 17 58 19 q4 0 7 -1 l0 0 Z" /><glyph glyph-name="" unicode="&#x119;" d="M274 198 q-21 -25 -59 -82 q-38 -58 -87 -65 q-27 1 -37 15 q-10 14 -10 34 q0 7 1 14 q1 7 3 14 q7 -3 16 -3 q49 3 96 53 q47 49 51 103 q-1 26 -20 44 q-19 18 -47 19 q-68 -7 -123 -92 q-55 -84 -58 -164 q1 -37 32 -64 q30 -28 80 -29 q61 3 102 55 q41 52 72 114 l12 21 q11 20 11 29 q0 4 -3 4 q-4 0 -11 -5 q-8 -5 -21 -15 l0 0 ZM129 152 q44 33 63 91 q-7 -33 -23 -56 q-15 -23 -40 -35 l0 0 ZM185 276 q1 -1 1 -3 q1 -2 1 -5 q-1 -26 -26 -69 q-26 -43 -62 -48 q-2 0 -3 0 q-2 0 -4 1 q6 18 35 70 q29 51 52 57 q3 0 6 -3 l0 0 ZM52 213 q-5 -6 -8 -16 q-4 -10 -5 -11 q0 14 18 45 q17 32 54 66 q-3 -7 -25 -37 q-23 -29 -34 -47 l0 0 ZM81 216 q3 19 28 46 q25 28 30 31 q-3 -6 -27 -39 q-25 -34 -31 -38 l0 0 ZM143 -29 q-43 18 -43 35 q0 21 66 40 q-21 -13 -21 -25 q0 -16 38 -30 q22 -15 32 -32 q10 -17 10 -34 q-1 -30 -24 -51 q-23 -20 -58 -21 q-27 0 -52 15 q-25 15 -27 41 q1 12 7 21 q7 9 13 9 q3 0 4 -3 q1 -4 1 -10 q11 -16 24 -22 q12 -6 23 -6 q18 1 31 11 q12 11 12 26 q0 11 -8 20 q-9 10 -28 16 l0 0 Z" /><glyph glyph-name="" unicode="" d="M274 198 q-21 -25 -59 -82 q-38 -58 -87 -65 q-27 1 -37 15 q-10 14 -10 34 q0 7 1 14 q1 7 3 14 q7 -3 16 -3 q49 3 96 53 q47 49 51 103 q-1 26 -20 44 q-19 18 -47 19 q-68 -7 -123 -92 q-55 -84 -58 -164 q1 -37 32 -64 q30 -28 80 -29 q61 3 102 55 q41 52 72 114 l12 21 q11 20 11 29 q0 4 -3 4 q-4 0 -11 -5 q-8 -5 -21 -15 l0 0 ZM129 152 q44 33 63 91 q-7 -33 -23 -56 q-15 -23 -40 -35 l0 0 ZM185 276 q1 -1 1 -3 q1 -2 1 -5 q-1 -26 -26 -69 q-26 -43 -62 -48 q-2 0 -3 0 q-2 0 -4 1 q6 18 35 70 q29 51 52 57 q3 0 6 -3 l0 0 ZM52 213 q-5 -6 -8 -16 q-4 -10 -5 -11 q0 14 18 45 q17 32 54 66 q-3 -7 -25 -37 q-23 -29 -34 -47 l0 0 ZM81 216 q3 19 28 46 q25 28 30 31 q-3 -6 -27 -39 q-25 -34 -31 -38 l0 0 ZM161 471 q-7 3 -15 4 q-8 1 -16 1 q-8 0 -13 -1 q-5 -1 -5 -3 q1 -2 6 -4 q5 -3 6 -8 q-1 -8 -9 -22 q-9 -13 -10 -28 q0 -6 8 -19 q9 -13 32 -15 q9 1 21 22 q13 20 14 43 q0 10 -4 18 q-5 7 -15 12 l0 0 ZM242 451 q-7 3 -15 4 q-8 1 -16 1 q-8 0 -13 -1 q-5 -1 -5 -3 q1 -2 6 -4 q5 -3 6 -8 q-1 -9 -9 -22 q-9 -13 -10 -28 q0 -7 9 -20 q9 -13 30 -14 q9 1 22 22 q13 20 14 43 q0 10 -4 18 q-5 7 -15 12 l0 0 Z" /><glyph glyph-name="" unicode="&#x11b;" d="M274 198 q-21 -25 -59 -82 q-38 -58 -87 -65 q-27 1 -37 15 q-10 14 -10 34 q0 7 1 14 q1 7 3 14 q7 -3 16 -3 q49 3 96 53 q47 49 51 103 q-1 26 -20 44 q-19 18 -47 19 q-68 -7 -123 -92 q-55 -84 -58 -164 q1 -37 32 -64 q30 -28 80 -29 q61 3 102 55 q41 52 72 114 l12 21 q11 20 11 29 q0 4 -3 4 q-4 0 -11 -5 q-8 -5 -21 -15 l0 0 ZM129 152 q44 33 63 91 q-7 -33 -23 -56 q-15 -23 -40 -35 l0 0 ZM185 276 q1 -1 1 -3 q1 -2 1 -5 q-1 -26 -26 -69 q-26 -43 -62 -48 q-2 0 -3 0 q-2 0 -4 1 q6 18 35 70 q29 51 52 57 q3 0 6 -3 l0 0 ZM52 213 q-5 -6 -8 -16 q-4 -10 -5 -11 q0 14 18 45 q17 32 54 66 q-3 -7 -25 -37 q-23 -29 -34 -47 l0 0 ZM81 216 q3 19 28 46 q25 28 30 31 q-3 -6 -27 -39 q-25 -34 -31 -38 l0 0 ZM173 399 q-12 17 -30 42 q-18 24 -36 27 q-8 0 -19 -6 q-10 -6 -11 -12 q0 -1 1 -2 q1 -1 4 -2 q23 -9 42 -40 q19 -30 45 -34 q27 4 44 31 q17 28 39 37 q4 2 4 3 q-1 5 -10 10 q-9 5 -16 5 q-15 -2 -31 -23 q-16 -22 -26 -36 l0 0 Z" /><glyph glyph-name="" unicode="" d="M190 197 q-26 -29 -55 -79 q-29 -49 -67 -76 q1 45 23 108 q22 62 58 126 q3 5 4 10 q1 5 1 9 q-1 21 -20 34 q-19 13 -38 13 q-6 0 -11 -2 q-4 -2 -6 -6 q-32 -71 -55 -138 q-23 -68 -24 -119 q0 -33 15 -57 q15 -24 48 -25 q49 12 104 101 q55 89 60 117 q0 5 -5 5 q-5 0 -13 -6 q-9 -6 -19 -15 l0 0 ZM61 81 q-1 -5 -1 -9 q-1 -3 -2 -3 q-1 0 -1 2 q0 2 0 8 q3 33 23 89 q19 55 32 61 q-4 -5 -25 -62 q-22 -58 -26 -86 l0 0 ZM200 413 q2 -1 3 -2 q1 0 2 0 q3 0 3 3 q0 9 -13 22 q-13 13 -39 14 q-24 -2 -54 -15 q-30 -14 -55 -16 q-5 0 -10 2 q-5 1 -8 1 q-3 0 -4 -1 q-1 -2 -1 -4 q1 -19 16 -30 q14 -12 24 -12 q33 2 71 20 q38 17 58 19 q4 0 7 -1 l0 0 Z" /><glyph glyph-name="" unicode="" d="M190 197 q-26 -29 -55 -79 q-29 -49 -67 -76 q1 45 23 108 q22 62 58 126 q3 5 4 10 q1 5 1 9 q-1 21 -20 34 q-19 13 -38 13 q-6 0 -11 -2 q-4 -2 -6 -6 q-32 -71 -55 -138 q-23 -68 -24 -119 q0 -33 15 -57 q15 -24 48 -25 q49 12 104 101 q55 89 60 117 q0 5 -5 5 q-5 0 -13 -6 q-9 -6 -19 -15 l0 0 ZM61 81 q-1 -5 -1 -9 q-1 -3 -2 -3 q-1 0 -1 2 q0 2 0 8 q3 33 23 89 q19 55 32 61 q-4 -5 -25 -62 q-22 -58 -26 -86 l0 0 ZM115 462 q16 -22 38 -51 q22 -29 43 -32 q11 1 23 8 q13 6 14 13 q0 3 -6 5 q-29 12 -52 49 q-23 36 -55 41 q-33 -4 -54 -38 q-20 -34 -46 -45 q-3 -1 -4 -2 q-1 -1 -1 -2 q1 -5 12 -11 q11 -6 20 -7 q18 3 37 29 q18 26 31 43 l0 0 Z" /><glyph glyph-name="" unicode="&#x10f;" d="M366 198 q-26 -30 -57 -82 q-31 -52 -73 -76 q-2 11 -2 23 q4 80 44 189 q39 110 73 186 l6 15 q6 14 5 27 q-1 26 -13 44 q-13 18 -28 19 q-11 -1 -41 -61 q-30 -61 -66 -169 q-12 14 -27 22 q-16 7 -33 7 q-56 -5 -104 -83 q-47 -79 -50 -174 q-2 -5 8 -44 q9 -38 51 -44 q29 1 59 25 q29 24 53 56 q3 -41 20 -61 q17 -21 42 -21 q43 5 83 64 q40 59 69 115 l10 19 q8 15 8 21 q0 5 -5 5 q-5 0 -13 -6 q-9 -6 -19 -16 l0 0 ZM60 236 q35 73 84 88 q-48 -31 -84 -88 l0 0 ZM150 94 q-9 -10 -19 -20 q-10 -10 -11 -11 q1 2 22 31 q21 28 37 54 q-11 -28 -29 -54 l0 0 ZM167 182 q-2 -3 -2 -6 q0 -5 4 -10 q4 -4 7 -6 l0 -5 q-31 -48 -66 -83 q-35 -36 -42 -38 q-3 0 -3 8 q4 44 44 137 q40 93 67 104 q4 0 5 -3 q1 -3 1 -11 q0 -19 -4 -45 q-5 -27 -11 -42 l0 0 ZM222 96 q2 90 62 218 q-21 -53 -36 -107 q-16 -55 -26 -111 l0 0 ZM435 416 q-1 13 -10 22 q-9 9 -21 9 q-22 -4 -37 -49 q-15 -45 -35 -79 q-1 -1 -1 -2 q0 -2 0 -3 q0 -7 6 -14 q6 -7 14 -7 q23 5 52 49 q29 45 32 74 l0 0 ZM381 326 q30 48 49 87 q-7 -37 -49 -87 l0 0 Z" /><glyph glyph-name="" unicode="&#x111;" d="M366 198 q-26 -30 -57 -82 q-31 -52 -73 -76 q-2 11 -2 23 q4 80 44 189 q39 110 73 186 l6 15 q6 14 5 27 q-1 26 -13 44 q-13 18 -28 19 q-11 -1 -41 -61 q-30 -61 -66 -169 q-12 14 -27 22 q-16 7 -33 7 q-56 -5 -104 -83 q-47 -79 -50 -174 q-2 -5 8 -44 q9 -38 51 -44 q29 1 59 25 q29 24 53 56 q3 -41 20 -61 q17 -21 42 -21 q43 5 83 64 q40 59 69 115 l10 19 q8 15 8 21 q0 5 -5 5 q-5 0 -13 -6 q-9 -6 -19 -16 l0 0 ZM60 236 q35 73 84 88 q-48 -31 -84 -88 l0 0 ZM150 94 q-9 -10 -19 -20 q-10 -10 -11 -11 q1 2 22 31 q21 28 37 54 q-11 -28 -29 -54 l0 0 ZM167 182 q-2 -3 -2 -6 q0 -5 4 -10 q4 -4 7 -6 l0 -5 q-31 -48 -66 -83 q-35 -36 -42 -38 q-3 0 -3 8 q4 44 44 137 q40 93 67 104 q4 0 5 -3 q1 -3 1 -11 q0 -19 -4 -45 q-5 -27 -11 -42 l0 0 ZM222 96 q2 90 62 218 q-21 -53 -36 -107 q-16 -55 -26 -111 l0 0 ZM372 446 q-33 5 -66 5 q-18 0 -36 -2 q-18 -2 -36 -4 q-13 -4 -18 -26 q-4 -23 -4 -37 q0 -5 1 -8 q1 -3 3 -3 q16 0 33 3 q18 3 35 3 q22 0 43 -4 q21 -3 38 -4 q9 1 13 13 q4 11 4 27 q0 14 -3 25 q-2 11 -7 12 l0 0 ZM240 436 q30 8 66 8 q6 0 12 0 q6 -1 13 -1 q-46 -3 -91 -7 l0 0 Z" /><glyph glyph-name="" unicode="&#x144;" d="M345 198 q-26 -29 -55 -77 q-29 -49 -67 -77 q7 60 44 141 q37 81 42 108 q-1 20 -16 34 q-16 14 -38 15 q-30 -1 -65 -36 q-35 -35 -69 -85 q10 18 25 42 q14 24 16 36 q0 5 -2 10 q-2 4 -6 9 q-5 -5 -27 -48 q-22 -44 -29 -71 q-1 1 -1 3 q0 1 0 3 q2 23 23 59 q20 36 28 49 l5 6 q-10 12 -25 21 q-14 9 -27 10 q-10 0 -15 -9 q-49 -98 -68 -163 q-19 -65 -18 -103 q1 -41 14 -57 q12 -17 25 -16 q5 0 9 3 q3 2 4 7 q37 91 91 169 q54 78 71 93 q-9 -19 -33 -82 q-25 -64 -28 -125 q1 -35 17 -54 q16 -18 36 -18 q62 13 117 105 q54 92 58 114 q0 5 -4 5 q-5 0 -14 -6 q-9 -6 -18 -15 l0 0 ZM181 38 q-4 2 -6 16 q-2 14 -2 18 q1 23 12 58 q11 35 13 39 q-1 -4 -10 -43 q-9 -40 -10 -65 q0 -9 2 -16 q1 -6 1 -7 l0 0 ZM205 127 q-3 -13 -5 -43 q-2 -31 -4 -35 q0 1 -1 11 q-1 9 -1 17 q1 16 5 35 q4 19 6 21 q0 0 0 -3 q0 -2 0 -3 l0 0 ZM282 414 q2 -1 3 -2 q1 0 2 0 q3 0 3 3 q0 9 -13 22 q-13 13 -39 14 q-24 -2 -54 -15 q-30 -14 -55 -16 q-5 0 -10 2 q-5 1 -8 1 q-3 0 -4 -1 q-1 -2 -1 -4 q1 -19 16 -30 q14 -12 24 -12 q33 2 71 20 q38 17 58 19 q4 0 7 -1 l0 0 Z" /><glyph glyph-name="" unicode="&#x148;" d="M345 198 q-26 -29 -55 -77 q-29 -49 -67 -77 q7 60 44 141 q37 81 42 108 q-1 20 -16 34 q-16 14 -38 15 q-30 -1 -65 -36 q-35 -35 -69 -85 q10 18 25 42 q14 24 16 36 q0 5 -2 10 q-2 4 -6 9 q-5 -5 -27 -48 q-22 -44 -29 -71 q-1 1 -1 3 q0 1 0 3 q2 23 23 59 q20 36 28 49 l5 6 q-10 12 -25 21 q-14 9 -27 10 q-10 0 -15 -9 q-49 -98 -68 -163 q-19 -65 -18 -103 q1 -41 14 -57 q12 -17 25 -16 q5 0 9 3 q3 2 4 7 q37 91 91 169 q54 78 71 93 q-9 -19 -33 -82 q-25 -64 -28 -125 q1 -35 17 -54 q16 -18 36 -18 q62 13 117 105 q54 92 58 114 q0 5 -4 5 q-5 0 -14 -6 q-9 -6 -18 -15 l0 0 ZM181 38 q-4 2 -6 16 q-2 14 -2 18 q1 23 12 58 q11 35 13 39 q-1 -4 -10 -43 q-9 -40 -10 -65 q0 -9 2 -16 q1 -6 1 -7 l0 0 ZM205 127 q-3 -13 -5 -43 q-2 -31 -4 -35 q0 1 -1 11 q-1 9 -1 17 q1 16 5 35 q4 19 6 21 q0 0 0 -3 q0 -2 0 -3 l0 0 ZM199 416 q-16 20 -38 50 q-22 30 -43 33 q-10 -1 -23 -7 q-13 -7 -14 -14 q0 -2 1 -3 q1 -1 5 -2 q28 -12 51 -48 q23 -37 56 -42 q32 4 53 38 q21 34 47 45 q2 0 4 1 q1 1 1 2 q-1 6 -12 12 q-11 6 -20 6 q-18 -3 -37 -28 q-18 -26 -31 -43 l0 0 Z" /><glyph glyph-name="" unicode="" d="M330 203 q-24 -24 -38 -46 q-14 -22 -34 -37 q13 27 20 56 q7 29 7 57 q0 47 -25 87 q-26 39 -82 42 q-46 -1 -78 -36 q-32 -35 -33 -85 q0 -6 1 -14 q-8 7 -18 10 q-9 4 -16 4 q-17 -5 -25 -49 q-9 -44 -9 -64 q0 -48 26 -86 q27 -38 85 -40 q34 0 64 19 q30 19 54 51 q41 9 71 42 q31 33 59 85 q8 15 8 21 q0 4 -5 4 q-5 0 -13 -6 q-9 -6 -19 -15 l0 0 ZM34 203 q-5 -11 -9 -32 q-3 -21 -3 -45 q0 -14 2 -27 q1 -13 4 -22 q-6 11 -8 26 q-3 15 -3 32 q1 30 8 53 q7 24 11 25 q0 0 -1 -3 q0 -2 -1 -7 l0 0 ZM105 57 q-14 6 -22 20 q-7 14 -7 33 q0 18 6 38 q14 -26 33 -45 q19 -19 42 -29 q-10 -8 -21 -13 q-11 -5 -22 -5 q-4 0 -9 1 l0 0 ZM180 110 q-34 9 -50 38 q-15 28 -15 62 q0 40 18 70 q17 29 47 31 q22 0 31 -16 q9 -15 9 -41 q-1 -39 -14 -80 q-12 -42 -26 -64 l0 0 ZM212 332 q22 -6 36 -28 q14 -22 14 -38 q0 -1 -1 1 q-1 2 -2 4 q-2 15 -16 34 q-15 20 -31 27 l0 0 ZM277 411 q2 -1 3 -2 q1 0 2 0 q3 0 3 3 q0 9 -13 22 q-13 13 -39 14 q-24 -2 -54 -15 q-30 -14 -55 -16 q-5 0 -10 2 q-5 1 -8 1 q-3 0 -4 -1 q-1 -2 -1 -4 q1 -19 16 -30 q14 -12 24 -12 q33 2 71 20 q38 17 58 19 q4 0 7 -1 l0 0 Z" /><glyph glyph-name="" unicode="" d="M176 465 q16 -22 38 -51 q22 -29 43 -32 q11 1 23 8 q13 6 14 13 q0 3 -6 5 q-29 12 -52 49 q-23 36 -55 41 q-33 -4 -54 -38 q-20 -34 -46 -45 q-3 -1 -4 -2 q-1 -1 -1 -2 q1 -5 12 -11 q11 -6 20 -7 q18 3 37 29 q18 26 31 43 l0 0 ZM330 203 q-24 -24 -38 -46 q-14 -22 -34 -37 q13 27 20 56 q7 29 7 57 q0 47 -25 87 q-26 39 -82 42 q-46 -1 -78 -36 q-32 -35 -33 -85 q0 -6 1 -14 q-8 7 -18 10 q-9 4 -16 4 q-17 -5 -25 -49 q-9 -44 -9 -64 q0 -48 26 -86 q27 -38 85 -40 q34 0 64 19 q30 19 54 51 q41 9 71 42 q31 33 59 85 q8 15 8 21 q0 4 -5 4 q-5 0 -13 -6 q-9 -6 -19 -15 l0 0 ZM34 203 q-5 -11 -9 -32 q-3 -21 -3 -45 q0 -14 2 -27 q1 -13 4 -22 q-6 11 -8 26 q-3 15 -3 32 q1 30 8 53 q7 24 11 25 q0 0 -1 -3 q0 -2 -1 -7 l0 0 ZM105 57 q-14 6 -22 20 q-7 14 -7 33 q0 18 6 38 q14 -26 33 -45 q19 -19 42 -29 q-10 -8 -21 -13 q-11 -5 -22 -5 q-4 0 -9 1 l0 0 ZM180 110 q-34 9 -50 38 q-15 28 -15 62 q0 40 18 70 q17 29 47 31 q22 0 31 -16 q9 -15 9 -41 q-1 -39 -14 -80 q-12 -42 -26 -64 l0 0 ZM212 332 q22 -6 36 -28 q14 -22 14 -38 q0 -1 -1 1 q-1 2 -2 4 q-2 15 -16 34 q-15 20 -31 27 l0 0 Z" /><glyph glyph-name="" unicode="&#x151;" d="M330 203 q-24 -24 -38 -46 q-14 -22 -34 -37 q13 27 20 56 q7 29 7 57 q0 47 -25 87 q-26 39 -82 42 q-46 -1 -78 -36 q-32 -35 -33 -85 q0 -6 1 -14 q-8 7 -18 10 q-9 4 -16 4 q-17 -5 -25 -49 q-9 -44 -9 -64 q0 -48 26 -86 q27 -38 85 -40 q34 0 64 19 q30 19 54 51 q41 9 71 42 q31 33 59 85 q8 15 8 21 q0 4 -5 4 q-5 0 -13 -6 q-9 -6 -19 -15 l0 0 ZM34 203 q-5 -11 -9 -32 q-3 -21 -3 -45 q0 -14 2 -27 q1 -13 4 -22 q-6 11 -8 26 q-3 15 -3 32 q1 30 8 53 q7 24 11 25 q0 0 -1 -3 q0 -2 -1 -7 l0 0 ZM105 57 q-14 6 -22 20 q-7 14 -7 33 q0 18 6 38 q14 -26 33 -45 q19 -19 42 -29 q-10 -8 -21 -13 q-11 -5 -22 -5 q-4 0 -9 1 l0 0 ZM180 110 q-34 9 -50 38 q-15 28 -15 62 q0 40 18 70 q17 29 47 31 q22 0 31 -16 q9 -15 9 -41 q-1 -39 -14 -80 q-12 -42 -26 -64 l0 0 ZM212 332 q22 -6 36 -28 q14 -22 14 -38 q0 -1 -1 1 q-1 2 -2 4 q-2 15 -16 34 q-15 20 -31 27 l0 0 ZM227 457 q2 -1 3 -2 q1 0 2 0 q3 0 3 3 q0 9 -13 22 q-13 13 -39 14 q-24 -2 -54 -15 q-30 -14 -55 -16 q-5 0 -10 2 q-5 1 -8 1 q-3 0 -4 -1 q-1 -2 -1 -4 q1 -19 16 -30 q14 -12 24 -12 q33 2 71 20 q38 17 58 19 q4 0 7 -1 l0 0 ZM349 413 q2 -1 3 -2 q1 0 2 0 q3 0 3 3 q0 9 -13 22 q-13 13 -39 14 q-24 -2 -54 -15 q-30 -14 -55 -16 q-5 0 -10 2 q-5 1 -8 1 q-3 0 -4 -1 q-1 -2 -1 -4 q1 -19 16 -30 q14 -12 24 -12 q33 2 71 20 q38 17 58 19 q4 0 7 -1 l0 0 Z" /><glyph glyph-name="" unicode="" d="M330 203 q-24 -24 -38 -46 q-14 -22 -34 -37 q13 27 20 56 q7 29 7 57 q0 47 -25 87 q-26 39 -82 42 q-46 -1 -78 -36 q-32 -35 -33 -85 q0 -6 1 -14 q-8 7 -18 10 q-9 4 -16 4 q-17 -5 -25 -49 q-9 -44 -9 -64 q0 -48 26 -86 q27 -38 85 -40 q34 0 64 19 q30 19 54 51 q41 9 71 42 q31 33 59 85 q8 15 8 21 q0 4 -5 4 q-5 0 -13 -6 q-9 -6 -19 -15 l0 0 ZM34 203 q-5 -11 -9 -32 q-3 -21 -3 -45 q0 -14 2 -27 q1 -13 4 -22 q-6 11 -8 26 q-3 15 -3 32 q1 30 8 53 q7 24 11 25 q0 0 -1 -3 q0 -2 -1 -7 l0 0 ZM105 57 q-14 6 -22 20 q-7 14 -7 33 q0 18 6 38 q14 -26 33 -45 q19 -19 42 -29 q-10 -8 -21 -13 q-11 -5 -22 -5 q-4 0 -9 1 l0 0 ZM180 110 q-34 9 -50 38 q-15 28 -15 62 q0 40 18 70 q17 29 47 31 q22 0 31 -16 q9 -15 9 -41 q-1 -39 -14 -80 q-12 -42 -26 -64 l0 0 ZM212 332 q22 -6 36 -28 q14 -22 14 -38 q0 -1 -1 1 q-1 2 -2 4 q-2 15 -16 34 q-15 20 -31 27 l0 0 ZM172 491 q-7 3 -15 4 q-8 1 -16 1 q-8 0 -13 -1 q-5 -1 -5 -3 q1 -2 6 -4 q5 -3 6 -8 q-1 -8 -9 -22 q-9 -13 -10 -28 q0 -6 8 -19 q9 -13 32 -15 q9 1 21 22 q13 20 14 43 q0 10 -4 18 q-5 7 -15 12 l0 0 ZM253 471 q-7 3 -15 4 q-8 1 -16 1 q-8 0 -13 -1 q-5 -1 -5 -3 q1 -2 6 -4 q5 -3 6 -8 q-1 -9 -9 -22 q-9 -13 -10 -28 q0 -7 9 -20 q9 -13 30 -14 q9 1 22 22 q13 20 14 43 q0 10 -4 18 q-5 7 -15 12 l0 0 Z" /><glyph glyph-name="" unicode="" d="M273 310 q-48 5 -98 5 q-50 0 -98 -5 q-13 -3 -20 -22 q-7 -20 -7 -38 q0 -7 1 -11 q1 -4 4 -4 q23 4 47 5 q24 2 49 2 q32 0 62 -4 q30 -3 56 -4 q10 1 15 11 q5 10 5 24 q0 16 -5 28 q-4 12 -11 13 l0 0 ZM80 298 q41 9 90 9 q36 0 75 -5 q-11 0 -22 1 q-11 0 -22 0 q-61 0 -121 -5 l0 0 ZM216 332 q12 9 23 33 q10 24 11 44 q-1 14 -11 21 q-10 6 -23 6 q-22 -1 -41 -23 q-19 -23 -20 -57 q1 -15 12 -23 q12 -8 26 -8 q12 0 23 7 l0 0 ZM214 430 q-13 -7 -25 -19 q-13 -13 -19 -23 q5 16 17 28 q12 12 27 14 l0 0 ZM128 213 q-14 -8 -25 -30 q-10 -23 -11 -43 q1 -15 12 -23 q12 -8 25 -8 q20 1 38 25 q19 24 20 59 q-1 14 -11 21 q-10 6 -22 6 q-14 0 -26 -7 l0 0 ZM106 172 q5 16 17 28 q12 12 28 15 q-13 -8 -25 -20 q-13 -13 -20 -23 l0 0 Z" /><glyph glyph-name="" unicode="&#x159;" d="M268 328 q-13 12 -27 11 q-52 -9 -99 -87 q-47 -79 -59 -121 q9 46 27 91 q18 46 33 81 q1 2 1 4 q0 1 0 3 q-1 16 -19 26 q-18 11 -37 11 q-6 0 -11 -1 q-5 -2 -7 -5 q-12 -18 -39 -101 q-28 -83 -31 -162 q0 -37 12 -59 q13 -22 43 -23 q6 0 10 4 q4 3 6 9 q12 54 40 112 q29 58 64 116 q-1 -12 -1 -22 q0 -45 11 -69 q11 -25 33 -25 q6 0 10 3 q4 4 4 11 q-2 13 -2 25 q3 58 24 92 q21 34 24 56 q0 5 -2 10 q-3 5 -8 10 l0 0 ZM39 191 q1 34 13 67 q11 32 34 63 q-17 -32 -29 -65 q-12 -33 -18 -65 l0 0 ZM189 241 q0 -20 1 -37 q0 -17 3 -31 q-9 17 -10 36 q0 15 6 32 l0 0 ZM184 387 q-12 17 -30 41 q-18 25 -34 27 q-9 0 -20 -6 q-10 -6 -11 -12 q0 -1 1 -2 q2 -1 4 -1 q23 -10 42 -39 q18 -30 44 -34 q27 4 43 31 q17 27 38 35 q4 2 4 3 q-1 5 -10 10 q-8 5 -16 5 q-14 -2 -29 -23 q-16 -21 -26 -35 l0 0 Z" /><glyph glyph-name="" unicode="&#x16f;" d="M239 377 q15 13 23 28 q7 15 7 30 q0 24 -19 43 q-19 19 -56 20 q-28 -1 -42 -19 q-15 -18 -15 -44 q1 -34 19 -54 q18 -21 41 -21 q21 0 42 17 l0 0 ZM204 486 q39 -27 39 -53 q0 -15 -12 -29 q-11 -14 -33 -27 q-29 32 -29 60 q0 14 9 27 q8 12 26 22 l0 0 ZM357 203 q-26 -28 -55 -76 q-29 -49 -67 -77 q5 48 24 112 q19 63 53 121 q1 3 1 6 q-1 15 -20 30 q-18 15 -36 16 q-11 0 -16 -9 l-2 -3 q-2 -4 -3 -8 q-2 -4 -4 -8 q-25 -63 -67 -145 q-42 -81 -80 -89 q-2 0 -5 2 q-2 1 -2 8 q2 30 24 92 q22 63 43 99 l0 8 q0 5 1 9 q-4 13 -9 18 q-5 5 -6 5 q0 0 -4 2 q-4 2 -6 5 q-10 -20 -28 -66 q-19 -46 -22 -51 q1 12 17 59 q16 46 31 62 q0 2 -4 4 q-3 2 -7 5 q0 -1 -1 -2 q0 0 -1 0 q0 0 -6 4 q-5 3 -10 3 q-5 0 -8 -2 q-4 -2 -6 -6 q-13 -30 -42 -109 q-29 -80 -33 -149 q1 -19 20 -42 q19 -23 48 -25 q26 1 50 25 q25 24 45 56 q1 -46 18 -67 q16 -21 35 -21 q69 14 120 111 q51 96 56 110 q0 2 -1 3 q-1 1 -3 1 q-5 0 -14 -6 q-9 -6 -18 -15 l0 0 ZM215 87 q-2 6 -2 15 q2 38 20 87 q17 48 24 64 q6 12 8 12 q-3 -6 -25 -68 q-22 -63 -25 -110 l0 0 Z" /><glyph glyph-name="" unicode="" d="M357 203 q-26 -28 -55 -76 q-29 -49 -67 -77 q5 48 24 112 q19 63 53 121 q1 3 1 6 q-1 15 -20 30 q-18 15 -36 16 q-11 0 -16 -9 l-2 -3 q-2 -4 -3 -8 q-2 -4 -4 -8 q-25 -63 -67 -145 q-42 -81 -80 -89 q-2 0 -5 2 q-2 1 -2 8 q2 30 24 92 q22 63 43 99 l0 8 q0 5 1 9 q-4 13 -9 18 q-5 5 -6 5 q0 0 -4 2 q-4 2 -6 5 q-10 -20 -28 -66 q-19 -46 -22 -51 q1 12 17 59 q16 46 31 62 q0 2 -4 4 q-3 2 -7 5 q0 -1 -1 -2 q0 0 -1 0 q0 0 -6 4 q-5 3 -10 3 q-5 0 -8 -2 q-4 -2 -6 -6 q-13 -30 -42 -109 q-29 -80 -33 -149 q1 -19 20 -42 q19 -23 48 -25 q26 1 50 25 q25 24 45 56 q1 -46 18 -67 q16 -21 35 -21 q69 14 120 111 q51 96 56 110 q0 2 -1 3 q-1 1 -3 1 q-5 0 -14 -6 q-9 -6 -18 -15 l0 0 ZM215 87 q-2 6 -2 15 q2 38 20 87 q17 48 24 64 q6 12 8 12 q-3 -6 -25 -68 q-22 -63 -25 -110 l0 0 ZM288 418 q2 -1 3 -2 q1 0 2 0 q3 0 3 3 q0 9 -13 22 q-13 13 -39 14 q-24 -2 -54 -15 q-30 -14 -55 -16 q-5 0 -10 2 q-5 1 -8 1 q-3 0 -4 -1 q-1 -2 -1 -4 q1 -19 16 -30 q14 -12 24 -12 q33 2 71 20 q38 17 58 19 q4 0 7 -1 l0 0 Z" /><glyph glyph-name="" unicode="&#x171;" d="M357 203 q-26 -28 -55 -76 q-29 -49 -67 -77 q5 48 24 112 q19 63 53 121 q1 3 1 6 q-1 15 -20 30 q-18 15 -36 16 q-11 0 -16 -9 l-2 -3 q-2 -4 -3 -8 q-2 -4 -4 -8 q-25 -63 -67 -145 q-42 -81 -80 -89 q-2 0 -5 2 q-2 1 -2 8 q2 30 24 92 q22 63 43 99 l0 8 q0 5 1 9 q-4 13 -9 18 q-5 5 -6 5 q0 0 -4 2 q-4 2 -6 5 q-10 -20 -28 -66 q-19 -46 -22 -51 q1 12 17 59 q16 46 31 62 q0 2 -4 4 q-3 2 -7 5 q0 -1 -1 -2 q0 0 -1 0 q0 0 -6 4 q-5 3 -10 3 q-5 0 -8 -2 q-4 -2 -6 -6 q-13 -30 -42 -109 q-29 -80 -33 -149 q1 -19 20 -42 q19 -23 48 -25 q26 1 50 25 q25 24 45 56 q1 -46 18 -67 q16 -21 35 -21 q69 14 120 111 q51 96 56 110 q0 2 -1 3 q-1 1 -3 1 q-5 0 -14 -6 q-9 -6 -18 -15 l0 0 ZM215 87 q-2 6 -2 15 q2 38 20 87 q17 48 24 64 q6 12 8 12 q-3 -6 -25 -68 q-22 -63 -25 -110 l0 0 ZM213 451 q2 -1 3 -2 q1 0 2 0 q3 0 3 3 q0 9 -13 22 q-13 13 -39 14 q-24 -2 -54 -15 q-30 -14 -55 -16 q-5 0 -10 2 q-5 1 -8 1 q-3 0 -4 -1 q-1 -2 -1 -4 q1 -19 16 -30 q14 -12 24 -12 q33 2 71 20 q38 17 58 19 q4 0 7 -1 l0 0 ZM335 407 q2 -1 3 -2 q1 0 2 0 q3 0 3 3 q0 9 -13 22 q-13 13 -39 14 q-24 -2 -54 -15 q-30 -14 -55 -16 q-5 0 -10 2 q-5 1 -8 1 q-3 0 -4 -1 q-1 -2 -1 -4 q1 -19 16 -30 q14 -12 24 -12 q33 2 71 20 q38 17 58 19 q4 0 7 -1 l0 0 Z" /><glyph glyph-name="" unicode="" d="M357 203 q-26 -28 -55 -76 q-29 -49 -67 -77 q5 48 24 112 q19 63 53 121 q1 3 1 6 q-1 15 -20 30 q-18 15 -36 16 q-11 0 -16 -9 l-2 -3 q-2 -4 -3 -8 q-2 -4 -4 -8 q-25 -63 -67 -145 q-42 -81 -80 -89 q-2 0 -5 2 q-2 1 -2 8 q2 30 24 92 q22 63 43 99 l0 8 q0 5 1 9 q-4 13 -9 18 q-5 5 -6 5 q0 0 -4 2 q-4 2 -6 5 q-10 -20 -28 -66 q-19 -46 -22 -51 q1 12 17 59 q16 46 31 62 q0 2 -4 4 q-3 2 -7 5 q0 -1 -1 -2 q0 0 -1 0 q0 0 -6 4 q-5 3 -10 3 q-5 0 -8 -2 q-4 -2 -6 -6 q-13 -30 -42 -109 q-29 -80 -33 -149 q1 -19 20 -42 q19 -23 48 -25 q26 1 50 25 q25 24 45 56 q1 -46 18 -67 q16 -21 35 -21 q69 14 120 111 q51 96 56 110 q0 2 -1 3 q-1 1 -3 1 q-5 0 -14 -6 q-9 -6 -18 -15 l0 0 ZM215 87 q-2 6 -2 15 q2 38 20 87 q17 48 24 64 q6 12 8 12 q-3 -6 -25 -68 q-22 -63 -25 -110 l0 0 ZM165 474 q-7 3 -15 4 q-8 1 -16 1 q-8 0 -13 -1 q-5 -1 -5 -3 q1 -2 6 -4 q5 -3 6 -8 q-1 -8 -9 -22 q-9 -13 -10 -28 q0 -6 8 -19 q9 -13 32 -15 q9 1 21 22 q13 20 14 43 q0 10 -4 18 q-5 7 -15 12 l0 0 ZM246 454 q-7 3 -15 4 q-8 1 -16 1 q-8 0 -13 -1 q-5 -1 -5 -3 q1 -2 6 -4 q5 -3 6 -8 q-1 -9 -9 -22 q-9 -13 -10 -28 q0 -7 9 -20 q9 -13 30 -14 q9 1 22 22 q13 20 14 43 q0 10 -4 18 q-5 7 -15 12 l0 0 Z" /><glyph glyph-name="" unicode="" d="M218 335 q-6 -33 -14 -69 q-8 -36 -18 -73 q-21 -39 -51 -81 q-30 -43 -66 -64 l0 8 q2 44 27 114 q26 69 50 111 q1 5 1 10 q0 6 1 9 q-2 10 -8 14 q-7 5 -15 14 q-3 0 -5 -4 q-2 -4 -3 -6 q-13 -26 -24 -54 q-12 -29 -21 -52 q3 20 18 57 q14 36 31 63 q0 1 -3 3 q-4 2 -9 6 q-2 0 -4 2 q-1 1 -2 2 q-7 3 -12 2 q-4 0 -7 -2 q-3 -2 -4 -4 q-32 -71 -55 -139 q-23 -67 -24 -118 q0 -33 15 -57 q15 -25 49 -26 q16 0 34 13 q18 13 42 43 q-34 -87 -72 -134 q-38 -47 -86 -48 q-8 1 -14 8 q-5 6 -12 7 q-5 0 -8 -3 q-3 -4 -3 -12 q0 -22 20 -48 q20 -25 56 -27 q101 11 159 153 q59 142 93 290 l15 55 q0 2 1 3 q0 1 0 2 q-2 17 -20 29 q-19 12 -36 13 q-7 0 -11 -2 q-4 -3 -5 -8 l0 0 ZM161 -58 q-6 -22 -21 -45 q-15 -24 -41 -49 q-4 -4 -6 -5 q-2 -2 -3 -2 q6 3 27 34 q21 30 33 50 q3 4 7 14 q5 10 6 11 q0 0 0 -2 q-1 -2 -2 -6 l0 0 ZM257 412 q2 -1 3 -2 q1 0 2 0 q3 0 3 3 q0 9 -13 22 q-13 13 -39 14 q-24 -2 -54 -15 q-30 -14 -55 -16 q-5 0 -10 2 q-5 1 -8 1 q-3 0 -4 -1 q-1 -2 -1 -4 q1 -19 16 -30 q14 -12 24 -12 q33 2 71 20 q38 17 58 19 q4 0 7 -1 l0 0 Z" /><glyph glyph-name="" unicode="&#x163;" d="M234 359 q6 1 6 22 q0 22 -7 29 q-8 7 -27 6 q-13 -1 -19 -1 q-7 0 -10 0 q-5 0 -5 0 q0 1 1 4 q0 2 1 4 q6 14 5 27 q-1 26 -13 44 q-12 18 -28 19 q-7 1 -22 -24 q-15 -24 -39 -82 q-22 0 -38 4 q-16 5 -21 16 q-3 4 -6 4 q-4 0 -7 -6 q-4 -5 -4 -12 q1 -21 18 -32 q17 -11 42 -15 q-24 -65 -42 -136 q-18 -71 -19 -129 q1 -51 19 -76 q18 -26 41 -26 q30 2 57 30 q26 27 42 53 q27 43 51 85 q23 42 25 53 q0 4 -5 4 q-35 -8 -71 -77 q-36 -69 -92 -103 q-3 13 -3 28 q2 60 28 139 q26 80 56 150 q15 0 29 1 q15 0 26 0 q23 0 31 -3 l0 0 ZM26 168 q5 43 18 92 q13 50 33 104 l4 -1 q-19 -55 -32 -104 q-14 -48 -23 -91 l0 0 ZM99 -31 q-7 3 -15 4 q-8 1 -16 1 q-8 0 -13 -1 q-5 -1 -5 -3 q1 -2 6 -4 q5 -3 6 -8 q-1 -9 -9 -22 q-9 -13 -10 -28 q0 -7 9 -20 q9 -13 30 -14 q9 1 22 22 q13 20 14 43 q0 10 -4 18 q-5 7 -15 12 l0 0 Z" /><glyph glyph-name="" unicode="&#x201d;" d="M155 567 q-8 -24 -19 -55 q-12 -30 -26 -52 q-2 -3 -2 -6 q0 -7 6 -14 q6 -7 14 -8 q22 4 51 49 q30 44 33 77 q0 13 -9 21 q-10 9 -22 9 q-8 0 -15 -5 q-7 -5 -11 -16 l0 0 ZM158 467 q31 48 50 87 q-7 -37 -50 -87 l0 0 ZM146 559 q-1 13 -10 22 q-9 9 -21 9 q-22 -4 -37 -49 q-15 -45 -35 -79 q-1 -1 -1 -2 q0 -2 0 -3 q0 -7 6 -14 q6 -7 14 -7 q23 5 52 49 q29 45 32 74 l0 0 ZM92 469 q30 48 49 87 q-7 -37 -49 -87 l0 0 ZM146 559 q-1 13 -10 22 q-9 9 -21 9 q-22 -4 -37 -49 q-15 -45 -35 -79 q-1 -1 -1 -2 q0 -2 0 -3 q0 -7 6 -14 q6 -7 14 -7 q23 5 52 49 q29 45 32 74 l0 0 ZM92 469 q30 48 49 87 q-7 -37 -49 -87 l0 0 Z" /></font>
</defs>
</svg>
